<?xml version="1.0" encoding="UTF-8"?>
<svg width="416px" height="416px" viewBox="0 0 416 416" version="1.1" xmlns="http://www.w3.org/2000/svg" xmlns:xlink="http://www.w3.org/1999/xlink">
    <title>Artboard</title>
    <g id="Artboard" stroke="none" stroke-width="1" fill="none" fill-rule="evenodd">
        <g id="Walker" transform="translate(87, 117.9906)">
            <g id="Expressions" transform="translate(43.1781, 165.3185)">
                <g id="Past-Bedtime" transform="translate(30.2977, 33.0201)">
                    <path d="M70.2913884,47.5978873 C70.3977085,52.8211897 70.1166173,56.080796 69.4481149,57.3767064 C68.4453612,59.3205719 65.9363268,62.2093023 68.4955348,64.4400629 C71.0547427,66.6708235 74.5242718,64.1985132 74.5242718,59.9172784 C74.5242718,57.0631219 74.5242718,52.4496921 74.5242718,46.076989 L70.2913884,47.5978873 Z" id="Path-3" fill="#B2E2E2"></path>
                    <path d="M46.6796506,49.6708235 L45.802839,49.6650494 L44.4887761,49.6492388 L42.7540769,49.6152005 C31.1558924,49.3372042 20.5242718,48.0649008 20.5242718,46.076989 C20.5242718,43.8164202 21.0595222,39.4703404 23.7522603,35.884915 C26.4449984,32.2994897 35.5039423,26.6708235 47.5560217,26.6708235 L48.0857377,26.6744509 C59.8713101,26.8359306 68.6431444,32.3522166 71.2962834,35.884915 C73.9890215,39.4703404 74.5242718,43.8164202 74.5242718,46.076989 C74.5242718,48.089443 63.6788473,49.3685101 51.9258534,49.6250415 L50.622198,49.6492388 C49.8935149,49.6603921 49.1627708,49.6676096 48.4323022,49.6708235 L46.6796506,49.6708235 Z" id="Mouth" fill="#925B57"></path>
                    <path d="M47.6332435,49.6708235 L47.2273122,49.6688151 L46.6189497,49.6633158 L45.8158483,49.6514764 C40.4463184,49.554782 35.5242718,49.1122417 35.5242718,48.4207941 C35.5242718,47.6345093 35.7720729,46.1228293 37.0187109,44.8757249 C38.265349,43.6286204 42.4593044,41.6708235 48.0389709,41.6708235 L48.2842097,41.6720852 C53.7404933,41.728252 57.8015276,43.6469602 59.0298327,44.8757249 C60.2764708,46.1228293 60.5242718,47.6345093 60.5242718,48.4207941 C60.5242718,49.1207781 55.503242,49.565671 50.0620411,49.6548993 L49.4584969,49.6633158 C49.1211436,49.6671952 48.7828362,49.6697056 48.4446563,49.6708235 L47.6332435,49.6708235 Z" id="Tongue" fill="#BD8483"></path>
                    <path d="M0,1.16235653 C2.52371713,0.387452177 5.37808606,0 8.5631068,0 C11.7481275,0 14.6024965,0.387452177 17.1262136,1.16235653" id="Left-Eye" stroke="#4C88A1" stroke-width="5" stroke-linecap="round" transform="translate(8.5631, 0.5812) scale(1, -1) translate(-8.5631, -0.5812)"></path>
                    <path d="M79.9223301,1.16235653 C82.4464852,0.387452177 85.3008542,0 88.4854369,0 C91.6700196,0 94.5243886,0.387452177 97.0485437,1.16235653" id="Right-Eye" stroke="#4C88A1" stroke-width="5" stroke-linecap="round" transform="translate(88.4854, 0.5812) scale(1, -1) translate(-88.4854, -0.5812)"></path>
                </g>
            </g>
        </g>
        <g id="Mini" transform="translate(104, 330)"></g>
    </g>
</svg>