<?xml version="1.0" encoding="UTF-8"?>
<svg width="416px" height="416px" viewBox="0 0 416 416" version="1.1" xmlns="http://www.w3.org/2000/svg" xmlns:xlink="http://www.w3.org/1999/xlink">
    <title>Red Panda</title>
    <defs>
        <path d="M61.9625976,53.0084746 L61.0533115,53.0032026 L59.6905797,52.9887668 L57.8916324,52.9576884 C45.8638855,52.7038657 34.8385012,51.5421974 34.8385012,49.7271474 C34.8385012,47.6631498 35.3935756,43.69499 38.1860447,40.4213408 C40.9785139,37.1476916 50.3729742,32.0084746 62.871427,32.0084746 L63.4207621,32.0117866 C75.6428371,32.1592246 84.7395542,37.1958335 87.4909576,40.4213408 C90.2834267,43.69499 90.8385012,47.6631498 90.8385012,49.7271474 C90.8385012,51.5646054 79.5913942,52.7324493 67.4031043,52.9666736 L66.0511653,52.9887668 C65.2954939,52.9989503 64.5376853,53.0055402 63.7801623,53.0084746 L61.9625976,53.0084746 Z" id="path-1"></path>
    </defs>
    <g id="Red-Panda" stroke="none" stroke-width="1" fill="none" fill-rule="evenodd">
        <g id="Expressions" transform="translate(110.1781, 283.3091)">
            <g id="69" transform="translate(35.4834, 33.6824)">
                <path d="M4.33850117,0.5 C4.33850117,6.57513225 8.59831617,11.5 13.8530643,11.5 C19.1078124,11.5 23.3676274,6.57513225 23.3676274,0.5" id="Left-Eye" fill="#000000"></path>
                <line x1="0" y1="0.5" x2="21.3482682" y2="0.5" id="Left-Lid" stroke="#000000" stroke-width="4" stroke-linecap="round"></line>
                <path d="M103.309375,0.5 C103.309375,6.57513225 107.56919,11.5 112.823938,11.5 C118.078686,11.5 122.338501,6.57513225 122.338501,0.5" id="Right-Eye" fill="#000000"></path>
                <line x1="99" y1="1" x2="120.348268" y2="1" id="Right-Lid" stroke="#000000" stroke-width="4" stroke-linecap="round"></line>
                <mask id="mask-2" fill="white">
                    <use xlink:href="#path-1" transform="translate(62.8385, 42.5085) scale(1, -1) translate(-62.8385, -42.5085)"></use>
                </mask>
                <use id="Mouth" fill="#833219" transform="translate(62.8385, 42.5085) scale(1, -1) translate(-62.8385, -42.5085)" xlink:href="#path-1"></use>
                <path d="M61.4916986,53.0084746 L60.8388778,53.0056358 L59.8605062,52.9978627 L58.5689543,52.9811282 C49.9336489,52.8444544 42.0179883,52.2189407 42.0179883,51.2416061 C42.0179883,50.1302228 42.4165033,47.9935213 44.421353,46.2307872 C46.4262026,44.468053 53.1709433,41.7007823 62.1441915,41.7007823 L62.5385859,41.7025656 C71.313409,41.7819553 77.8443854,44.4939755 79.8197519,46.2307872 C81.8246016,47.9935213 82.2231166,50.1302228 82.2231166,51.2416061 C82.2231166,52.2310066 74.1482705,52.8598456 65.3977034,52.9859664 L64.4270805,52.9978627 C63.8845472,53.0033461 63.3404795,53.0068945 62.7966169,53.0084746 L61.4916986,53.0084746 Z" id="Tongue" fill="#DD795A" mask="url(#mask-2)"></path>
            </g>
        </g>
    </g>
</svg>