<?xml version="1.0" encoding="UTF-8"?>
<svg width="416px" height="416px" viewBox="0 0 416 416" version="1.1" xmlns="http://www.w3.org/2000/svg" xmlns:xlink="http://www.w3.org/1999/xlink">
    <title>Red Panda</title>
    <g id="Red-Panda" stroke="none" stroke-width="1" fill="none" fill-rule="evenodd">
        <g id="Accessories" transform="translate(107, 128.9813)">
            <g id="Cold" transform="translate(0, 0)">
                <g id="Scarf" transform="translate(0, 249.0187)">
                    <path d="M199.785372,0 C206.453909,1.31368589 203.732803,22.8122044 201.583388,26.4787394 C198.935653,28.8705678 185.236319,52 102.31973,52 C19.4031414,52 4.9889275,28.3508396 2.34119248,25.9590112 C0.191777919,22.2924763 -2.38767449,1.31368589 4.28086277,0 C26.1737318,6.19108572 58.8533543,9.28662859 102.31973,9.28662859 C145.786106,9.28662859 178.274653,6.19108572 199.785372,0 Z" id="Base" fill="#5B9667"></path>
                    <g id="Stripes" transform="translate(26, 5)" fill="#314836">
                        <path d="M148.555171,37.396458 C150.485093,32.2568728 151.27242,26.4035709 150.917152,19.8365522 C150.561885,13.2695334 149.507103,6.65734939 147.752808,0 C144.031869,0.478178846 142.1714,0.717268269 142.1714,0.717268269 C143.070664,6.65325607 143.757891,12.7736577 143.757891,21.4576464 C143.757891,30.1416351 142.448768,34.5095961 140.945351,39.6731043 C142.659776,39.221279 144.023732,38.848215 145.037219,38.5539122 C146.050706,38.2596095 147.223357,37.8737914 148.555171,37.396458 Z" id="4th-Stripe"></path>
                        <path d="M102.650296,45.6134903 C105.147896,37.9720937 106.219063,30.867886 105.863795,24.3008673 C105.508527,17.7338485 104.497967,10.8251096 102.832113,3.57465041 C98.9463507,3.69883605 97.0034696,3.76092887 97.0034696,3.76092887 C97.902733,9.69691667 98.2528767,16.6510659 98.2528767,25.3350546 C98.2528767,34.0190433 97.5707059,40.8363628 96.0672888,46 C97.443439,45.9279551 98.4741448,45.8718156 99.1594062,45.8315817 C99.9370352,45.7859246 101.100665,45.7132275 102.650296,45.6134903 Z" id="3rd-Stripe"></path>
                        <path d="M51.9099693,45.6134903 C54.4075701,37.9720937 55.4787366,30.867886 55.1234688,24.3008673 C54.768201,17.7338485 53.7576402,10.8251096 52.0917865,3.57465041 C48.2060243,3.69883605 46.2631433,3.76092887 46.2631433,3.76092887 C47.1624066,9.69691667 47.5125504,16.6510659 47.5125504,25.3350546 C47.5125504,34.0190433 46.8303796,40.8363628 45.3269625,46 C46.7031127,45.9279551 47.7338185,45.8718156 48.4190799,45.8315817 C49.1967089,45.7859246 50.3603387,45.7132275 51.9099693,45.6134903 Z" id="2nd-Stripe" transform="translate(50.2584, 24.7873) scale(-1, 1) translate(-50.2584, -24.7873)"></path>
                        <path d="M7.60981992,37.396458 C9.53974197,32.2568728 10.3270691,26.4035709 9.97180135,19.8365522 C9.61653358,13.2695334 8.56175215,6.65734939 6.80745705,0 C3.08651858,0.478178846 1.22604934,0.717268269 1.22604934,0.717268269 C2.12531272,6.65325607 2.81253966,12.7736577 2.81253966,21.4576464 C2.81253966,30.1416351 1.50341708,34.5095961 0,39.6731043 C1.71442469,39.221279 3.07838064,38.848215 4.09186783,38.5539122 C5.10535502,38.2596095 6.27800572,37.8737914 7.60981992,37.396458 Z" id="1st-Stripe" transform="translate(5.0273, 19.8366) scale(-1, 1) translate(-5.0273, -19.8366)"></path>
                    </g>
                </g>
                <g id="Beanie" transform="translate(178.0276, 71.4274) rotate(28) translate(-178.0276, -71.4274)translate(119.6409, 21.5756)">
                    <path d="M2.25375533,67.4105104 C3.09401713,22.4701701 29.239514,-1.84446769e-14 80.690246,-1.84446769e-14 C89.4740276,-1.84446769e-14 111.048736,1.27966577 115.795764,9.43768621 C120.542792,17.5957067 106.613491,20.9054574 103.712381,30.2221275 C101.778308,36.4332409 102.267997,48.8293685 105.181448,67.4105104 C94.570719,71.4194712 77.4102918,73.4239516 53.7001665,73.4239516 C29.9900411,73.4239516 12.8412374,71.4194712 2.25375533,67.4105104 Z" id="Path-2" fill="#314836"></path>
                    <path d="M105.181448,67.4105104 C108.692248,68.2263367 107.259661,81.5773648 106.128054,83.8543594 C104.734095,85.3397346 97.5217761,99.703594 53.8684955,99.703594 C10.215215,99.703594 2.62653174,85.0169726 1.2325728,83.5315973 C0.100965747,81.2546027 -1.25704429,68.2263367 2.25375533,67.4105104 C13.7797427,71.2553037 30.9846561,73.1777003 53.8684955,73.1777003 C76.752335,73.1777003 93.8566525,71.2553037 105.181448,67.4105104 Z" id="Base" fill="#5B9667"></path>
                    <g id="Stripes" transform="translate(14.2567, 70.2599)" fill="#314836">
                        <path d="M77.6097175,23.1645833 C78.6179671,19.980957 79.0292907,16.3552312 78.843688,12.2874061 C78.6580854,8.21958093 78.1070357,4.12377891 77.1905388,3.96084674e-15 C75.2466079,0.296199542 74.2746425,0.444299312 74.2746425,0.444299312 C74.7444449,4.12124337 75.1034731,7.91241937 75.1034731,13.2915646 C75.1034731,18.6707099 74.4195478,21.3763671 73.6341172,24.5748122 C74.5297846,24.2949369 75.2423564,24.0638489 75.7718328,23.8815482 C76.3013092,23.6992475 76.9139374,23.4602592 77.6097175,23.1645833 Z" id="4th-Stripe"></path>
                        <path d="M53.6276213,28.2544806 C54.9324435,23.5211508 55.4920533,19.1205733 55.3064507,15.0527482 C55.120848,10.984923 54.5929005,6.70542524 53.7226081,2.21425482 C51.6925683,2.29117944 50.6775484,2.32964176 50.6775484,2.32964176 C51.1473508,6.00658582 51.3302766,10.3142122 51.3302766,15.6933574 C51.3302766,21.0725027 50.9738899,25.2953723 50.1884593,28.4938973 C50.9074018,28.4492703 51.4458737,28.4144957 51.803875,28.3895735 C52.2101319,28.361292 52.8180474,28.316261 53.6276213,28.2544806 Z" id="3rd-Stripe"></path>
                        <path d="M27.1193391,28.2544806 C28.4241613,23.5211508 28.9837711,19.1205733 28.7981685,15.0527482 C28.6125658,10.984923 28.0846183,6.70542524 27.2143259,2.21425482 C25.1842861,2.29117944 24.1692662,2.32964176 24.1692662,2.32964176 C24.6390687,6.00658582 24.8219944,10.3142122 24.8219944,15.6933574 C24.8219944,21.0725027 24.4656077,25.2953723 23.6801771,28.4938973 C24.3991196,28.4492703 24.9375915,28.4144957 25.2955928,28.3895735 C25.7018497,28.361292 26.3097652,28.316261 27.1193391,28.2544806 Z" id="2nd-Stripe" transform="translate(26.2565, 15.3541) scale(-1, 1) translate(-26.2565, -15.3541)"></path>
                        <path d="M3.97560025,23.1645833 C4.98384994,19.980957 5.39517347,16.3552312 5.20957083,12.2874061 C5.0239682,8.21958093 4.47291846,4.12377891 3.5564216,-4.29191171e-15 C1.61249072,0.296199542 0.640525283,0.444299312 0.640525283,0.444299312 C1.11032769,4.12124337 1.46935585,7.91241937 1.46935585,13.2915646 C1.46935585,18.6707099 0.785430584,21.3763671 -1.26818445e-14,24.5748122 C0.89566735,24.2949369 1.60823922,24.0638489 2.1377156,23.8815482 C2.66719198,23.6992475 3.2798202,23.4602592 3.97560025,23.1645833 Z" id="1st-Stripe" transform="translate(2.6264, 12.2874) scale(-1, 1) translate(-2.6264, -12.2874)"></path>
                    </g>
                </g>
            </g>
        </g>
    </g>
</svg>