<?xml version="1.0" encoding="UTF-8"?>
<svg width="416px" height="416px" viewBox="0 0 416 416" version="1.1" xmlns="http://www.w3.org/2000/svg" xmlns:xlink="http://www.w3.org/1999/xlink">
    <title>Red Panda</title>
    <g id="Red-Panda" stroke="none" stroke-width="1" fill="none" fill-rule="evenodd">
        <g id="Expressions" transform="translate(110.1781, 283.3091)">
            <g id="Past-Bedtime" transform="translate(40.2977, 33.0201)">
                <path d="M80.2913884,53.5978873 C80.3977085,58.8211897 80.1166173,62.080796 79.4481149,63.3767064 C78.4453612,65.3205719 75.9363268,68.2093023 78.4955348,70.4400629 C81.0547427,72.6708235 84.5242718,70.1985132 84.5242718,65.9172784 C84.5242718,63.0631219 84.5242718,58.4496921 84.5242718,52.076989 L80.2913884,53.5978873 Z" id="Drool" fill="#B2E2E2"></path>
                <path d="M56.6796506,55.6708235 L55.802839,55.6650494 L54.4887761,55.6492388 L52.7540769,55.6152005 C41.1558924,55.3372042 30.5242718,54.0649008 30.5242718,52.076989 C30.5242718,49.8164202 31.0595222,45.4703404 33.7522603,41.884915 C36.4449984,38.2994897 45.5039423,32.6708235 57.5560217,32.6708235 L58.0857377,32.6744509 C69.8713101,32.8359306 78.6431444,38.3522166 81.2962834,41.884915 C83.9890215,45.4703404 84.5242718,49.8164202 84.5242718,52.076989 C84.5242718,54.089443 73.6788473,55.3685101 61.9258534,55.6250415 L60.622198,55.6492388 C59.8935149,55.6603921 59.1627708,55.6676096 58.4323022,55.6708235 L56.6796506,55.6708235 Z" id="Mouth" fill="#833219"></path>
                <path d="M57.6332435,55.6708235 L57.2273122,55.6688151 L56.6189497,55.6633158 L55.8158483,55.6514764 C50.4463184,55.554782 45.5242718,55.1122417 45.5242718,54.4207941 C45.5242718,53.6345093 45.7720729,52.1228293 47.0187109,50.8757249 C48.265349,49.6286204 52.4593044,47.6708235 58.0389709,47.6708235 L58.2842097,47.6720852 C63.7404933,47.728252 67.8015276,49.6469602 69.0298327,50.8757249 C70.2764708,52.1228293 70.5242718,53.6345093 70.5242718,54.4207941 C70.5242718,55.1207781 65.503242,55.565671 60.0620411,55.6548993 L59.4584969,55.6633158 C59.1211436,55.6671952 58.7828362,55.6697056 58.4446563,55.6708235 L57.6332435,55.6708235 Z" id="Tongue" fill="#DD795A"></path>
                <path d="M0,1.16235653 C2.52371713,0.387452177 5.37808606,7.10542736e-15 8.5631068,7.10542736e-15 C11.7481275,7.10542736e-15 14.6024965,0.387452177 17.1262136,1.16235653" id="Left-Eye" stroke="#000000" stroke-width="5" stroke-linecap="round" transform="translate(8.5631, 0.5812) scale(1, -1) translate(-8.5631, -0.5812)"></path>
                <path d="M99.9223301,1.16235653 C102.446485,0.387452177 105.300854,7.10542736e-15 108.485437,7.10542736e-15 C111.67002,7.10542736e-15 114.524389,0.387452177 117.048544,1.16235653" id="Right-Eye" stroke="#000000" stroke-width="5" stroke-linecap="round" transform="translate(108.4854, 0.5812) scale(1, -1) translate(-108.4854, -0.5812)"></path>
            </g>
        </g>
    </g>
</svg>