<?xml version="1.0" encoding="UTF-8"?>
<svg width="416px" height="416px" viewBox="0 0 416 416" version="1.1" xmlns="http://www.w3.org/2000/svg" xmlns:xlink="http://www.w3.org/1999/xlink">
    <title>Red Panda</title>
    <g id="Red-Panda" stroke="none" stroke-width="1" fill="none" fill-rule="evenodd">
        <g id="High-HR" transform="translate(110.1781, 283.3091)">
            <path d="M16.5347843,11.9085214 C16.5347843,16.2152901 15.5889329,19.386876 12.7282542,19.5690079 L12.4639902,19.5772785 C9.4523465,19.5272748 8.4639902,16.3109961 8.4639902,11.9085214 C8.4639902,9.04610426 9.95778844,4.83975008 12.4993873,0 C15.0409861,4.83975008 16.5347843,9.04610426 16.5347843,11.9085214 Z" id="Big-Sweat" fill="#B2E2E2"></path>
            <path d="M4.5347843,23.1825267 C4.5347843,25.602396 4.00333326,27.3844335 2.39598695,27.486769 L2.2475034,27.4914161 C0.555333534,27.4633202 0,25.6561709 0,23.1825267 C0,21.5742036 0.839329155,19.2107547 2.26739215,16.4914161 C3.69545515,19.2107547 4.5347843,21.5742036 4.5347843,23.1825267 Z" id="Small-Sweat" fill="#B2E2E2"></path>
            <ellipse id="Left-Eye" fill="#000000" cx="49.3364966" cy="34.1824429" rx="9.51456311" ry="9.49152542"></ellipse>
            <ellipse id="Right-Eye" fill="#000000" cx="148.30737" cy="34.1824429" rx="9.51456311" ry="9.49152542"></ellipse>
            <path d="M96.9773122,88.6909174 L96.1005006,88.6851434 L94.7864377,88.6693328 L93.0517386,88.6352945 C81.453554,88.3572982 70.8219335,87.0849948 70.8219335,85.097083 C70.8219335,82.8365142 71.3571838,78.4904343 74.0499219,74.905009 C76.74266,71.3195837 85.8016039,65.6909174 97.8536834,65.6909174 L98.3833993,65.6945449 C110.168972,65.8560246 118.940806,71.3723105 121.593945,74.905009 C124.286683,78.4904343 124.821933,82.8365142 124.821933,85.097083 C124.821933,87.1095369 113.976509,88.388604 102.223515,88.6451355 L100.91986,88.6693328 C100.191176,88.680486 99.4604324,88.6877036 98.7299639,88.6909174 L96.9773122,88.6909174 Z" id="Mouth" fill="#833219"></path>
            <path d="M97.9309051,88.6909174 L97.5249738,88.6889091 L96.9166114,88.6834097 L96.1135099,88.6715703 C90.74398,88.574876 85.8219335,88.1323357 85.8219335,87.4408881 C85.8219335,86.6546033 86.0697346,85.1429233 87.3163726,83.8958189 C88.5630106,82.6487144 92.7569661,80.6909174 98.3366325,80.6909174 L98.5818714,80.6921791 C104.038155,80.748346 108.099189,82.6670542 109.327494,83.8958189 C110.574132,85.1429233 110.821933,86.6546033 110.821933,87.4408881 C110.821933,88.140872 105.800904,88.585765 100.359703,88.6749933 L99.7561585,88.6834097 C99.4188052,88.6872891 99.0804978,88.6897996 98.7423179,88.6909174 L97.9309051,88.6909174 Z" id="Tongue" fill="#DD795A"></path>
        </g>
    </g>
</svg>