<?xml version="1.0" encoding="UTF-8"?>
<svg width="416px" height="416px" viewBox="0 0 416 416" version="1.1" xmlns="http://www.w3.org/2000/svg" xmlns:xlink="http://www.w3.org/1999/xlink">
    <title>Axolotl</title>
    <g id="Axolotl" stroke="none" stroke-width="1" fill="none" fill-rule="evenodd">
        <g id="Cold" transform="translate(114, 140.9813)">
            <g id="Scarf" transform="translate(0, 237.0187)">
                <path d="M183.136591,0 C189.249416,1.31368589 186.755069,22.8122044 184.784773,26.4787394 C182.357682,28.8705678 169.799959,52 93.793086,52 C17.786213,52 4.57318354,28.3508396 2.14609311,25.9590112 C0.175796426,22.2924763 -2.18870162,1.31368589 3.92412421,0 C23.9925875,6.19108572 53.9489081,9.28662859 93.793086,9.28662859 C133.637264,9.28662859 163.418432,6.19108572 183.136591,0 Z" id="Base" fill="#4C88A1"></path>
                <g id="Stripes" transform="translate(24, 5)" fill="#2D647A">
                    <path d="M136.749462,37.396458 C138.526013,32.2568728 139.250771,26.4035709 138.923736,19.8365522 C138.596702,13.2695334 137.625744,6.65734939 136.010863,0 C132.585628,0.478178846 130.873011,0.717268269 130.873011,0.717268269 C131.70081,6.65325607 132.333422,12.7736577 132.333422,21.4576464 C132.333422,30.1416351 131.128336,34.5095961 129.744396,39.6731043 C131.322575,39.221279 132.578137,38.848215 133.511082,38.5539122 C134.444027,38.2596095 135.523487,37.8737914 136.749462,37.396458 Z" id="4th-Stripe"></path>
                    <path d="M94.4926563,45.6134903 C96.7917722,37.9720937 97.7778129,30.867886 97.4507783,24.3008673 C97.1237437,17.7338485 96.1934924,10.8251096 94.6600244,3.57465041 C91.0830645,3.69883605 89.2945846,3.76092887 89.2945846,3.76092887 C90.1223833,9.69691667 90.4447011,16.6510659 90.4447011,25.3350546 C90.4447011,34.0190433 89.8167425,40.8363628 88.4328023,46 C89.6995895,45.9279551 90.648385,45.8718156 91.2791885,45.8315817 C91.9950192,45.7859246 93.0661751,45.7132275 94.4926563,45.6134903 Z" id="3rd-Stripe"></path>
                    <path d="M47.7846738,45.6134903 C50.0837897,37.9720937 51.0698303,30.867886 50.7427958,24.3008673 C50.4157612,17.7338485 49.4855099,10.8251096 47.9520418,3.57465041 C44.375082,3.69883605 42.5866021,3.76092887 42.5866021,3.76092887 C43.4144008,9.69691667 43.7367186,16.6510659 43.7367186,25.3350546 C43.7367186,34.0190433 43.10876,40.8363628 41.7248198,46 C42.991607,45.9279551 43.9404024,45.8718156 44.571206,45.8315817 C45.2870367,45.7859246 46.3581926,45.7132275 47.7846738,45.6134903 Z" id="2nd-Stripe" transform="translate(46.2644, 24.7873) scale(-1, 1) translate(-46.2644, -24.7873)"></path>
                    <path d="M7.00506602,37.396458 C8.78161678,32.2568728 9.50637488,26.4035709 9.17934032,19.8365522 C8.85230575,13.2695334 7.88134801,6.65734939 6.26646708,0 C2.84123233,0.478178846 1.12861496,0.717268269 1.12861496,0.717268269 C1.95641369,6.65325607 2.58902658,12.7736577 2.58902658,21.4576464 C2.58902658,30.1416351 1.38394022,34.5095961 0,39.6731043 C1.57817902,39.221279 2.83374112,38.848215 3.76668628,38.5539122 C4.69963145,38.2596095 5.77909136,37.8737914 7.00506602,37.396458 Z" id="1st-Stripe" transform="translate(4.6278, 19.8366) scale(-1, 1) translate(-4.6278, -19.8366)"></path>
                </g>
            </g>
            <g id="Beanie" transform="translate(171.0276, 71.4274) rotate(28) translate(-171.0276, -71.4274)translate(112.6409, 21.5756)">
                <path d="M2.25375533,67.4105104 C3.09401713,22.4701701 29.239514,-1.84446769e-14 80.690246,-1.84446769e-14 C89.4740276,-1.84446769e-14 111.048736,1.27966577 115.795764,9.43768621 C120.542792,17.5957067 106.613491,20.9054574 103.712381,30.2221275 C101.778308,36.4332409 102.267997,48.8293685 105.181448,67.4105104 C94.570719,71.4194712 77.4102918,73.4239516 53.7001665,73.4239516 C29.9900411,73.4239516 12.8412374,71.4194712 2.25375533,67.4105104 Z" id="Path-2" fill="#2D647A"></path>
                <path d="M105.181448,67.4105104 C108.692248,68.2263367 107.259661,81.5773648 106.128054,83.8543594 C104.734095,85.3397346 97.5217761,99.703594 53.8684955,99.703594 C10.215215,99.703594 2.62653174,85.0169726 1.2325728,83.5315973 C0.100965747,81.2546027 -1.25704429,68.2263367 2.25375533,67.4105104 C13.7797427,71.2553037 30.9846561,73.1777003 53.8684955,73.1777003 C76.752335,73.1777003 93.8566525,71.2553037 105.181448,67.4105104 Z" id="Base" fill="#4C88A1"></path>
                <g id="Stripes" transform="translate(14.2567, 70.2599)" fill="#2D647A">
                    <path d="M77.6097175,23.1645833 C78.6179671,19.980957 79.0292907,16.3552312 78.843688,12.2874061 C78.6580854,8.21958093 78.1070357,4.12377891 77.1905388,3.96084674e-15 C75.2466079,0.296199542 74.2746425,0.444299312 74.2746425,0.444299312 C74.7444449,4.12124337 75.1034731,7.91241937 75.1034731,13.2915646 C75.1034731,18.6707099 74.4195478,21.3763671 73.6341172,24.5748122 C74.5297846,24.2949369 75.2423564,24.0638489 75.7718328,23.8815482 C76.3013092,23.6992475 76.9139374,23.4602592 77.6097175,23.1645833 Z" id="4th-Stripe"></path>
                    <path d="M53.6276213,28.2544806 C54.9324435,23.5211508 55.4920533,19.1205733 55.3064507,15.0527482 C55.120848,10.984923 54.5929005,6.70542524 53.7226081,2.21425482 C51.6925683,2.29117944 50.6775484,2.32964176 50.6775484,2.32964176 C51.1473508,6.00658582 51.3302766,10.3142122 51.3302766,15.6933574 C51.3302766,21.0725027 50.9738899,25.2953723 50.1884593,28.4938973 C50.9074018,28.4492703 51.4458737,28.4144957 51.803875,28.3895735 C52.2101319,28.361292 52.8180474,28.316261 53.6276213,28.2544806 Z" id="3rd-Stripe"></path>
                    <path d="M27.1193391,28.2544806 C28.4241613,23.5211508 28.9837711,19.1205733 28.7981685,15.0527482 C28.6125658,10.984923 28.0846183,6.70542524 27.2143259,2.21425482 C25.1842861,2.29117944 24.1692662,2.32964176 24.1692662,2.32964176 C24.6390687,6.00658582 24.8219944,10.3142122 24.8219944,15.6933574 C24.8219944,21.0725027 24.4656077,25.2953723 23.6801771,28.4938973 C24.3991196,28.4492703 24.9375915,28.4144957 25.2955928,28.3895735 C25.7018497,28.361292 26.3097652,28.316261 27.1193391,28.2544806 Z" id="2nd-Stripe" transform="translate(26.2565, 15.3541) scale(-1, 1) translate(-26.2565, -15.3541)"></path>
                    <path d="M3.97560025,23.1645833 C4.98384994,19.980957 5.39517347,16.3552312 5.20957083,12.2874061 C5.0239682,8.21958093 4.47291846,4.12377891 3.5564216,-4.29191171e-15 C1.61249072,0.296199542 0.640525283,0.444299312 0.640525283,0.444299312 C1.11032769,4.12124337 1.46935585,7.91241937 1.46935585,13.2915646 C1.46935585,18.6707099 0.785430584,21.3763671 -1.26818445e-14,24.5748122 C0.89566735,24.2949369 1.60823922,24.0638489 2.1377156,23.8815482 C2.66719198,23.6992475 3.2798202,23.4602592 3.97560025,23.1645833 Z" id="1st-Stripe" transform="translate(2.6264, 12.2874) scale(-1, 1) translate(-2.6264, -12.2874)"></path>
                </g>
            </g>
        </g>
    </g>
</svg>