<?xml version="1.0" encoding="UTF-8"?>
<svg width="416px" height="416px" viewBox="0 0 416 416" version="1.1" xmlns="http://www.w3.org/2000/svg" xmlns:xlink="http://www.w3.org/1999/xlink">
    <title>Axolotl</title>
    <g id="Axolotl" stroke="none" stroke-width="1" fill="none" fill-rule="evenodd">
        <g id="High-HR" transform="translate(110.1781, 283.3091)">
            <path d="M16.5347843,11.9085214 C16.5347843,16.2152901 15.5889329,19.386876 12.7282542,19.5690079 L12.4639902,19.5772785 C9.4523465,19.5272748 8.4639902,16.3109961 8.4639902,11.9085214 C8.4639902,9.04610426 9.95778844,4.83975008 12.4993873,0 C15.0409861,4.83975008 16.5347843,9.04610426 16.5347843,11.9085214 Z" id="Big-Sweat" fill="#B2E2E2"></path>
            <path d="M4.5347843,23.1825267 C4.5347843,25.602396 4.00333326,27.3844335 2.39598695,27.486769 L2.2475034,27.4914161 C0.555333534,27.4633202 0,25.6561709 0,23.1825267 C0,21.5742036 0.839329155,19.2107547 2.26739215,16.4914161 C3.69545515,19.2107547 4.5347843,21.5742036 4.5347843,23.1825267 Z" id="Small-Sweat" fill="#B2E2E2"></path>
            <ellipse id="Left-Eye" fill="#000000" cx="49.3364966" cy="34.1824429" rx="9.51456311" ry="9.49152542"></ellipse>
            <ellipse id="Right-Eye" fill="#000000" cx="148.30737" cy="34.1824429" rx="9.51456311" ry="9.49152542"></ellipse>
            <path d="M39.8219335,73.097083 C39.8219335,70.8365142 40.9915546,66.4904343 46.875686,62.905009 C52.7598174,59.3195837 72.4859079,53.3322732 98.8219335,53.3322732 C125.157959,53.3322732 144.970581,59.3723105 150.768181,62.905009 C156.652312,66.4904343 157.821933,70.8365142 157.821933,73.097083 C157.821933,75.1095369 124.504402,76.434386 98.8219335,76.6909174 C73.4777525,76.4189789 39.8219335,75.0849948 39.8219335,73.097083 Z" id="Mouth" fill="#9C5A5B"></path>
            <path d="M99.0600567,76.6909174 L98.1730216,76.6889091 L96.843637,76.6834097 L95.0887116,76.6715703 C83.3552945,76.574876 72.5997113,76.1323357 72.5997113,75.4408881 C72.5997113,74.6546033 73.1412025,73.1429233 75.8653374,71.8958189 C78.5894724,70.6487144 87.7540417,68.6909174 99.9466462,68.6909174 L100.482539,68.6921791 C112.405528,68.748346 121.279641,70.6670542 123.963715,71.8958189 C126.68785,73.1429233 127.229341,74.6546033 127.229341,75.4408881 C127.229341,76.140872 116.257461,76.585765 104.367429,76.6749933 L103.048573,76.6834097 C102.311394,76.6872891 101.57213,76.6897996 100.833144,76.6909174 L99.0600567,76.6909174 Z" id="Tongue" fill="#ED8283"></path>
        </g>
    </g>
</svg>