<?xml version="1.0" encoding="UTF-8"?>
<svg width="416px" height="416px" viewBox="0 0 416 416" version="1.1" xmlns="http://www.w3.org/2000/svg" xmlns:xlink="http://www.w3.org/1999/xlink">
    <title>Axolotl</title>
    <defs>
        <path d="M3.83850117,37.8380513 C-3.45245609,38.8122269 5.0081223,31.8058938 10.8922537,28.5322446 C16.7763851,25.2585954 37.0024756,20.1193784 63.3385012,20.1193784 C89.0921593,20.2668164 108.987149,25.3067373 114.784749,28.5322446 C120.66888,31.8058938 129.270754,38.7408249 121.838501,37.8380513 C99,35.0639265 81.5260845,50.0084746 63.3385012,50.0084746 C45.1509178,50.0084746 23.3676274,35.2286822 3.83850117,37.8380513 Z" id="path-1"></path>
    </defs>
    <g id="Axolotl" stroke="none" stroke-width="1" fill="none" fill-rule="evenodd">
        <g id="Expressions" transform="translate(110.1781, 283.3091)">
            <g id="69" transform="translate(35.4834, 33.6824)">
                <path d="M4.33850117,0.5 C4.33850117,6.57513225 8.59831617,11.5 13.8530643,11.5 C19.1078124,11.5 23.3676274,6.57513225 23.3676274,0.5" id="Left-Eye" fill="#000000"></path>
                <line x1="0" y1="0.5" x2="21.3482682" y2="0.5" id="Left-Lid" stroke="#000000" stroke-width="4" stroke-linecap="round"></line>
                <path d="M103.309375,0.5 C103.309375,6.57513225 107.56919,11.5 112.823938,11.5 C118.078686,11.5 122.338501,6.57513225 122.338501,0.5" id="Right-Eye" fill="#000000"></path>
                <line x1="99" y1="1" x2="120.348268" y2="1" id="Right-Lid" stroke="#000000" stroke-width="4" stroke-linecap="round"></line>
                <mask id="mask-2" fill="white">
                    <use xlink:href="#path-1" transform="translate(62.8692, 35.0639) scale(1, -1) translate(-62.8692, -35.0639)"></use>
                </mask>
                <use id="Mouth" fill="#9C5A5B" transform="translate(62.8692, 35.0639) scale(1, -1) translate(-62.8692, -35.0639)" xlink:href="#path-1"></use>
                <path d="M60.0005958,50.0084746 L58.6250092,50.0056358 L56.5634404,49.9978627 L53.8419561,49.9811282 C35.6461338,49.8444544 18.9667063,49.2189407 18.9667063,48.2416061 C18.9667063,47.1302228 19.8064343,44.9935213 24.0309389,43.2307872 C28.2554435,41.468053 42.4675757,38.7007823 61.3754915,38.7007823 L62.2065369,38.7025656 C80.6963427,38.7819553 94.4580429,41.4939755 98.6204224,43.2307872 C102.844927,44.9935213 103.684655,47.1302228 103.684655,48.2416061 C103.684655,49.2310066 86.6698009,49.8598456 68.2311059,49.9859664 L66.1858649,49.9978627 C65.0426697,50.0033461 63.8962412,50.0068945 62.750245,50.0084746 L60.0005958,50.0084746 Z" id="Tongue" fill="#ED8283" mask="url(#mask-2)"></path>
            </g>
        </g>
    </g>
</svg>