<?xml version="1.0" encoding="UTF-8"?>
<svg width="416px" height="416px" viewBox="0 0 416 416" version="1.1" xmlns="http://www.w3.org/2000/svg" xmlns:xlink="http://www.w3.org/1999/xlink">
    <title>Artboard</title>
    <g id="Artboard" stroke="none" stroke-width="1" fill="none" fill-rule="evenodd">
        <g id="Walker" transform="translate(87, 107.9906)">
            <g id="Head" transform="translate(0, 73.0094)">
                <path d="M120.59938,228.992692 C80.5407669,228.510719 45.315187,204.22661 30.3525853,167.135232 C22.6830262,168.694497 15.9333286,166.692715 10.1034926,161.129886 C1.21344678,152.647004 -2.15131555,139.902083 1.38040063,127.762381 C3.73487809,119.669247 10.7614511,117.034822 22.4601198,119.859107 C25.1465299,64.196217 69.1273634,19.9477978 121.814741,19.9477978 C174.227711,19.9477978 217.984439,64.196217 220.656858,119.859107 C232.294597,117.034822 239.284574,119.669247 241.626789,127.762381 C245.140111,139.902083 241.792873,152.647004 232.949129,161.129886 C227.149656,166.692715 220.435112,168.694497 212.805498,167.135232 C197.770475,204.601271 162.163773,229 121.814741,229 L120.59938,228.992692 Z" fill="#DCBDB4"></path>
                <path d="M42.704664,95.2499802 C32.6992533,122.772898 37.3370501,154.312124 34.6130962,154.312124 C31.0673892,154.312124 24.945324,142.159644 21.1839327,134.289836 C15.8548912,121.73564 9.53955998,106.093121 9.53955998,87.7712485 C9.53955998,77.9740663 14.2577055,71.7407944 23.6939964,67.3973077 C21.2658808,48.8743724 32.2720907,32.1779685 42.704664,24.7868278 C53.1372373,17.3956871 86.0687571,7.5945039 107.342999,3.66063432 C128.617241,-0.273235255 175.034707,-1.01647126 176.895638,1.33431852 C178.136259,2.90151171 176.662054,4.98824016 172.473022,7.5945039 C194.11861,8.77779332 207.645696,11.0183358 208.979286,14.1020052 C210.354121,17.2810459 206.453306,24.413707 197.27684,35.4999887 C214.995696,45.8743782 225.5556,57.1384182 228.956554,69.2921087 C234.057984,87.5226444 230.795579,119.890876 225.98844,133.170925 C221.181301,146.450973 215.04207,156.211914 211.773372,156.211914 C208.936806,156.211914 214.301395,121.143447 203.681804,97.1497705 C188.451861,80.8201517 166.694068,74.4722139 138.408425,78.1059572 L138.250498,77.9740588 C135.725266,75.9167938 102.954865,51.0842951 42.704664,95.2499802 Z" id="Hair" fill="#413833"></path>
                <ellipse id="Blush" fill="#BD8483" cx="60.9073706" cy="161.654138" rx="15.2268427" ry="7.59916105"></ellipse>
                <ellipse id="Blush" fill="#BD8483" cx="181.770434" cy="161.654138" rx="15.2268427" ry="7.59916105"></ellipse>
            </g>
        </g>
    </g>
</svg>