<?xml version="1.0" encoding="UTF-8"?>
<svg width="416px" height="416px" viewBox="0 0 416 416" version="1.1" xmlns="http://www.w3.org/2000/svg" xmlns:xlink="http://www.w3.org/1999/xlink">
    <title>Red Panda</title>
    <defs>
        <polygon id="path-1" points="-1.94263256e-14 -2.76662694e-14 36 1.33165598e-14 30 44.3333333 6 44.3333333"></polygon>
    </defs>
    <g id="Red-Panda" stroke="none" stroke-width="1" fill="none" fill-rule="evenodd">
        <g id="Accessories" transform="translate(107, 128.9813)">
            <g id="Hot" transform="translate(12, 165.2253)">
                <g id="Sunnies">
                    <path d="M1.17836114,4.41285056 C4.64603057,0.450437333 20.699064,-0.722666502 37.6542397,0.410908835 L39.8204922,0.563244354 C48.2824151,1.18558871 62.1458461,2.50612739 71.2645451,4.41285056 C75.5058947,5.29971826 77.8207377,6.28966235 79.6061821,7.16999001 L81.3921466,8.067387 C83.2069682,8.95337839 86.038632,9.59433033 89.8786607,9.67349507 C93.769189,9.58749427 95.5334206,8.91933673 97.3842005,8.00590136 L99.0449235,7.16999001 L99.4223379,6.98635893 C101.15882,6.15360859 103.437718,5.23855497 107.386561,4.41285056 C117.334232,2.33278892 132.928527,0.950335264 140.996866,0.410908835 L142.077773,0.341690267 C158.629452,-0.671484488 174.078855,0.534743998 177.472744,4.41285056 C180.940414,8.37526379 176.969548,32.640024 162.694186,43.2304739 C148.418825,53.8209238 136.160363,56.9013165 118.559342,54.7933762 C101.205193,52.7150017 96.9083214,24.3034793 89.325644,23.5068896 C81.7427842,24.3034793 77.4459122,52.7150017 60.0917633,54.7933762 C42.4907428,56.9013165 30.2322809,53.8209238 15.9569192,43.2304739 C1.68155755,32.640024 -2.2893083,8.37526379 1.17836114,4.41285056 Z" id="Sunglasses" fill="#000000"></path>
                    <path d="M140.972997,3.71340491 C155.309287,2.83584037 168.690836,3.88061902 171.630464,7.23965338 C174.633997,10.6717102 171.194619,31.6887097 158.829969,40.8616617 C146.465319,50.0346136 135.847613,52.7027055 120.602433,50.8769063 C105.571082,49.0767157 98.8864104,32.2893035 99.7365005,21.5366616 C100.58659,10.7840198 105.638249,9.0352663 111.593854,7.23965338 C117.549459,5.44404047 126.636708,4.59096946 140.972997,3.71340491 Z" id="Right-Lens" fill="#383838"></path>
                    <path d="M46.9729973,3.71340491 C61.3092866,2.83584037 74.6908364,3.88061902 77.6304644,7.23965338 C80.6339973,10.6717102 77.1946192,31.6887097 64.8299692,40.8616617 C52.4653191,50.0346136 41.8476132,52.7027055 26.6024333,50.8769063 C11.5710818,49.0767157 4.88641043,32.2893035 5.73650046,21.5366616 C6.58659048,10.7840198 11.6382493,9.0352663 17.593854,7.23965338 C23.5494587,5.44404047 32.636708,4.59096946 46.9729973,3.71340491 Z" id="Left-Lens" fill="#383838" transform="translate(42.1579, 27.4174) scale(-1, 1) translate(-42.1579, -27.4174)"></path>
                </g>
                <g id="Sunscreen" transform="translate(54, 91.6497) rotate(-20) translate(-54, -91.6497)translate(36, 65.5247)">
                    <rect id="Cap" fill="#FFFFFF" x="6" y="43.5416667" width="24" height="8.70833333"></rect>
                    <mask id="mask-2" fill="white">
                        <use xlink:href="#path-1"></use>
                    </mask>
                    <use id="Body" fill="#469E9E" xlink:href="#path-1"></use>
                    <rect id="End" fill="#104256" mask="url(#mask-2)" x="0" y="-0.75" width="36" height="4.75"></rect>
                </g>
            </g>
        </g>
    </g>
</svg>