<?xml version="1.0" encoding="UTF-8"?>
<svg width="416px" height="416px" viewBox="0 0 416 416" version="1.1" xmlns="http://www.w3.org/2000/svg" xmlns:xlink="http://www.w3.org/1999/xlink">
    <title>Red Panda</title>
    <g id="Red-Panda" stroke="none" stroke-width="1" fill="none" fill-rule="evenodd">
        <g id="Face" transform="translate(36, 166.1753)">
            <g id="Ears" transform="translate(0, -0)">
                <path d="M222,56.1622712 C261.426245,17.7146692 291.889553,-0.992570646 313.389923,0.0405517599 C334.890293,1.07367417 336.509534,39.6984041 318.247647,115.914741 C336.806767,122.565071 346.086327,128.198606 346.086327,132.815349 C346.086327,137.432091 335.187525,138.904532 313.389923,137.232671 C325.507936,142.605373 330.418652,146.337537 328.122071,148.429163 C325.825489,150.52079 317.096567,152.711069 301.935304,155" id="Right" fill="#FFFFFF"></path>
                <path d="M243.285254,71.4062749 C272.460273,38.4944677 291.031855,23.6091681 299,26.7503761 C310.952218,31.4621882 299.14127,122.284394 285.934953,132.869383" id="Inner-Right" fill="#000000"></path>
                <path d="M0,56.1622712 C39.4262452,17.7146692 69.8895527,-0.992570646 91.3899226,0.0405517599 C112.890293,1.07367417 114.509534,39.6984041 96.2476468,115.914741 C114.806767,122.565071 124.086327,128.198606 124.086327,132.815349 C124.086327,137.432091 113.187525,138.904532 91.3899226,137.232671 C103.507936,142.605373 108.418652,146.337537 106.122071,148.429163 C103.825489,150.52079 95.096567,152.711069 79.9353039,155" id="Left" fill="#FFFFFF" transform="translate(62.0432, 77.5) scale(-1, 1) translate(-62.0432, -77.5)"></path>
                <path d="M41.6335633,71.4062749 C70.8085821,38.4944677 89.380164,23.6091681 97.3483091,26.7503761 C109.300527,31.4621882 97.4895787,122.284394 84.2832616,132.869383" id="Inner-Left" fill="#000000" transform="translate(71.9652, 79.6046) scale(-1, 1) translate(-71.9652, -79.6046)"></path>
            </g>
            <path d="M42,162.324749 C42,123.414814 77,37.8443342 173,37.8247494 L175.003936,37.8443342 C270.517534,39.7077263 304,123.803913 304,162.324749 C304,201.234685 239.826455,242.824749 173,242.824749 C106.173545,242.824749 42,201.234685 42,162.324749 Z" fill="#C47F4A"></path>
            <g id="Markings" transform="translate(75.3081, 106.8341)">
                <path d="M98.1442548,119.990667 C139.594048,119.990667 197,111.356196 197,87.6079513 C197,63.8597071 139.594048,33.9906674 98.1442548,33.9906674 C56.694462,33.9906674 0,63.8597071 0,87.6079513 C0,111.356196 56.694462,119.990667 98.1442548,119.990667 Z" id="Outer" fill="#FFFFFF"></path>
                <path d="M97.7399629,126.990667 C128.038289,126.990667 170,116.348179 170,87.0770871 C170,57.8059954 128.038289,20.9906674 97.7399629,20.9906674 C67.4416372,20.9906674 26,57.8059954 26,87.0770871 C26,116.348179 67.4416372,126.990667 97.7399629,126.990667 Z" id="Middle" fill="#C47F4A"></path>
                <path d="M97.191899,114.990667 C115.141153,114.990667 140,106.8582 140,84.4906674 C140,62.123135 115.141153,33.9906674 97.191899,33.9906674 C79.2426446,33.9906674 54.691899,62.123135 54.691899,84.4906674 C54.691899,106.8582 79.2426446,114.990667 97.191899,114.990667 Z" id="Inner" fill="#FFFFFF"></path>
                <ellipse id="Left-Eyebrow" fill="#FFFFFF" cx="45.9993328" cy="10.5" rx="12.5" ry="10.5"></ellipse>
                <ellipse id="Right-Eyebrow" fill="#FFFFFF" transform="translate(146.9993, 10.5) scale(-1, 1) translate(-146.9993, -10.5)" cx="146.999333" cy="10.5" rx="12.5" ry="10.5"></ellipse>
            </g>
            <polygon id="Triangle" stroke="#000000" stroke-width="3" fill="#000000" stroke-linejoin="round" transform="translate(172.5, 177.3247) scale(1, -1) translate(-172.5, -177.3247)" points="172.5 175.824749 178 178.824749 167 178.824749"></polygon>
        </g>
    </g>
</svg>