<?xml version="1.0" encoding="UTF-8"?>
<svg xmlns="http://www.w3.org/2000/svg" xmlns:xlink="http://www.w3.org/1999/xlink" width="400" height="400" viewBox="0 0 400 400">
<path fill-rule="evenodd" fill="rgb(35.686275%, 58.823529%, 40.392157%)" fill-opacity="1" d="M 294.984375 363.460938 C 301.398438 364.726562 298.78125 385.394531 296.714844 388.921875 C 294.167969 391.222656 280.996094 413.460938 201.269531 413.460938 C 121.542969 413.460938 107.683594 390.722656 105.136719 388.421875 C 103.070312 384.898438 100.589844 364.726562 107 363.460938 C 128.050781 369.414062 159.472656 372.390625 201.269531 372.390625 C 243.0625 372.390625 274.300781 369.414062 294.984375 363.460938 Z M 294.984375 363.460938 "/>
<path fill-rule="evenodd" fill="rgb(19.215686%, 28.235294%, 21.176471%)" fill-opacity="1" d="M 270.726562 404.226562 C 272.582031 399.285156 273.339844 393.65625 272.996094 387.34375 C 272.65625 381.027344 271.640625 374.671875 269.953125 368.269531 C 266.375 368.730469 264.585938 368.957031 264.585938 368.957031 C 265.453125 374.667969 266.113281 380.550781 266.113281 388.902344 C 266.113281 397.25 264.855469 401.453125 263.410156 406.417969 C 265.058594 405.980469 266.367188 405.625 267.34375 405.339844 C 268.316406 405.058594 269.445312 404.6875 270.726562 404.226562 Z M 270.726562 404.226562 "/>
<path fill-rule="evenodd" fill="rgb(19.215686%, 28.235294%, 21.176471%)" fill-opacity="1" d="M 226.585938 412.128906 C 228.988281 404.78125 230.019531 397.949219 229.675781 391.636719 C 229.335938 385.320312 228.363281 378.679688 226.761719 371.707031 C 223.023438 371.824219 221.15625 371.886719 221.15625 371.886719 C 222.023438 377.59375 222.359375 384.28125 222.359375 392.628906 C 222.359375 400.980469 221.703125 407.535156 220.257812 412.5 C 221.582031 412.429688 222.570312 412.375 223.230469 412.339844 C 223.976562 412.292969 225.097656 412.222656 226.585938 412.128906 Z M 226.585938 412.128906 "/>
<path fill-rule="evenodd" fill="rgb(19.215686%, 28.235294%, 21.176471%)" fill-opacity="1" d="M 174.621094 412.128906 C 172.21875 404.78125 171.191406 397.949219 171.53125 391.636719 C 171.875 385.320312 172.84375 378.679688 174.445312 371.707031 C 178.183594 371.824219 180.050781 371.886719 180.050781 371.886719 C 179.1875 377.59375 178.851562 384.28125 178.851562 392.628906 C 178.851562 400.980469 179.507812 407.535156 180.953125 412.5 C 179.628906 412.429688 178.636719 412.375 177.980469 412.339844 C 177.230469 412.292969 176.113281 412.222656 174.621094 412.128906 Z M 174.621094 412.128906 "/>
<path fill-rule="evenodd" fill="rgb(19.215686%, 28.235294%, 21.176471%)" fill-opacity="1" d="M 130.234375 404.226562 C 128.378906 399.285156 127.621094 393.65625 127.964844 387.34375 C 128.304688 381.027344 129.320312 374.671875 131.007812 368.269531 C 134.585938 368.730469 136.375 368.957031 136.375 368.957031 C 135.507812 374.667969 134.847656 380.550781 134.847656 388.902344 C 134.847656 397.25 136.105469 401.453125 137.550781 406.417969 C 135.902344 405.980469 134.59375 405.625 133.617188 405.339844 C 132.644531 405.058594 131.515625 404.6875 130.234375 404.226562 Z M 130.234375 404.226562 "/>
<path fill-rule="evenodd" fill="rgb(19.215686%, 28.235294%, 21.176471%)" fill-opacity="1" d="M 218.484375 182.269531 C 239.484375 144.492188 271.824219 137.21875 315.503906 160.445312 C 322.960938 164.410156 340.699219 175.234375 341.046875 184.304688 C 341.394531 193.375 328.074219 189.894531 321.40625 196.496094 C 316.960938 200.894531 311.78125 211.640625 305.867188 228.730469 C 295.050781 227.34375 279.574219 221.300781 259.445312 210.597656 C 239.316406 199.894531 225.660156 190.453125 218.484375 182.269531 Z M 218.484375 182.269531 "/>
<path fill-rule="evenodd" fill="rgb(35.686275%, 58.823529%, 40.392157%)" fill-opacity="1" d="M 305.867188 228.730469 C 308.480469 231.007812 301.234375 241.699219 299.246094 243.121094 C 297.394531 243.75 284.785156 252.691406 247.726562 232.984375 C 210.664062 213.277344 210.851562 197.382812 210.339844 195.496094 C 210.40625 193.050781 215.132812 181.375 218.484375 182.269531 C 226.53125 190.734375 240.269531 200.132812 259.699219 210.464844 C 279.128906 220.792969 294.515625 226.882812 305.867188 228.730469 Z M 305.867188 228.730469 "/>
<path fill-rule="evenodd" fill="rgb(19.215686%, 28.235294%, 21.176471%)" fill-opacity="1" d="M 282.820312 244.804688 C 285.113281 242.558594 287.097656 239.667969 288.777344 236.128906 C 290.457031 232.589844 291.835938 228.867188 292.921875 224.949219 C 291.136719 224.324219 290.246094 224.011719 290.246094 224.011719 C 288.984375 227.34375 287.578125 230.726562 285.148438 235.292969 C 282.71875 239.859375 280.917969 241.847656 278.808594 244.210938 C 279.695312 244.375 280.402344 244.5 280.933594 244.585938 C 281.46875 244.667969 282.09375 244.742188 282.820312 244.804688 Z M 282.820312 244.804688 "/>
<path fill-rule="evenodd" fill="rgb(19.215686%, 28.235294%, 21.176471%)" fill-opacity="1" d="M 260.160156 238.300781 C 263.40625 234.871094 265.867188 231.390625 267.546875 227.851562 C 269.226562 224.3125 270.707031 220.441406 271.996094 216.238281 C 270.238281 215.386719 269.359375 214.960938 269.359375 214.960938 C 268.097656 218.292969 266.308594 222.035156 263.882812 226.601562 C 261.453125 231.167969 259.246094 234.59375 257.132812 236.953125 C 257.765625 237.238281 258.238281 237.453125 258.550781 237.59375 C 258.910156 237.753906 259.445312 237.988281 260.160156 238.300781 Z M 260.160156 238.300781 "/>
<path fill-rule="evenodd" fill="rgb(19.215686%, 28.235294%, 21.176471%)" fill-opacity="1" d="M 236.191406 225.558594 C 237.21875 220.949219 238.730469 216.960938 240.726562 213.589844 C 242.71875 210.222656 245.097656 206.824219 247.867188 203.40625 C 249.554688 204.386719 250.398438 204.878906 250.398438 204.878906 C 248.339844 207.789062 246.238281 211.363281 243.8125 215.929688 C 241.382812 220.496094 239.78125 224.242188 239.003906 227.3125 C 238.414062 226.949219 237.972656 226.675781 237.679688 226.496094 C 237.347656 226.289062 236.851562 225.976562 236.191406 225.558594 Z M 236.191406 225.558594 "/>
<path fill-rule="evenodd" fill="rgb(19.215686%, 28.235294%, 21.176471%)" fill-opacity="1" d="M 218.015625 210.347656 C 218.59375 207.191406 219.882812 203.925781 221.875 200.558594 C 223.871094 197.1875 226.1875 193.960938 228.828125 190.871094 C 230.34375 192 231.101562 192.566406 231.101562 192.566406 C 229.042969 195.476562 227.027344 198.53125 224.597656 203.097656 C 222.171875 207.664062 221.53125 210.269531 220.753906 213.339844 C 220.117188 212.699219 219.617188 212.179688 219.25 211.789062 C 218.882812 211.394531 218.472656 210.914062 218.015625 210.347656 Z M 218.015625 210.347656 "/>
</svg>
