<?xml version="1.0" encoding="UTF-8"?>
<svg xmlns="http://www.w3.org/2000/svg" xmlns:xlink="http://www.w3.org/1999/xlink" width="400" height="400" viewBox="0 0 400 400">
<path fill-rule="evenodd" fill="rgb(69.803922%, 88.627451%, 88.627451%)" fill-opacity="1" d="M 221.890625 355.699219 C 221.992188 360.722656 221.722656 363.855469 221.082031 365.101562 C 220.117188 366.972656 217.703125 369.75 220.164062 371.894531 C 222.625 374.039062 225.960938 371.660156 225.960938 367.542969 C 225.960938 364.800781 225.960938 360.363281 225.960938 354.238281 Z M 221.890625 355.699219 "/>
<path fill-rule="evenodd" fill="rgb(51.372549%, 19.607843%, 9.803922%)" fill-opacity="1" d="M 199.1875 357.691406 L 198.34375 357.6875 L 197.082031 357.671875 L 195.414062 357.640625 C 184.261719 357.371094 174.039062 356.148438 174.039062 354.238281 C 174.039062 352.0625 174.554688 347.882812 177.140625 344.4375 C 179.730469 340.988281 188.441406 335.578125 200.03125 335.578125 L 200.539062 335.582031 C 211.871094 335.734375 220.308594 341.039062 222.859375 344.4375 C 225.445312 347.882812 225.960938 352.0625 225.960938 354.238281 C 225.960938 356.171875 215.535156 357.402344 204.230469 357.648438 L 202.980469 357.671875 C 202.277344 357.683594 201.574219 357.6875 200.875 357.691406 Z M 199.1875 357.691406 "/>
<path fill-rule="evenodd" fill="rgb(86.666667%, 47.45098%, 35.294118%)" fill-opacity="1" d="M 200.105469 357.691406 L 199.714844 357.691406 L 199.128906 357.683594 L 198.355469 357.671875 C 193.195312 357.582031 188.460938 357.15625 188.460938 356.492188 C 188.460938 355.734375 188.699219 354.28125 189.898438 353.082031 C 191.097656 351.882812 195.128906 350 200.496094 350 L 200.730469 350 C 205.976562 350.054688 209.882812 351.898438 211.0625 353.082031 C 212.261719 354.28125 212.5 355.734375 212.5 356.492188 C 212.5 357.164062 207.671875 357.589844 202.441406 357.675781 L 201.859375 357.683594 C 201.535156 357.6875 201.210938 357.691406 200.886719 357.691406 Z M 200.105469 357.691406 "/>
<path fill="none" stroke-width="5" stroke-linecap="round" stroke-linejoin="miter" stroke="rgb(0%, 0%, 0%)" stroke-opacity="1" stroke-miterlimit="4" d="M -0.000799561 1.160987 C 2.522013 0.389112 5.37795 -0.000887804 8.56295 -0.000887804 C 11.74795 -0.000887804 14.603888 0.389112 17.1267 1.160987 " transform="matrix(0.961538, 0, 0, -0.961538, 144.688269, 305.280396)"/>
<path fill="none" stroke-width="5" stroke-linecap="round" stroke-linejoin="miter" stroke="rgb(0%, 0%, 0%)" stroke-opacity="1" stroke-miterlimit="4" d="M 99.92045 1.160987 C 102.447325 0.389112 105.2992 -0.000887804 108.4842 -0.000887804 C 111.6692 -0.000887804 114.525138 0.389112 117.04795 1.160987 " transform="matrix(0.961538, 0, 0, -0.961538, 144.688269, 305.280396)"/>
</svg>
