<?xml version="1.0" encoding="UTF-8"?>
<svg xmlns="http://www.w3.org/2000/svg" xmlns:xlink="http://www.w3.org/1999/xlink" width="400" height="400" viewBox="0 0 400 400">
<path fill-rule="evenodd" fill="rgb(69.803922%, 88.627451%, 88.627451%)" fill-opacity="1" d="M 121.839844 283.863281 C 121.839844 288.003906 120.929688 291.054688 118.179688 291.230469 L 117.925781 291.238281 C 115.027344 291.1875 114.078125 288.097656 114.078125 283.863281 C 114.078125 281.109375 115.515625 277.066406 117.960938 272.414062 C 120.402344 277.066406 121.839844 281.109375 121.839844 283.863281 Z M 121.839844 283.863281 "/>
<path fill-rule="evenodd" fill="rgb(69.803922%, 88.627451%, 88.627451%)" fill-opacity="1" d="M 110.300781 294.703125 C 110.300781 297.03125 109.789062 298.742188 108.246094 298.84375 L 108.101562 298.847656 C 106.472656 298.820312 105.941406 297.082031 105.941406 294.703125 C 105.941406 293.15625 106.746094 290.882812 108.121094 288.269531 C 109.492188 290.882812 110.300781 293.15625 110.300781 294.703125 Z M 110.300781 294.703125 "/>
<path fill-rule="evenodd" fill="rgb(0%, 0%, 0%)" fill-opacity="1" d="M 162.527344 305.28125 C 162.527344 310.320312 158.433594 314.40625 153.378906 314.40625 C 148.328125 314.40625 144.230469 310.320312 144.230469 305.28125 C 144.230469 300.238281 148.328125 296.152344 153.378906 296.152344 C 158.433594 296.152344 162.527344 300.238281 162.527344 305.28125 Z M 162.527344 305.28125 "/>
<path fill-rule="evenodd" fill="rgb(0%, 0%, 0%)" fill-opacity="1" d="M 257.691406 305.28125 C 257.691406 310.320312 253.597656 314.40625 248.542969 314.40625 C 243.492188 314.40625 239.394531 310.320312 239.394531 305.28125 C 239.394531 300.238281 243.492188 296.152344 248.542969 296.152344 C 253.597656 296.152344 257.691406 300.238281 257.691406 305.28125 Z M 257.691406 305.28125 "/>
<path fill-rule="evenodd" fill="rgb(51.372549%, 19.607843%, 9.803922%)" fill-opacity="1" d="M 199.1875 357.691406 L 198.34375 357.6875 L 197.082031 357.671875 L 195.414062 357.640625 C 184.261719 357.371094 174.039062 356.148438 174.039062 354.238281 C 174.039062 352.0625 174.554688 347.882812 177.140625 344.4375 C 179.730469 340.988281 188.441406 335.578125 200.03125 335.578125 L 200.539062 335.582031 C 211.871094 335.734375 220.308594 341.039062 222.859375 344.4375 C 225.445312 347.882812 225.960938 352.0625 225.960938 354.238281 C 225.960938 356.171875 215.535156 357.402344 204.230469 357.648438 L 202.980469 357.671875 C 202.277344 357.683594 201.574219 357.6875 200.875 357.691406 Z M 199.1875 357.691406 "/>
<path fill-rule="evenodd" fill="rgb(86.666667%, 47.45098%, 35.294118%)" fill-opacity="1" d="M 200.105469 357.691406 L 199.714844 357.691406 L 199.128906 357.683594 L 198.355469 357.671875 C 193.195312 357.582031 188.460938 357.15625 188.460938 356.492188 C 188.460938 355.734375 188.699219 354.28125 189.898438 353.082031 C 191.097656 351.882812 195.128906 350 200.496094 350 L 200.730469 350 C 205.976562 350.054688 209.882812 351.898438 211.0625 353.082031 C 212.261719 354.28125 212.5 355.734375 212.5 356.492188 C 212.5 357.164062 207.671875 357.589844 202.441406 357.675781 L 201.859375 357.683594 C 201.535156 357.6875 201.210938 357.691406 200.886719 357.691406 Z M 200.105469 357.691406 "/>
</svg>
