<?xml version="1.0" encoding="UTF-8"?>
<svg xmlns="http://www.w3.org/2000/svg" xmlns:xlink="http://www.w3.org/1999/xlink" width="400" height="400" viewBox="0 0 400 400">
<path fill-rule="evenodd" fill="rgb(100%, 100%, 100%)" fill-opacity="1" d="M 248.078125 213.785156 C 285.988281 176.816406 315.277344 158.828125 335.953125 159.824219 C 356.625 160.816406 358.183594 197.957031 340.621094 271.242188 C 358.46875 277.636719 367.390625 283.050781 367.390625 287.492188 C 367.390625 291.929688 356.910156 293.347656 335.953125 291.738281 C 347.605469 296.90625 352.324219 300.492188 350.117188 302.503906 C 347.910156 304.515625 339.515625 306.621094 324.9375 308.824219 "/>
<path fill-rule="evenodd" fill="rgb(0%, 0%, 0%)" fill-opacity="1" d="M 268.542969 228.445312 C 296.597656 196.796875 314.453125 182.484375 322.117188 185.503906 C 333.609375 190.035156 322.25 277.363281 309.554688 287.542969 "/>
<path fill-rule="evenodd" fill="rgb(100%, 100%, 100%)" fill-opacity="1" d="M 153.929688 213.785156 C 116.019531 176.816406 86.726562 158.828125 66.054688 159.824219 C 45.382812 160.816406 43.824219 197.957031 61.382812 271.242188 C 43.539062 277.636719 34.617188 283.050781 34.617188 287.492188 C 34.617188 291.929688 45.09375 293.347656 66.054688 291.738281 C 54.402344 296.90625 49.679688 300.492188 51.890625 302.503906 C 54.097656 304.515625 62.488281 306.621094 77.070312 308.824219 "/>
<path fill-rule="evenodd" fill="rgb(0%, 0%, 0%)" fill-opacity="1" d="M 132.976562 228.445312 C 104.925781 196.796875 87.066406 182.484375 79.40625 185.503906 C 67.914062 190.035156 79.269531 277.363281 91.96875 287.542969 "/>
<path fill-rule="evenodd" fill="rgb(76.862745%, 49.803922%, 29.019608%)" fill-opacity="1" d="M 75 315.867188 C 75 278.453125 108.652344 196.171875 200.960938 196.152344 L 202.886719 196.171875 C 294.726562 197.964844 326.921875 278.824219 326.921875 315.867188 C 326.921875 353.277344 265.21875 393.269531 200.960938 393.269531 C 136.707031 393.269531 75 353.277344 75 315.867188 Z M 75 315.867188 "/>
<path fill-rule="evenodd" fill="rgb(100%, 100%, 100%)" fill-opacity="1" d="M 201.398438 377.882812 C 241.253906 377.882812 296.449219 369.582031 296.449219 346.746094 C 296.449219 323.914062 241.253906 295.191406 201.398438 295.191406 C 161.539062 295.191406 107.027344 323.914062 107.027344 346.746094 C 107.027344 369.582031 161.539062 377.882812 201.398438 377.882812 Z M 201.398438 377.882812 "/>
<path fill-rule="evenodd" fill="rgb(76.862745%, 49.803922%, 29.019608%)" fill-opacity="1" d="M 201.007812 384.617188 C 230.140625 384.617188 270.488281 374.382812 270.488281 346.238281 C 270.488281 318.089844 230.140625 282.691406 201.007812 282.691406 C 171.875 282.691406 132.027344 318.089844 132.027344 346.238281 C 132.027344 374.382812 171.875 384.617188 201.007812 384.617188 Z M 201.007812 384.617188 "/>
<path fill-rule="evenodd" fill="rgb(100%, 100%, 100%)" fill-opacity="1" d="M 200.480469 373.078125 C 217.738281 373.078125 241.640625 365.257812 241.640625 343.75 C 241.640625 322.242188 217.738281 295.191406 200.480469 295.191406 C 183.222656 295.191406 159.617188 322.242188 159.617188 343.75 C 159.617188 365.257812 183.222656 373.078125 200.480469 373.078125 Z M 200.480469 373.078125 "/>
<path fill-rule="evenodd" fill="rgb(100%, 100%, 100%)" fill-opacity="1" d="M 163.277344 272.605469 C 163.277344 278.179688 157.894531 282.703125 151.257812 282.703125 C 144.617188 282.703125 139.238281 278.179688 139.238281 272.605469 C 139.238281 267.027344 144.617188 262.507812 151.257812 262.507812 C 157.894531 262.507812 163.277344 267.027344 163.277344 272.605469 Z M 163.277344 272.605469 "/>
<path fill-rule="evenodd" fill="rgb(100%, 100%, 100%)" fill-opacity="1" d="M 236.351562 272.605469 C 236.351562 278.179688 241.734375 282.703125 248.371094 282.703125 C 255.011719 282.703125 260.390625 278.179688 260.390625 272.605469 C 260.390625 267.027344 255.011719 262.507812 248.371094 262.507812 C 241.734375 262.507812 236.351562 267.027344 236.351562 272.605469 Z M 236.351562 272.605469 "/>
<path fill-rule="evenodd" fill="rgb(0%, 0%, 0%)" fill-opacity="1" stroke-width="3" stroke-linecap="butt" stroke-linejoin="round" stroke="rgb(0%, 0%, 0%)" stroke-opacity="1" stroke-miterlimit="4" d="M 172.499687 175.82502 L 178.000313 178.823145 L 166.999063 178.823145 Z M 172.499687 175.82502 " transform="matrix(0.961538, 0, 0, -0.961538, 34.615385, 500.792988)"/>
</svg>
