<?xml version="1.0" encoding="UTF-8"?>
<svg width="416px" height="416px" viewBox="0 0 416 416" version="1.1" xmlns="http://www.w3.org/2000/svg" xmlns:xlink="http://www.w3.org/1999/xlink">
    <title>Artboard</title>
    <g id="Artboard" stroke="none" stroke-width="1" fill="none" fill-rule="evenodd">
        <g id="Walker" transform="translate(87, 117.9906)">
            <g id="Cold" transform="translate(35, 0)">
                <path d="M169.057445,246.22794 C174.70033,247.536105 172.397743,268.94428 170.578918,272.595407 C168.338417,274.977184 156.746105,298.009418 86.5824762,298.009418 C16.4188473,298.009418 4.22160707,274.45964 1.9811061,272.077863 C0.162281576,268.426736 -2.02043897,247.536105 3.62244602,246.22794 C22.1480892,252.393009 49.8014326,255.475543 86.5824762,255.475543 C123.36352,255.475543 150.855176,252.393009 169.057445,246.22794 Z" id="Base" fill="#4C88A1"></path>
                <g id="Stripes" transform="translate(22.8743, 251.4386)" fill="#2D647A">
                    <path d="M125.220149,37.4438711 C126.846919,32.2977697 127.510573,26.4370466 127.21111,19.8617019 C126.911648,13.2863572 126.022552,6.66578991 124.543821,0 C121.407367,0.478785105 119.83914,0.718177657 119.83914,0.718177657 C120.597147,6.6616914 121.176424,12.7898528 121.176424,21.4848515 C121.176424,30.1798502 120.072939,34.5533491 118.805678,39.7234038 C120.250801,39.2710057 121.400507,38.8974687 122.254796,38.6027928 C123.109085,38.3081169 124.097536,37.9218097 125.220149,37.4438711 Z" id="4th-Stripe"></path>
                    <path d="M86.5260038,45.6713213 C88.6312819,38.0202365 89.5341897,30.9070218 89.2347273,24.3316771 C88.935265,17.7563324 88.0834429,10.8388342 86.6792612,3.57918253 C83.4038739,3.70352561 81.7661803,3.76569716 81.7661803,3.76569716 C82.5241875,9.7092109 82.8193308,16.6721769 82.8193308,25.3671756 C82.8193308,34.0621743 82.2443152,40.8881372 80.9770546,46.0583211 C82.1370394,45.9861848 83.0058421,45.9299742 83.5834627,45.8896893 C84.2389419,45.8439743 85.2197889,45.7711849 86.5260038,45.6713213 Z" id="3rd-Stripe"></path>
                    <path d="M43.7559598,45.6713213 C45.8612378,38.0202365 46.7641456,30.9070218 46.4646832,24.3316771 C46.1652209,17.7563324 45.3133988,10.8388342 43.9092171,3.57918253 C40.6338298,3.70352561 38.9961362,3.76569716 38.9961362,3.76569716 C39.7541434,9.7092109 40.0492867,16.6721769 40.0492867,25.3671756 C40.0492867,34.0621743 39.4742711,40.8881372 38.2070105,46.0583211 C39.3669953,45.9861848 40.235798,45.9299742 40.8134187,45.8896893 C41.4688978,45.8439743 42.4497449,45.7711849 43.7559598,45.6713213 Z" id="2nd-Stripe" transform="translate(42.3638, 24.8188) scale(-1, 1) translate(-42.3638, -24.8188)"></path>
                    <path d="M6.41447064,37.4438711 C8.04124085,32.2977697 8.70489477,26.4370466 8.40543241,19.8617019 C8.10597005,13.2863572 7.21687351,6.66578991 5.7381428,0 C2.60168874,0.478785105 1.03346171,0.718177657 1.03346171,0.718177657 C1.79146894,6.6616914 2.37074639,12.7898528 2.37074639,21.4848515 C2.37074639,30.1798502 1.26726057,34.5533491 0,39.7234038 C1.44512314,39.2710057 2.59482911,38.8974687 3.44911789,38.6027928 C4.30340668,38.3081169 5.2918576,37.9218097 6.41447064,37.4438711 Z" id="1st-Stripe" transform="translate(4.2376, 19.8617) scale(-1, 1) translate(-4.2376, -19.8617)"></path>
                </g>
                <g id="Beanie" transform="translate(163.0276, 71.4423) rotate(28) translate(-163.0276, -71.4423)translate(104.6409, 21.5736)">
                    <path d="M2.25375533,67.4333842 C3.09401713,22.4777947 29.239514,-2.71862557e-14 80.690246,-2.71862557e-14 C89.4740276,-2.71862557e-14 111.048736,1.28009998 115.795764,9.44088862 C120.542792,17.6016772 106.613491,20.9125511 103.712381,30.2323825 C101.778308,36.4456034 102.267997,48.8459373 105.181448,67.4333842 C94.570719,71.4437053 77.4102918,73.4488658 53.7001665,73.4488658 C29.9900411,73.4488658 12.8412374,71.4437053 2.25375533,67.4333842 Z" id="Path-2" fill="#2D647A"></path>
                    <path d="M105.181448,67.4333842 C108.692248,68.2494874 107.259661,81.6050456 106.128054,83.8828129 C104.734095,85.3686922 97.5217761,99.7374255 53.8684955,99.7374255 C10.215215,99.7374255 2.62653174,85.0458206 1.2325728,83.5599413 C0.100965747,81.2821741 -1.25704429,68.2494874 2.25375533,67.4333842 C13.7797427,71.2794821 30.9846561,73.202531 53.8684955,73.202531 C76.752335,73.202531 93.8566525,71.2794821 105.181448,67.4333842 Z" id="Base" fill="#4C88A1"></path>
                    <g id="Stripes" transform="translate(14.2567, 70.2837)" fill="#2D647A">
                        <path d="M77.6097175,23.1724436 C78.6179671,19.9877369 79.0292907,16.3607809 78.843688,12.2915754 C78.6580854,8.22237001 78.1070357,4.12517819 77.1905388,2.83671989e-14 C75.2466079,0.296300048 74.2746425,0.444450072 74.2746425,0.444450072 C74.7444449,4.1226418 75.1034731,7.91510421 75.1034731,13.2960747 C75.1034731,18.6770453 74.4195478,21.3836206 73.6341172,24.5831509 C74.5297846,24.3031806 75.2423564,24.0720142 75.7718328,23.8896517 C76.3013092,23.7072891 76.9139374,23.4682197 77.6097175,23.1724436 Z" id="4th-Stripe"></path>
                        <path d="M53.6276213,28.2640679 C54.9324435,23.529132 55.4920533,19.1270613 55.3064507,15.0578559 C55.120848,10.9886504 54.5929005,6.70770053 53.7226081,2.21500616 C51.6925683,2.29195689 50.6775484,2.33043225 50.6775484,2.33043225 C51.1473508,6.00862397 51.3302766,10.317712 51.3302766,15.6986825 C51.3302766,21.079653 50.9738899,25.3039556 50.1884593,28.5035659 C50.9074018,28.4589237 51.4458737,28.4241373 51.803875,28.3992067 C52.2101319,28.3709156 52.8180474,28.3258693 53.6276213,28.2640679 Z" id="3rd-Stripe"></path>
                        <path d="M27.1193391,28.2640679 C28.4241613,23.529132 28.9837711,19.1270613 28.7981685,15.0578559 C28.6125658,10.9886504 28.0846183,6.70770053 27.2143259,2.21500616 C25.1842861,2.29195689 24.1692662,2.33043225 24.1692662,2.33043225 C24.6390687,6.00862397 24.8219944,10.317712 24.8219944,15.6986825 C24.8219944,21.079653 24.4656077,25.3039556 23.6801771,28.5035659 C24.3991196,28.4589237 24.9375915,28.4241373 25.2955928,28.3992067 C25.7018497,28.3709156 26.3097652,28.3258693 27.1193391,28.2640679 Z" id="2nd-Stripe" transform="translate(26.2565, 15.3593) scale(-1, 1) translate(-26.2565, -15.3593)"></path>
                        <path d="M3.97560025,23.1724436 C4.98384994,19.9877369 5.39517347,16.3607809 5.20957083,12.2915754 C5.0239682,8.22237001 4.47291846,4.12517819 3.5564216,1.77337379e-13 C1.61249072,0.296300048 0.640525283,0.444450072 0.640525283,0.444450072 C1.11032769,4.1226418 1.46935585,7.91510421 1.46935585,13.2960747 C1.46935585,18.6770453 0.785430584,21.3836206 3.82944617e-14,24.5831509 C0.89566735,24.3031806 1.60823922,24.0720142 2.1377156,23.8896517 C2.66719198,23.7072891 3.2798202,23.4682197 3.97560025,23.1724436 Z" id="1st-Stripe" transform="translate(2.6264, 12.2916) scale(-1, 1) translate(-2.6264, -12.2916)"></path>
                    </g>
                </g>
            </g>
        </g>
    </g>
</svg>