<?xml version="1.0" encoding="UTF-8"?>
<svg width="416px" height="416px" viewBox="0 0 416 416" version="1.1" xmlns="http://www.w3.org/2000/svg" xmlns:xlink="http://www.w3.org/1999/xlink">
    <title>Artboard</title>
    <defs>
        <path d="M51.9625976,53.0084746 L51.0533115,53.0032026 L49.6905797,52.9887668 L47.8916324,52.9576884 C35.8638855,52.7038657 24.8385012,51.5421974 24.8385012,49.7271474 C24.8385012,47.6631498 25.3935756,43.69499 28.1860447,40.4213408 C30.9785139,37.1476916 40.3729742,32.0084746 52.871427,32.0084746 L53.4207621,32.0117866 C65.6428371,32.1592246 74.7395542,37.1958335 77.4909576,40.4213408 C80.2834267,43.69499 80.8385012,47.6631498 80.8385012,49.7271474 C80.8385012,51.5646054 69.5913942,52.7324493 57.4031043,52.9666736 L56.0511653,52.9887668 C55.2954939,52.9989503 54.5376853,53.0055402 53.7801623,53.0084746 L51.9625976,53.0084746 Z" id="path-1"></path>
    </defs>
    <g id="Artboard" stroke="none" stroke-width="1" fill="none" fill-rule="evenodd">
        <g id="Walker" transform="translate(87, 117.9906)">
            <g id="Expressions" transform="translate(43.1781, 165.3185)">
                <g id="69" transform="translate(25.4834, 33.6824)">
                    <path d="M4.33850117,0.5 C4.33850117,6.57513225 8.59831617,11.5 13.8530643,11.5 C19.1078124,11.5 23.3676274,6.57513225 23.3676274,0.5" id="Left-Eye" fill="#4C88A1"></path>
                    <path d="M83.309375,0.5 C83.309375,6.57513225 87.56919,11.5 92.8239381,11.5 C98.0786862,11.5 102.338501,6.57513225 102.338501,0.5" id="Right-Eye" fill="#4C88A1"></path>
                    <line x1="0" y1="0.5" x2="21.3482682" y2="0.5" id="Left-Lid" stroke="#4C88A1" stroke-width="4" stroke-linecap="round"></line>
                    <line x1="79" y1="1" x2="100.348268" y2="1" id="Right-Lid" stroke="#4C88A1" stroke-width="4" stroke-linecap="round"></line>
                    <mask id="mask-2" fill="white">
                        <use xlink:href="#path-1" transform="translate(52.8385, 42.5085) scale(1, -1) translate(-52.8385, -42.5085)"></use>
                    </mask>
                    <use id="Mouth" fill="#925B57" transform="translate(52.8385, 42.5085) scale(1, -1) translate(-52.8385, -42.5085)" xlink:href="#path-1"></use>
                    <path d="M51.4916986,53.0084746 L50.8388778,53.0056358 L49.8605062,52.9978627 L48.5689543,52.9811282 C39.9336489,52.8444544 32.0179883,52.2189407 32.0179883,51.2416061 C32.0179883,50.1302228 32.4165033,47.9935213 34.421353,46.2307872 C36.4262026,44.468053 43.1709433,41.7007823 52.1441915,41.7007823 L52.5385859,41.7025656 C61.313409,41.7819553 67.8443854,44.4939755 69.8197519,46.2307872 C71.8246016,47.9935213 72.2231166,50.1302228 72.2231166,51.2416061 C72.2231166,52.2310066 64.1482705,52.8598456 55.3977034,52.9859664 L54.4270805,52.9978627 C53.8845472,53.0033461 53.3404795,53.0068945 52.7966169,53.0084746 L51.4916986,53.0084746 Z" id="Tongue" fill="#BD8483" mask="url(#mask-2)"></path>
                </g>
            </g>
        </g>
    </g>
</svg>