<?xml version="1.0" encoding="UTF-8"?>
<svg width="416px" height="416px" viewBox="0 0 416 416" version="1.1" xmlns="http://www.w3.org/2000/svg" xmlns:xlink="http://www.w3.org/1999/xlink">
    <title>Artboard</title>
    <g id="Artboard" stroke="none" stroke-width="1" fill="none" fill-rule="evenodd">
        <g id="Head" transform="translate(80, 165.819)">
            <path d="M126.722928,241.252587 C84.6303006,240.74519 47.6161085,215.180149 31.8937665,176.132282 C23.8347783,177.773796 16.7423584,175.666424 10.616507,169.810168 C1.27506069,160.879833 -2.26055063,147.462645 1.45049178,134.682601 C3.92452006,126.162572 11.307874,123.389187 23.6005536,126.362446 C26.4233687,67.763462 72.6373707,21.1810366 128,21.1810366 C183.074288,21.1810366 229.052805,67.763462 231.860918,126.362446 C244.089575,123.389187 251.434475,126.162572 253.895618,134.682601 C257.587332,147.462645 254.070135,160.879833 244.777341,169.810168 C238.683395,175.666424 231.627914,177.773796 223.610899,176.132282 C207.812458,215.574572 170.397792,241.26028 128,241.26028 L126.722928,241.252587 Z" fill="#DCBDB4"></path>
            <path d="M44.8730338,100.274206 C34.3595888,129.248897 39.2328742,162.451748 36.3706089,162.451748 C32.6448653,162.451748 26.2119464,149.658251 22.2595669,141.373328 C16.6599383,128.156926 10.0239402,111.689299 10.0239402,92.4009878 C10.0239402,82.0870259 14.9816539,75.5249627 24.8970815,70.9523667 C22.345676,51.4523875 33.9107367,33.8752852 44.8730338,26.0942782 C55.8353309,18.3132712 90.4389797,7.99509719 112.793441,3.85372469 C135.147903,-0.28764781 183.92226,-1.07008787 185.877682,1.40470087 C187.181297,3.05456003 185.632237,5.25135881 181.230503,7.99509719 C203.975166,9.24080251 218.189102,11.5995287 219.590407,14.8458548 C221.035051,18.1925828 216.936168,25.7014761 207.293758,37.3725346 C225.912305,48.2941502 237.008399,60.1523434 240.582039,72.9471142 C245.9425,92.1392704 242.514443,126.214855 237.463217,140.195397 C232.411991,154.175938 225.961035,164.451748 222.526365,164.451748 C219.54577,164.451748 225.182751,127.533496 214.02394,102.274206 C198.020683,85.083236 175.158117,78.4004586 145.436244,82.2258738 L145.270298,82.0870181 C142.616845,79.9212369 108.182496,53.7788787 44.8730338,100.274206 Z" id="Hair" fill="#413833"></path>
            <ellipse id="Blush" fill="#BD8483" cx="64" cy="170.181037" rx="16" ry="8"></ellipse>
            <ellipse id="Blush" fill="#BD8483" cx="191" cy="170.181037" rx="16" ry="8"></ellipse>
        </g>
    </g>
</svg>