<?xml version="1.0" encoding="UTF-8"?>
<svg width="416px" height="416px" viewBox="0 0 416 416" version="1.1" xmlns="http://www.w3.org/2000/svg" xmlns:xlink="http://www.w3.org/1999/xlink">
    <title>Artboard</title>
    <defs>
        <path d="M17.2449979,25.1459442 L16.9283715,25.1426806 L16.4538488,25.1337442 L15.8274296,25.1145051 C11.6391963,24.9573768 7.8,24.2382488 7.8,23.1146465 C7.8,21.8369336 7.99328485,19.3804537 8.9656625,17.353909 C9.93804015,15.3273643 13.2093254,12.1459442 17.5614652,12.1459442 L17.7527516,12.1479945 C22.0086527,12.2392656 25.1762595,15.3571664 26.1343375,17.353909 C27.1067152,19.3804537 27.3,21.8369336 27.3,23.1146465 C27.3,24.2521204 23.3835967,24.9750714 19.13946,25.1200674 L18.6686955,25.1337442 C18.40556,25.1400482 18.1416802,25.1441277 17.8778999,25.1459442 L17.2449979,25.1459442 Z" id="path-1"></path>
    </defs>
    <g id="Artboard" stroke="none" stroke-width="1" fill="none" fill-rule="evenodd">
        <g id="Mini" transform="translate(104, 330)">
            <g id="Ashley" transform="translate(1, 4)">
                <ellipse id="Body" fill="#314836" cx="43.9663866" cy="82.3228346" rx="35.092437" ry="19.6771654"></ellipse>
                <g id="Head">
                    <path d="M43.8032537,80.377817 C29.2534475,80.2024186 16.4590616,71.365007 11.0244513,57.866806 C8.23876827,58.4342499 5.78719088,57.7057664 3.6697191,55.6813556 C0.440739553,52.5942867 -0.781385611,47.956187 0.501379351,43.5383373 C1.35655599,40.5931042 3.90869814,39.6343909 8.1578058,40.6621976 C9.13354465,20.4054988 25.1079518,4.30272552 44.2446884,4.30272552 C63.2817565,4.30272552 79.1747656,20.4054988 80.1454226,40.6621976 C84.3723999,39.6343909 86.9112499,40.5931042 87.7619726,43.5383373 C89.0380566,47.956187 87.8222966,52.5942867 84.6101343,55.6813556 C82.5036908,57.7057664 80.0648818,58.4342499 77.2937073,57.866806 C71.8327925,71.5013525 58.8999782,80.3804767 44.2446884,80.3804767 L43.8032537,80.377817 Z" fill="#E6C29C"></path>
                    <ellipse id="Blush" fill="#CC8574" cx="22.1223442" cy="55.8721402" rx="5.53058605" ry="2.76546756"></ellipse>
                    <ellipse id="Blush" fill="#CC8574" cx="66.021371" cy="55.8721402" rx="5.53058605" ry="2.76546756"></ellipse>
                    <path d="M69.9098002,69.3735669 L70.0713821,69.2152075 C71.1253779,68.1580133 76.9742538,61.9118146 76.8263326,53.6251978 C76.6686583,44.7922106 69.1844737,42.4478392 65.6137232,41.0814325 L65.2939789,40.9572958 C61.8734315,39.6055586 44.7119052,36.5182208 35.6577045,32.3864605 L31.4860271,30.487128 C26.6239004,28.2783178 21.4377894,25.9387271 15.9276941,23.4683557 L15.8790977,25.024047 C15.3507042,41.5356085 14.6725323,49.7913892 13.844582,49.7913892 C12.5642466,49.7913892 6.44596816,38.269878 5.55021875,33.7703108 C4.65446933,29.2707436 7.0930435,19.3653479 13.844582,18.318685 L13.885494,18.1603429 C14.2071987,16.9692668 16.5175072,9.32418276 24.0088549,4.30272552 C32.151624,-1.15538017 45.8943897,-0.500708059 53.1925873,1.27410048 C60.417803,3.03116093 71.9429324,14.4229383 74.5605962,17.2763129 L75.2895901,18.0783249 C77.7175495,20.7372739 81.1563773,24.1838055 86.9514,24.1838055 L87.3685245,24.18177 C91.3509578,24.1424173 93.8900789,23.5324491 94.9858877,22.3518656 C95.5335183,25.7045721 93.8390994,28.4054327 89.9026311,30.4544472 L90.0733575,30.774345 C91.0611312,32.6482099 96,42.3399215 96,48.787663 C96,55.9518202 90.5538137,71.5621943 89.9026311,74.6256341 C89.2514486,77.6890739 89.5464223,82.1118528 91.018304,83.5275591 L78.8108512,83.5275591 L78.781241,83.4808235 L78.7924103,83.3164639 C78.8046728,83.0993733 78.8108512,82.8814031 78.8108512,82.6626071 C78.8108512,77.5589435 75.4491102,72.9045386 69.9235088,69.3847904" id="Path" fill="#332B27"></path>
                </g>
                <g id="Hands" transform="translate(11.2941, 71.4803)" fill="#CC9774">
                    <ellipse id="Left" cx="10.9297913" cy="7.62992126" rx="10.9297913" ry="7.62992126"></ellipse>
                    <ellipse id="Right" cx="53.6080239" cy="7.62992126" rx="10.9297913" ry="7.62992126"></ellipse>
                </g>
                <g id="Sparkles" transform="translate(25.7, 40.8541)">
                    <polygon id="Big-Sparkle" fill="#FFFCD4" points="42.1111633 3.83576818 44.4955589 0 46.8532576 3.83576818 44.4955589 7"></polygon>
                    <polygon id="Bottom-Small-Sparkle" fill="#FFFCD4" points="46.8532576 9.19186753 48.3617022 7 49.8532576 9.19186753 48.3617022 11"></polygon>
                    <polygon id="Right-Small-Sparkle" fill="#FFFCD4" points="48.8532576 4.19186753 50.3617022 2 51.8532576 4.19186753 50.3617022 6"></polygon>
                    <ellipse id="Left-Eye" fill="#332B27" cx="3.45631068" cy="5.50588727" rx="3.45631068" ry="3.42864536"></ellipse>
                    <ellipse id="Right-Eye" fill="#332B27" cx="32.1436893" cy="5.50588727" rx="3.45631068" ry="3.42864536"></ellipse>
                    <mask id="mask-2" fill="white">
                        <use xlink:href="#path-1" transform="translate(17.55, 18.6459) scale(1, -1) translate(-17.55, -18.6459)"></use>
                    </mask>
                    <use id="Mouth" fill="#9D5746" transform="translate(17.55, 18.6459) scale(1, -1) translate(-17.55, -18.6459)" xlink:href="#path-1"></use>
                    <path d="M17.0810241,25.1459442 L16.8537026,25.1441869 L16.5130196,25.1393749 L16.0632828,25.1290155 C13.0563461,25.0444079 10.3,24.6571851 10.3,24.0521685 C10.3,23.3641693 10.4387686,22.0414493 11.1368859,20.9502329 C11.8350032,19.8590165 14.1836183,18.1459442 17.3082315,18.1459442 L17.4455652,18.1470482 C20.501084,18.1961942 22.7752632,19.8750638 23.4631141,20.9502329 C24.1612314,22.0414493 24.3,23.3641693 24.3,24.0521685 C24.3,24.6646545 21.4882233,25.0539358 18.4411508,25.1320105 L18.103166,25.1393749 C17.9142482,25.1427694 17.724796,25.1449661 17.5354153,25.1459442 L17.0810241,25.1459442 Z" id="Tongue" fill="#CC8574" mask="url(#mask-2)"></path>
                </g>
            </g>
        </g>
    </g>
</svg>