<?xml version="1.0" encoding="UTF-8"?>
<svg width="416px" height="416px" viewBox="0 0 416 416" version="1.1" xmlns="http://www.w3.org/2000/svg" xmlns:xlink="http://www.w3.org/1999/xlink">
    <title>Artboard</title>
    <g id="Artboard" stroke="none" stroke-width="1" fill="none" fill-rule="evenodd">
        <g id="Mini" transform="translate(104, 330)">
            <g id="Ashley" transform="translate(1, 4)">
                <ellipse id="Body" fill="#314836" cx="43.9663866" cy="82.3228346" rx="35.092437" ry="19.6771654"></ellipse>
                <g id="Head">
                    <path d="M43.8032537,80.377817 C29.2534475,80.2024186 16.4590616,71.365007 11.0244513,57.866806 C8.23876827,58.4342499 5.78719088,57.7057664 3.6697191,55.6813556 C0.440739553,52.5942867 -0.781385611,47.956187 0.501379351,43.5383373 C1.35655599,40.5931042 3.90869814,39.6343909 8.1578058,40.6621976 C9.13354465,20.4054988 25.1079518,4.30272552 44.2446884,4.30272552 C63.2817565,4.30272552 79.1747656,20.4054988 80.1454226,40.6621976 C84.3723999,39.6343909 86.9112499,40.5931042 87.7619726,43.5383373 C89.0380566,47.956187 87.8222966,52.5942867 84.6101343,55.6813556 C82.5036908,57.7057664 80.0648818,58.4342499 77.2937073,57.866806 C71.8327925,71.5013525 58.8999782,80.3804767 44.2446884,80.3804767 L43.8032537,80.377817 Z" fill="#E6C29C"></path>
                    <ellipse id="Blush" fill="#CC8574" cx="22.1223442" cy="55.8721402" rx="5.53058605" ry="2.76546756"></ellipse>
                    <ellipse id="Blush" fill="#CC8574" cx="66.021371" cy="55.8721402" rx="5.53058605" ry="2.76546756"></ellipse>
                    <path d="M69.9098002,69.3735669 L70.0713821,69.2152075 C71.1253779,68.1580133 76.9742538,61.9118146 76.8263326,53.6251978 C76.6686583,44.7922106 69.1844737,42.4478392 65.6137232,41.0814325 L65.2939789,40.9572958 C61.8734315,39.6055586 44.7119052,36.5182208 35.6577045,32.3864605 L31.4860271,30.487128 C26.6239004,28.2783178 21.4377894,25.9387271 15.9276941,23.4683557 L15.8790977,25.024047 C15.3507042,41.5356085 14.6725323,49.7913892 13.844582,49.7913892 C12.5642466,49.7913892 6.44596816,38.269878 5.55021875,33.7703108 C4.65446933,29.2707436 7.0930435,19.3653479 13.844582,18.318685 L13.885494,18.1603429 C14.2071987,16.9692668 16.5175072,9.32418276 24.0088549,4.30272552 C32.151624,-1.15538017 45.8943897,-0.500708059 53.1925873,1.27410048 C60.417803,3.03116093 71.9429324,14.4229383 74.5605962,17.2763129 L75.2895901,18.0783249 C77.7175495,20.7372739 81.1563773,24.1838055 86.9514,24.1838055 L87.3685245,24.18177 C91.3509578,24.1424173 93.8900789,23.5324491 94.9858877,22.3518656 C95.5335183,25.7045721 93.8390994,28.4054327 89.9026311,30.4544472 L90.0733575,30.774345 C91.0611312,32.6482099 96,42.3399215 96,48.787663 C96,55.9518202 90.5538137,71.5621943 89.9026311,74.6256341 C89.2514486,77.6890739 89.5464223,82.1118528 91.018304,83.5275591 L78.8108512,83.5275591 L78.781241,83.4808235 L78.7924103,83.3164639 C78.8046728,83.0993733 78.8108512,82.8814031 78.8108512,82.6626071 C78.8108512,77.5589435 75.4491102,72.9045386 69.9235088,69.3847904" id="Path" fill="#332B27"></path>
                </g>
                <g id="Hands" transform="translate(11.2941, 71.4803)" fill="#CC9774">
                    <ellipse id="Left" cx="10.9297913" cy="7.62992126" rx="10.9297913" ry="7.62992126"></ellipse>
                    <ellipse id="Right" cx="53.6080239" cy="7.62992126" rx="10.9297913" ry="7.62992126"></ellipse>
                </g>
                <g id="Expressions" transform="translate(25.8151, 43.3701)">
                    <g id="Kiss" transform="translate(0.1723, 2.9864)">
                        <path d="M0,0.416761692 C0.914095453,0.138920564 1.94795366,0 3.10157461,0 C4.25519556,0 5.28905377,0.138920564 6.20314922,0.416761692" id="Left-Eye" stroke="#332B27" stroke-width="3" stroke-linecap="round"></path>
                        <path d="M28.9480297,0.416761692 C29.8622838,0.138920564 30.896142,0 32.0496043,0 C33.2030666,0 34.2369248,0.138920564 35.1511789,0.416761692" id="Right-Eye" stroke="#332B27" stroke-width="3" stroke-linecap="round"></path>
                        <path d="M15.9631303,6.0442157 C16.8517826,3.62055561 21.6001376,3.62055561 22.0226863,6.0442157 C22.3043855,7.65998908 21.5349279,8.74154772 19.7143137,9.28889161 C21.6784608,9.64540199 22.6605343,10.5621867 22.6605343,12.0392458 C22.6605343,14.2548343 20.9853609,15.682874 18.9868437,15.682874 C17.6544988,15.682874 16.6465944,15.1038795 15.9631303,13.9458905" id="Mouth" stroke="#CC9774" stroke-width="2" stroke-linecap="round" stroke-linejoin="round"></path>
                        <path d="M28.5340119,7.48403046 C29.3800557,7.48403046 29.5623,7.97747855 29.497329,8.55601023 C29.4200362,9.24426093 28.7322793,9.94826568 27.4774288,10.6679103 C26.222514,9.94824581 25.5344592,9.24427913 25.4571643,8.55601023 C25.3921933,7.97747855 25.5744377,7.48403046 26.4204815,7.48403046 C26.9598397,7.48403046 27.3121555,7.67791434 27.4774288,8.06568211 C27.6423379,7.67791434 27.9946537,7.48403046 28.5340119,7.48403046 Z" id="Heart" fill="#8D0B0B"></path>
                    </g>
                </g>
            </g>
        </g>
    </g>
</svg>