<?xml version="1.0" encoding="UTF-8"?>
<svg width="416px" height="416px" viewBox="0 0 416 416" version="1.1" xmlns="http://www.w3.org/2000/svg" xmlns:xlink="http://www.w3.org/1999/xlink">
    <title>Artboard</title>
    <g id="Artboard" stroke="none" stroke-width="1" fill="none" fill-rule="evenodd">
        <g id="Mini" transform="translate(78, 312)">
            <g id="Ashley" transform="translate(1, 4)">
                <ellipse id="Body" fill="#314836" cx="54.5" cy="102.5" rx="43.5" ry="24.5"></ellipse>
                <g id="Head">
                    <path d="M54.2977832,100.078262 C36.262086,99.8598742 20.4023784,88.8564303 13.665726,72.0498467 C10.2126398,72.75637 7.17370536,71.8493366 4.54892264,69.3287466 C0.546333404,65.4850432 -0.96859258,59.7101545 0.621501487,54.2094984 C1.6815642,50.5423944 4.84515707,49.3487024 10.1122801,50.6284225 C11.3217897,25.4068466 31.1233986,5.35731511 54.8449783,5.35731511 C78.4430106,5.35731511 98.1437199,25.4068466 99.3469301,50.6284225 C104.586621,49.3487024 107.733737,50.5423944 108.788279,54.2094984 C110.370091,59.7101545 108.863055,65.4850432 104.881312,69.3287466 C102.2702,71.8493366 99.247093,72.75637 95.8119913,72.0498467 C89.0427323,89.0261937 73.0114314,100.081574 54.8449783,100.081574 L54.2977832,100.078262 Z" fill="#E6C29C"></path>
                    <ellipse id="Blush" fill="#CC8574" cx="27.4224892" cy="69.5662922" rx="6.85562229" ry="3.44327824"></ellipse>
                    <ellipse id="Blush" fill="#CC8574" cx="81.8389911" cy="69.5662922" rx="6.85562229" ry="3.44327824"></ellipse>
                    <path d="M86.6590232,86.3768922 L86.8593174,86.1797191 C88.1658331,84.8634087 95.4160021,77.086279 95.2326414,66.7686286 C95.037191,55.7706936 85.7599205,52.8517213 81.3336777,51.1504111 L80.9373281,50.9958488 C76.6972744,49.3128034 55.4241325,45.4687651 44.2006962,40.3243185 L39.0295544,37.9594633 C33.0025432,35.2092781 26.5739265,32.2962582 19.7437042,29.2204036 L19.6834649,31.1573918 C19.0284771,51.7159046 18.1878265,61.9951611 17.1615131,61.9951611 C15.5744306,61.9951611 7.9903147,47.6497501 6.87995866,42.0473478 C5.76960261,36.4449455 8.7924185,24.1117566 17.1615131,22.8085588 L17.2122269,22.6114074 C17.6110067,21.1284008 20.4748267,11.6095217 29.7609763,5.35731511 C39.8546173,-1.43856159 56.8899206,-0.623430622 65.9366447,1.58638001 C74.8929016,3.77409253 89.17926,17.9579722 92.4240724,21.5107033 L93.3277211,22.5092869 C96.3373791,25.8199391 100.600093,30.1112089 107.783506,30.1112089 L108.300567,30.1086745 C113.237125,30.0596764 116.384577,29.3002062 117.742923,27.830264 C118.421757,32.0047123 116.321384,35.3675485 111.441803,37.9187725 L111.653433,38.3170766 C112.877861,40.6502221 119,52.7173532 119,60.7454235 C119,69.6655016 112.248998,89.1019478 111.441803,92.9162307 C110.634608,96.7305135 111.000253,102.237307 112.824773,104 L97.6926177,104 L97.6559134,103.94181 L97.6697586,103.737166 C97.684959,103.466867 97.6926177,103.195472 97.6926177,102.92305 C97.6926177,96.5684885 93.5254595,90.7732981 86.6760161,86.3908665" id="Path" fill="#332B27"></path>
                </g>
                <g id="Hands" transform="translate(14, 89)" fill="#CC9774">
                    <ellipse id="Left" cx="13.5483871" cy="9.5" rx="13.5483871" ry="9.5"></ellipse>
                    <ellipse id="Right" cx="66.4516129" cy="9.5" rx="13.5483871" ry="9.5"></ellipse>
                </g>
                <g id="Default" transform="translate(32, 54)">
                    <ellipse id="Left-Eye" fill="#332B27" cx="4.27184466" cy="4.23728814" rx="4.27184466" ry="4.23728814"></ellipse>
                    <ellipse id="Right-Eye" fill="#332B27" cx="39.7281553" cy="4.23728814" rx="4.27184466" ry="4.23728814"></ellipse>
                    <path d="M16.0194175,19.4915254 C16.0194175,22.5337719 18.6423706,25 21.8779473,25 C25.113524,25 27.7364771,22.5337719 27.7364771,19.4915254" id="Mouth" stroke="#CC9774" stroke-width="2" stroke-linecap="round"></path>
                </g>
            </g>
        </g>
    </g>
</svg>