<?xml version="1.0" encoding="UTF-8"?>
<svg xmlns="http://www.w3.org/2000/svg" xmlns:xlink="http://www.w3.org/1999/xlink" width="200" height="200" viewBox="0 0 200 200">
<path fill-rule="evenodd" fill="rgb(29.803922%, 53.333333%, 63.137255%)" fill-opacity="1" d="M 142.855469 181.730469 C 145.792969 182.363281 144.59375 192.699219 143.648438 194.460938 C 142.480469 195.609375 136.441406 206.730469 99.902344 206.730469 C 63.359375 206.730469 57.007812 195.359375 55.839844 194.210938 C 54.890625 192.449219 53.753906 182.363281 56.695312 181.730469 C 66.34375 184.707031 80.746094 186.195312 99.902344 186.195312 C 119.054688 186.195312 133.375 184.707031 142.855469 181.730469 Z M 142.855469 181.730469 "/>
<path fill-rule="evenodd" fill="rgb(17.647059%, 39.215686%, 47.843137%)" fill-opacity="1" d="M 132.089844 202.113281 C 132.945312 199.644531 133.292969 196.828125 133.136719 193.671875 C 132.980469 190.515625 132.511719 187.335938 131.734375 184.132812 C 130.089844 184.363281 129.265625 184.480469 129.265625 184.480469 C 129.664062 187.332031 129.96875 190.277344 129.96875 194.449219 C 129.96875 198.625 129.386719 200.726562 128.722656 203.207031 C 129.480469 202.992188 130.085938 202.8125 130.535156 202.671875 C 130.984375 202.527344 131.5 202.34375 132.089844 202.113281 Z M 132.089844 202.113281 "/>
<path fill-rule="evenodd" fill="rgb(17.647059%, 39.215686%, 47.843137%)" fill-opacity="1" d="M 111.773438 206.0625 C 112.878906 202.390625 113.355469 198.976562 113.199219 195.816406 C 113.039062 192.660156 112.59375 189.339844 111.855469 185.851562 C 110.136719 185.914062 109.277344 185.941406 109.277344 185.941406 C 109.675781 188.796875 109.828125 192.140625 109.828125 196.316406 C 109.828125 200.488281 109.527344 203.765625 108.863281 206.25 C 109.472656 206.214844 109.925781 206.1875 110.230469 206.167969 C 110.574219 206.148438 111.089844 206.113281 111.773438 206.0625 Z M 111.773438 206.0625 "/>
<path fill-rule="evenodd" fill="rgb(17.647059%, 39.215686%, 47.843137%)" fill-opacity="1" d="M 87.859375 206.0625 C 86.753906 202.390625 86.277344 198.976562 86.4375 195.816406 C 86.59375 192.660156 87.039062 189.339844 87.777344 185.851562 C 89.496094 185.914062 90.355469 185.941406 90.355469 185.941406 C 89.957031 188.796875 89.804688 192.140625 89.804688 196.316406 C 89.804688 200.488281 90.105469 203.765625 90.769531 206.25 C 90.164062 206.214844 89.707031 206.1875 89.402344 206.167969 C 89.058594 206.148438 88.542969 206.113281 87.859375 206.0625 Z M 87.859375 206.0625 "/>
<path fill-rule="evenodd" fill="rgb(17.647059%, 39.215686%, 47.843137%)" fill-opacity="1" d="M 67.429688 202.113281 C 66.574219 199.644531 66.226562 196.828125 66.382812 193.671875 C 66.539062 190.515625 67.007812 187.335938 67.785156 184.132812 C 69.429688 184.363281 70.253906 184.480469 70.253906 184.480469 C 69.855469 187.332031 69.550781 190.277344 69.550781 194.449219 C 69.550781 198.625 70.128906 200.726562 70.796875 203.207031 C 70.039062 202.992188 69.433594 202.8125 68.984375 202.671875 C 68.535156 202.527344 68.015625 202.34375 67.429688 202.113281 Z M 67.429688 202.113281 "/>
<path fill-rule="evenodd" fill="rgb(17.647059%, 39.215686%, 47.843137%)" fill-opacity="1" d="M 109.242188 96.902344 C 119.742188 78.015625 135.910156 74.378906 157.753906 85.992188 C 161.480469 87.972656 170.351562 93.386719 170.523438 97.921875 C 170.699219 102.457031 164.039062 100.71875 160.703125 104.015625 C 158.480469 106.21875 155.890625 111.589844 152.933594 120.136719 C 147.523438 119.441406 139.789062 116.417969 129.722656 111.066406 C 119.65625 105.714844 112.832031 100.996094 109.242188 96.902344 Z M 109.242188 96.902344 "/>
<path fill-rule="evenodd" fill="rgb(29.803922%, 53.333333%, 63.137255%)" fill-opacity="1" d="M 152.933594 120.136719 C 154.238281 121.273438 150.617188 126.617188 149.625 127.328125 C 148.695312 127.644531 142.394531 132.113281 123.863281 122.261719 C 105.332031 112.410156 105.425781 104.460938 105.167969 103.515625 C 105.203125 102.292969 107.566406 96.457031 109.242188 96.902344 C 113.265625 101.136719 120.136719 105.835938 129.851562 111 C 139.5625 116.167969 147.257812 119.210938 152.933594 120.136719 Z M 152.933594 120.136719 "/>
<path fill-rule="evenodd" fill="rgb(17.647059%, 39.215686%, 47.843137%)" fill-opacity="1" d="M 141.410156 128.171875 C 142.554688 127.046875 143.550781 125.601562 144.386719 123.832031 C 145.226562 122.066406 145.917969 120.203125 146.460938 118.246094 C 145.566406 117.933594 145.121094 117.773438 145.121094 117.773438 C 144.492188 119.441406 143.789062 121.132812 142.574219 123.414062 C 141.359375 125.699219 140.460938 126.695312 139.402344 127.875 C 139.847656 127.957031 140.203125 128.019531 140.46875 128.0625 C 140.734375 128.105469 141.046875 128.140625 141.410156 128.171875 Z M 141.410156 128.171875 "/>
<path fill-rule="evenodd" fill="rgb(17.647059%, 39.215686%, 47.843137%)" fill-opacity="1" d="M 130.082031 124.921875 C 131.703125 123.207031 132.933594 121.464844 133.773438 119.695312 C 134.613281 117.925781 135.355469 115.992188 136 113.886719 C 135.121094 113.460938 134.679688 113.25 134.679688 113.25 C 134.050781 114.917969 133.15625 116.785156 131.941406 119.070312 C 130.726562 121.351562 129.621094 123.066406 128.566406 124.246094 C 128.882812 124.390625 129.117188 124.496094 129.277344 124.566406 C 129.453125 124.644531 129.722656 124.765625 130.082031 124.921875 Z M 130.082031 124.921875 "/>
<path fill-rule="evenodd" fill="rgb(17.647059%, 39.215686%, 47.843137%)" fill-opacity="1" d="M 118.09375 118.546875 C 118.609375 116.242188 119.367188 114.25 120.363281 112.566406 C 121.359375 110.878906 122.550781 109.183594 123.933594 107.472656 C 124.777344 107.964844 125.199219 108.207031 125.199219 108.207031 C 124.167969 109.664062 123.121094 111.449219 121.90625 113.734375 C 120.691406 116.015625 119.890625 117.890625 119.5 119.425781 C 119.207031 119.246094 118.984375 119.109375 118.839844 119.015625 C 118.671875 118.914062 118.425781 118.757812 118.09375 118.546875 Z M 118.09375 118.546875 "/>
<path fill-rule="evenodd" fill="rgb(17.647059%, 39.215686%, 47.843137%)" fill-opacity="1" d="M 109.007812 110.945312 C 109.296875 109.363281 109.941406 107.734375 110.9375 106.046875 C 111.933594 104.363281 113.09375 102.75 114.414062 101.207031 C 115.171875 101.769531 115.550781 102.050781 115.550781 102.050781 C 114.523438 103.507812 113.511719 105.035156 112.300781 107.316406 C 111.085938 109.601562 110.765625 110.90625 110.375 112.441406 C 110.058594 112.117188 109.808594 111.859375 109.625 111.664062 C 109.441406 111.464844 109.234375 111.226562 109.007812 110.945312 Z M 109.007812 110.945312 "/>
</svg>
