<?xml version="1.0" encoding="UTF-8"?>
<svg xmlns="http://www.w3.org/2000/svg" xmlns:xlink="http://www.w3.org/1999/xlink" width="200" height="200" viewBox="0 0 200 200">
<path fill-rule="evenodd" fill="rgb(69.803922%, 88.627451%, 88.627451%)" fill-opacity="1" d="M 60.917969 141.929688 C 60.917969 144.003906 60.464844 145.527344 59.089844 145.613281 L 58.960938 145.617188 C 57.515625 145.59375 57.039062 144.046875 57.039062 141.929688 C 57.039062 140.554688 57.757812 138.53125 58.980469 136.207031 C 60.203125 138.53125 60.917969 140.554688 60.917969 141.929688 Z M 60.917969 141.929688 "/>
<path fill-rule="evenodd" fill="rgb(69.803922%, 88.627451%, 88.627451%)" fill-opacity="1" d="M 55.152344 147.351562 C 55.152344 148.515625 54.894531 149.371094 54.121094 149.421875 L 54.050781 149.421875 C 53.238281 149.410156 52.96875 148.539062 52.96875 147.351562 C 52.96875 146.578125 53.375 145.441406 54.058594 144.136719 C 54.746094 145.441406 55.152344 146.578125 55.152344 147.351562 Z M 55.152344 147.351562 "/>
<path fill-rule="evenodd" fill="rgb(0%, 0%, 0%)" fill-opacity="1" d="M 81.265625 152.640625 C 81.265625 155.160156 79.214844 157.203125 76.691406 157.203125 C 74.164062 157.203125 72.117188 155.160156 72.117188 152.640625 C 72.117188 150.121094 74.164062 148.078125 76.691406 148.078125 C 79.214844 148.078125 81.265625 150.121094 81.265625 152.640625 Z M 81.265625 152.640625 "/>
<path fill-rule="evenodd" fill="rgb(0%, 0%, 0%)" fill-opacity="1" d="M 128.847656 152.640625 C 128.847656 155.160156 126.796875 157.203125 124.273438 157.203125 C 121.746094 157.203125 119.699219 155.160156 119.699219 152.640625 C 119.699219 150.121094 121.746094 148.078125 124.273438 148.078125 C 126.796875 148.078125 128.847656 150.121094 128.847656 152.640625 Z M 128.847656 152.640625 "/>
<path fill-rule="evenodd" fill="rgb(61.176471%, 35.294118%, 35.686275%)" fill-opacity="1" d="M 72.117188 171.347656 C 72.117188 170.261719 72.675781 168.171875 75.507812 166.449219 C 78.335938 164.726562 87.820312 161.847656 100.480469 161.847656 C 113.140625 161.847656 122.667969 164.75 125.453125 166.449219 C 128.285156 168.171875 128.847656 170.261719 128.847656 171.347656 C 128.847656 172.316406 112.828125 172.953125 100.480469 173.078125 C 88.296875 172.945312 72.117188 172.304688 72.117188 171.347656 Z M 72.117188 171.347656 "/>
<path fill-rule="evenodd" fill="rgb(92.941176%, 50.980392%, 51.372549%)" fill-opacity="1" d="M 100.59375 173.078125 L 100.167969 173.074219 L 99.53125 173.074219 L 98.6875 173.066406 C 93.042969 173.019531 87.875 172.808594 87.875 172.476562 C 87.875 172.097656 88.132812 171.371094 89.445312 170.773438 C 90.753906 170.171875 95.160156 169.230469 101.023438 169.230469 L 101.277344 169.230469 C 107.011719 169.257812 111.277344 170.179688 112.566406 170.773438 C 113.878906 171.371094 114.136719 172.097656 114.136719 172.476562 C 114.136719 172.8125 108.863281 173.027344 103.148438 173.070312 L 102.511719 173.074219 C 102.160156 173.074219 101.804688 173.078125 101.449219 173.078125 Z M 100.59375 173.078125 "/>
</svg>
