<?xml version="1.0" encoding="UTF-8"?>
<svg xmlns="http://www.w3.org/2000/svg" xmlns:xlink="http://www.w3.org/1999/xlink" width="200" height="200" viewBox="0 0 200 200">
<path fill-rule="evenodd" fill="rgb(69.803922%, 88.627451%, 88.627451%)" fill-opacity="1" d="M 125.847656 172.082031 C 125.902344 174.589844 125.765625 176.160156 125.445312 176.78125 C 124.960938 177.714844 123.753906 179.105469 124.984375 180.175781 C 126.214844 181.25 127.882812 180.0625 127.882812 178.003906 C 127.882812 176.632812 127.882812 174.414062 127.882812 171.347656 Z M 125.847656 172.082031 "/>
<path fill-rule="evenodd" fill="rgb(61.176471%, 35.294118%, 35.686275%)" fill-opacity="1" d="M 72.117188 171.347656 C 72.117188 170.261719 72.675781 168.171875 75.507812 166.449219 C 78.335938 164.726562 87.820312 161.847656 100.480469 161.847656 C 113.140625 161.847656 122.667969 164.75 125.453125 166.449219 C 128.285156 168.171875 128.847656 170.261719 128.847656 171.347656 C 128.847656 172.316406 112.828125 172.953125 100.480469 173.078125 C 88.296875 172.945312 72.117188 172.304688 72.117188 171.347656 Z M 72.117188 171.347656 "/>
<path fill-rule="evenodd" fill="rgb(92.941176%, 50.980392%, 51.372549%)" fill-opacity="1" d="M 100.59375 173.078125 L 100.167969 173.074219 L 99.53125 173.074219 L 98.6875 173.066406 C 93.042969 173.019531 87.875 172.808594 87.875 172.476562 C 87.875 172.097656 88.132812 171.371094 89.445312 170.773438 C 90.753906 170.171875 95.160156 169.230469 101.023438 169.230469 L 101.277344 169.230469 C 107.011719 169.257812 111.277344 170.179688 112.566406 170.773438 C 113.878906 171.371094 114.136719 172.097656 114.136719 172.476562 C 114.136719 172.8125 108.863281 173.027344 103.148438 173.070312 L 102.511719 173.074219 C 102.160156 173.074219 101.804688 173.078125 101.449219 173.078125 Z M 100.59375 173.078125 "/>
<path fill="none" stroke-width="5" stroke-linecap="round" stroke-linejoin="miter" stroke="rgb(0%, 0%, 0%)" stroke-opacity="1" stroke-miterlimit="4" d="M 0.475 1.160987 C 3.001875 0.389112 5.85375 -0.000887804 9.03875 -0.000887804 C 12.22375 -0.000887804 15.075625 0.389112 17.6025 1.160987 " transform="matrix(0.480769, 0, 0, -0.480769, 72.115385, 152.640198)"/>
<path fill="none" stroke-width="5" stroke-linecap="round" stroke-linejoin="miter" stroke="rgb(0%, 0%, 0%)" stroke-opacity="1" stroke-miterlimit="4" d="M 100.39625 1.160987 C 102.923125 0.389112 105.775 -0.000887804 108.96 -0.000887804 C 112.145 -0.000887804 114.996875 0.389112 117.52375 1.160987 " transform="matrix(0.480769, 0, 0, -0.480769, 72.115385, 152.640198)"/>
</svg>
