<?xml version="1.0" encoding="UTF-8"?>
<svg xmlns="http://www.w3.org/2000/svg" xmlns:xlink="http://www.w3.org/1999/xlink" width="200" height="200" viewBox="0 0 200 200">
<path fill-rule="evenodd" fill="rgb(78.823529%, 54.509804%, 54.901961%)" fill-opacity="1" d="M 151.441406 141.347656 C 157.089844 140.902344 158.167969 139.007812 154.679688 135.664062 C 154.679688 135.664062 162.863281 136.332031 158.769531 130.511719 C 158.769531 130.511719 166.75 128.796875 162.121094 124.691406 C 162.121094 124.691406 169.308594 122.40625 164.53125 119.675781 C 164.53125 119.675781 170.960938 116.882812 166.953125 114.902344 "/>
<path fill-rule="evenodd" fill="rgb(78.823529%, 54.509804%, 54.901961%)" fill-opacity="1" d="M 154.507812 156.988281 C 160.042969 158.316406 161.664062 156.835938 159.371094 152.546875 C 159.371094 152.546875 166.984375 155.730469 164.886719 148.882812 C 164.886719 148.882812 173.046875 149.71875 169.902344 144.347656 C 169.902344 144.347656 177.484375 144.390625 173.765625 140.289062 C 173.765625 140.289062 180.78125 139.609375 177.566406 136.472656 "/>
<path fill-rule="evenodd" fill="rgb(78.823529%, 54.509804%, 54.901961%)" fill-opacity="1" d="M 153.414062 162.691406 C 153.414062 162.691406 157.800781 167.03125 158.265625 161.699219 C 158.265625 161.699219 163.6875 164.5625 163.011719 159.960938 C 163.011719 159.960938 168.253906 162.113281 166.824219 158.226562 "/>
<path fill-rule="evenodd" fill="rgb(78.823529%, 54.509804%, 54.901961%)" fill-opacity="1" d="M 48.558594 141.828125 C 42.910156 141.382812 41.832031 139.488281 45.320312 136.144531 C 45.320312 136.144531 37.136719 136.8125 41.230469 130.992188 C 41.230469 130.992188 33.25 129.277344 37.878906 125.171875 C 37.878906 125.171875 30.691406 122.886719 35.46875 120.15625 C 35.46875 120.15625 29.039062 117.363281 33.046875 115.382812 "/>
<path fill-rule="evenodd" fill="rgb(78.823529%, 54.509804%, 54.901961%)" fill-opacity="1" d="M 45.570312 157.449219 C 40.03125 158.777344 38.410156 157.296875 40.707031 153.007812 C 40.707031 153.007812 33.089844 156.191406 35.191406 149.34375 C 35.191406 149.34375 27.027344 150.179688 30.175781 144.808594 C 30.175781 144.808594 22.59375 144.851562 26.308594 140.75 C 26.308594 140.75 19.292969 140.074219 22.507812 136.933594 "/>
<path fill-rule="evenodd" fill="rgb(78.823529%, 54.509804%, 54.901961%)" fill-opacity="1" d="M 47.875 163.613281 C 47.875 163.613281 43.488281 167.953125 43.027344 162.621094 C 43.027344 162.621094 37.605469 165.484375 38.28125 160.882812 C 38.28125 160.882812 33.035156 163.035156 34.464844 159.148438 "/>
<path fill-rule="evenodd" fill="rgb(98.431373%, 85.882353%, 85.882353%)" fill-opacity="1" d="M 99.210938 196.628906 C 73.1875 196.296875 48.222656 179.527344 45.296875 162.769531 L 45.007812 162.675781 C 35.421875 160.144531 30.390625 157.746094 31.144531 155.757812 C 31.933594 153.683594 36.890625 154.28125 45.007812 157.183594 L 45.007812 157.011719 C 26.058594 141.746094 16.710938 132.230469 19.320312 130.003906 C 21.894531 127.808594 32.320312 131.976562 48.585938 141.347656 C 34.101562 120.082031 28.972656 108.558594 32.933594 107.507812 C 36.9375 106.445312 44.339844 113.488281 55.453125 127.390625 C 64.011719 114.097656 78.402344 107.195312 100 106.730469 C 121.59375 107.195312 135.863281 114.097656 144.425781 127.390625 C 155.171875 114.035156 163.019531 106.464844 166.945312 107.507812 C 170.90625 108.558594 165.777344 120.082031 151.292969 141.347656 C 167.558594 131.976562 177.984375 127.808594 180.558594 130.003906 C 183.21875 132.277344 174.65625 141.335938 154.867188 157.183594 L 154.867188 157.011719 C 162.699219 154.257812 167.957031 153.726562 168.730469 155.757812 C 169.507812 157.808594 164.792969 160.144531 154.582031 162.769531 C 151.625 179.699219 126.304688 196.632812 100 196.632812 Z M 99.210938 196.628906 "/>
</svg>
