<?xml version="1.0" encoding="UTF-8"?>
<svg width="416px" height="416px" viewBox="0 0 416 416" version="1.1" xmlns="http://www.w3.org/2000/svg" xmlns:xlink="http://www.w3.org/1999/xlink">
    <title>Penguin</title>
    <defs>
        <polygon id="path-1" points="-1.94263256e-14 -2.76662694e-14 36 1.33165598e-14 30 44.3333333 6 44.3333333"></polygon>
    </defs>
    <g id="Penguin" stroke="none" stroke-width="1" fill="none" fill-rule="evenodd">
        <g id="Accessories" transform="translate(116, 122.9813)">
            <g id="Hot" transform="translate(4, 168.0187)">
                <g id="Sunnies">
                    <path d="M1.17406652,4.37960942 C4.62909781,0.447044277 20.6236249,-0.717222797 37.5170064,0.407813539 L39.6753638,0.559001545 C48.1064466,1.1766579 61.9193515,2.48724922 71.0048168,4.37960942 C75.2307085,5.25979652 77.5371149,6.24228355 79.3160522,7.11597988 L81.0955076,8.00661695 C82.903715,8.88593435 85.7250586,9.52205812 89.551092,9.60062653 C93.4274411,9.51527355 95.1852428,8.85214911 97.0292774,7.94559448 L98.6839478,7.11597988 L99.0599867,6.93373206 C100.79014,6.10725466 103.060732,5.19909396 106.995183,4.37960942 C116.9066,2.31521647 132.44406,0.943176574 140.482994,0.407813539 L141.559962,0.339116381 C158.051317,-0.666426326 173.444413,0.530715876 176.825933,4.37960942 C180.280965,8.31217456 176.324571,32.3941531 162.101237,42.9048272 C147.877903,53.4155013 135.664117,56.47269 118.127245,54.3806284 C100.836344,52.31791 96.5551327,24.1204059 89.0000908,23.3298168 C81.4448673,24.1204059 77.1636555,52.31791 59.8727549,54.3806284 C42.3358825,56.47269 30.1220974,53.4155013 15.8987632,42.9048272 C1.675429,32.3941531 -2.28096477,8.31217456 1.17406652,4.37960942 Z" id="Sunglasses" fill="#000000"></path>
                    <path d="M140.459212,3.68543256 C154.743252,2.81447854 168.076032,3.85138707 171.004946,7.18511849 C173.997532,10.5913223 170.570689,31.4500049 158.251103,40.5538588 C145.931517,49.6577127 135.352508,52.3057064 120.16289,50.4936605 C105.186321,48.7070304 98.5260124,32.0460745 99.3730043,21.3744302 C100.219996,10.7027859 105.253244,8.9672054 111.187143,7.18511849 C117.121042,5.40303158 126.175172,4.55638658 140.459212,3.68543256 Z" id="Right-Lens" fill="#383838"></path>
                    <path d="M46.8018012,3.68543256 C61.0858409,2.81447854 74.4186208,3.85138707 77.3475351,7.18511849 C80.3401214,10.5913223 76.9132784,31.4500049 64.5936921,40.5538588 C52.2741058,49.6577127 41.6950969,52.3057064 26.5054789,50.4936605 C11.5289102,48.7070304 4.86860159,32.0460745 5.71559341,21.3744302 C6.56258522,10.7027859 11.595833,8.9672054 17.5297321,7.18511849 C23.4636312,5.40303158 32.5177614,4.55638658 46.8018012,3.68543256 Z" id="Left-Lens" fill="#383838" transform="translate(42.0043, 27.2109) scale(-1, 1) translate(-42.0043, -27.2109)"></path>
                </g>
                <g id="Sunscreen" transform="translate(53, 94.8563) rotate(-20) translate(-53, -94.8563)translate(35, 68.7313)">
                    <rect id="Cap" fill="#FFFFFF" x="6" y="43.5416667" width="24" height="8.70833333"></rect>
                    <mask id="mask-2" fill="white">
                        <use xlink:href="#path-1"></use>
                    </mask>
                    <use id="Body" fill="#469E9E" xlink:href="#path-1"></use>
                    <rect id="End" fill="#104256" mask="url(#mask-2)" x="0" y="-0.75" width="36" height="4.75"></rect>
                </g>
            </g>
        </g>
    </g>
</svg>