<?xml version="1.0" encoding="UTF-8"?>
<svg width="416px" height="416px" viewBox="0 0 416 416" version="1.1" xmlns="http://www.w3.org/2000/svg" xmlns:xlink="http://www.w3.org/1999/xlink">
    <title>Penguin</title>
    <g id="Penguin" stroke="none" stroke-width="1" fill="none" fill-rule="evenodd">
        <g id="High-HR" transform="translate(120.1781, 283.3091)">
            <path d="M16.5347843,11.9085214 C16.5347843,16.2152901 15.5889329,19.386876 12.7282542,19.5690079 L12.4639902,19.5772785 C9.4523465,19.5272748 8.4639902,16.3109961 8.4639902,11.9085214 C8.4639902,9.04610426 9.95778844,4.83975008 12.4993873,0 C15.0409861,4.83975008 16.5347843,9.04610426 16.5347843,11.9085214 Z" id="Big-Sweat" fill="#B2E2E2"></path>
            <path d="M4.5347843,23.1825267 C4.5347843,25.602396 4.00333326,27.3844335 2.39598695,27.486769 L2.2475034,27.4914161 C0.555333534,27.4633202 0,25.6561709 0,23.1825267 C0,21.5742036 0.839329155,19.2107547 2.26739215,16.4914161 C3.69545515,19.2107547 4.5347843,21.5742036 4.5347843,23.1825267 Z" id="Small-Sweat" fill="#B2E2E2"></path>
            <ellipse id="Left-Eye" fill="#000000" cx="39.3364966" cy="34.1824429" rx="9.51456311" ry="9.49152542"></ellipse>
            <ellipse id="Right-Eye" fill="#000000" cx="138.30737" cy="34.1824429" rx="9.51456311" ry="9.49152542"></ellipse>
            <g id="Beak" transform="translate(60.8321, 53.6909)" fill="#F0E191">
                <path d="M1.02085722,35.3389831 C4.99937028,31.0002514 15.8375896,26.423811 26.9898438,26.423811 C38.1315131,26.423811 48.8527366,30.9899817 53.0358685,35.3389831" id="Path" transform="translate(27.0284, 30.8814) scale(1, -1) translate(-27.0284, -30.8814)"></path>
                <path d="M0,24.3389831 C0.409985503,17.6812592 0.443124119,-7.10542736e-15 27.4898438,-7.10542736e-15 C54.5365634,-7.10542736e-15 53.2876395,17.805012 53.9898438,24.3389831" id="Top"></path>
            </g>
            <g id="Mouth" transform="translate(60.8219, 59.6909)">
                <path d="M26.1553787,23 L25.2785671,22.994226 L23.9645043,22.9784153 L22.2298051,22.944377 C10.6316206,22.6663808 0,21.3940774 0,19.4061655 C0,17.1455967 0.535250348,12.7995169 3.22798845,9.21409157 C5.92072656,5.62866626 14.9796704,0 27.0317499,0 L27.5614659,0.00362741709 C39.3470382,0.16510713 48.1188725,5.68139311 50.7720115,9.21409157 C53.4647497,12.7995169 54,17.1455967 54,19.4061655 C54,21.4186195 43.1545754,22.6976866 31.4015816,22.954218 L30.0979261,22.9784153 C29.369243,22.9895686 28.638499,22.9967862 27.9080304,23 L26.1553787,23 Z" fill="#833219"></path>
                <path d="M27.1089716,23 L26.7030403,22.9979916 L26.0946779,22.9924923 L25.2915764,22.9806529 C19.9220466,22.8839585 15,22.4414182 15,21.7499706 C15,20.9636858 15.2478011,19.4520059 16.4944391,18.2049014 C17.7410771,16.957797 21.9350326,15 27.514699,15 L27.7599379,15.0012617 C33.2162214,15.0574286 37.2772558,16.9761367 38.5055609,18.2049014 C39.7521989,19.4520059 40,20.9636858 40,21.7499706 C40,22.4499546 34.9789701,22.8948475 29.5377692,22.9840758 L28.9342251,22.9924923 C28.5968718,22.9963717 28.2585643,22.9988821 27.9203844,23 L27.1089716,23 Z" id="Tongue" fill="#DD795A"></path>
            </g>
        </g>
    </g>
</svg>