<?xml version="1.0" encoding="UTF-8"?>
<svg width="416px" height="416px" viewBox="0 0 416 416" version="1.1" xmlns="http://www.w3.org/2000/svg" xmlns:xlink="http://www.w3.org/1999/xlink">
    <title>Penguin</title>
    <g id="Penguin" stroke="none" stroke-width="1" fill="none" fill-rule="evenodd">
        <g id="Expressions" transform="translate(120.1781, 283.3091)">
            <g id="Past-Bedtime" transform="translate(30.2977, 33.0201)">
                <path d="M0,1.16235653 C2.52371713,0.387452177 5.37808606,0 8.5631068,0 C11.7481275,0 14.6024965,0.387452177 17.1262136,1.16235653" id="Left-Eye" stroke="#000000" stroke-width="5" stroke-linecap="round" transform="translate(8.5631, 0.5812) scale(1, -1) translate(-8.5631, -0.5812)"></path>
                <path d="M99.9223301,1.16235653 C102.446485,0.387452177 105.300854,0 108.485437,0 C111.67002,0 114.524389,0.387452177 117.048544,1.16235653" id="Right-Eye" stroke="#000000" stroke-width="5" stroke-linecap="round" transform="translate(108.4854, 0.5812) scale(1, -1) translate(-108.4854, -0.5812)"></path>
                <g id="Beak" transform="translate(30.5344, 20.6708)" fill="#F0E191">
                    <path d="M1.02085722,35.3389831 C4.99937028,31.0002514 15.8375896,26.423811 26.9898438,26.423811 C38.1315131,26.423811 48.8527366,30.9899817 53.0358685,35.3389831" id="Path" transform="translate(27.0284, 30.8814) scale(1, -1) translate(-27.0284, -30.8814)"></path>
                    <path d="M0,24.3389831 C0.409985503,17.6812592 0.443124119,-7.10542736e-15 27.4898438,-7.10542736e-15 C54.5365634,-7.10542736e-15 53.2876395,17.805012 53.9898438,24.3389831" id="Top"></path>
                </g>
                <path d="M80.2913884,47.5978873 C80.3977085,52.8211897 80.1166173,56.080796 79.4481149,57.3767064 C78.4453612,59.3205719 75.9363268,62.2093023 78.4955348,64.4400629 C81.0547427,66.6708235 84.5242718,64.1985132 84.5242718,59.9172784 C84.5242718,57.0631219 84.5242718,52.4496921 84.5242718,46.076989 L80.2913884,47.5978873 Z" id="Drool" fill="#B2E2E2"></path>
                <g id="Mouth" transform="translate(30.5243, 26.6708)">
                    <path d="M26.1553787,23 L25.2785671,22.994226 L23.9645043,22.9784153 L22.2298051,22.944377 C10.6316206,22.6663808 0,21.3940774 0,19.4061655 C0,17.1455967 0.535250348,12.7995169 3.22798845,9.21409157 C5.92072656,5.62866626 14.9796704,0 27.0317499,0 L27.5614659,0.00362741709 C39.3470382,0.16510713 48.1188725,5.68139311 50.7720115,9.21409157 C53.4647497,12.7995169 54,17.1455967 54,19.4061655 C54,21.4186195 43.1545754,22.6976866 31.4015816,22.954218 L30.0979261,22.9784153 C29.369243,22.9895686 28.638499,22.9967862 27.9080304,23 L26.1553787,23 Z" fill="#833219"></path>
                    <path d="M27.1089716,23 L26.7030403,22.9979916 L26.0946779,22.9924923 L25.2915764,22.9806529 C19.9220466,22.8839585 15,22.4414182 15,21.7499706 C15,20.9636858 15.2478011,19.4520059 16.4944391,18.2049014 C17.7410771,16.957797 21.9350326,15 27.514699,15 L27.7599379,15.0012617 C33.2162214,15.0574286 37.2772558,16.9761367 38.5055609,18.2049014 C39.7521989,19.4520059 40,20.9636858 40,21.7499706 C40,22.4499546 34.9789701,22.8948475 29.5377692,22.9840758 L28.9342251,22.9924923 C28.5968718,22.9963717 28.2585643,22.9988821 27.9203844,23 L27.1089716,23 Z" id="Tongue" fill="#DD795A"></path>
                </g>
            </g>
        </g>
    </g>
</svg>