<?xml version="1.0" encoding="UTF-8"?>
<svg width="416px" height="416px" viewBox="0 0 416 416" version="1.1" xmlns="http://www.w3.org/2000/svg" xmlns:xlink="http://www.w3.org/1999/xlink">
    <title>Penguin</title>
    <defs>
        <path d="M27.1240965,21 L26.2148104,20.994728 L24.8520785,20.9802922 L23.0531312,20.9492138 C11.0253843,20.6953911 0,19.5337228 0,17.7186729 C0,15.6546753 0.555074435,11.6865154 3.34754358,8.41286622 C6.14001273,5.13921702 15.534473,7.10542736e-15 28.0329258,7.10542736e-15 L28.5822609,0.00331198952 C40.8043359,0.150749989 49.901053,5.18735892 52.6524564,8.41286622 C55.4449256,11.6865154 56,15.6546753 56,17.7186729 C56,19.5561308 44.752893,20.7239747 32.5646031,20.9581991 L31.2126641,20.9802922 C30.4569928,20.9904757 29.6991841,20.9970656 28.9416612,21 L27.1240965,21 Z" id="path-1"></path>
    </defs>
    <g id="Penguin" stroke="none" stroke-width="1" fill="none" fill-rule="evenodd">
        <g id="Expressions" transform="translate(120.1781, 283.3091)">
            <g id="69" transform="translate(25.4834, 33.6824)">
                <path d="M4.33850117,0.5 C4.33850117,6.57513225 8.59831617,11.5 13.8530643,11.5 C19.1078124,11.5 23.3676274,6.57513225 23.3676274,0.5" id="Left-Eye" fill="#000000"></path>
                <line x1="0" y1="0.5" x2="21.3482682" y2="0.5" id="Left-Lid" stroke="#000000" stroke-width="4" stroke-linecap="round"></line>
                <path d="M103.309375,0.5 C103.309375,6.57513225 107.56919,11.5 112.823938,11.5 C118.078686,11.5 122.338501,6.57513225 122.338501,0.5" id="Right-Eye" fill="#000000"></path>
                <line x1="99" y1="1" x2="120.348268" y2="1" id="Right-Lid" stroke="#000000" stroke-width="4" stroke-linecap="round"></line>
                <g id="Beak" transform="translate(34.8385, 23.0085)" fill="#F0E191">
                    <path d="M0,34.3389831 C0.35780553,27.6812592 3.98519849,12.3389831 27.5,12.3389831 C51.0148015,12.3389831 55.3871671,27.805012 56,34.3389831" id="Bottom" transform="translate(28, 23.339) scale(1, -1) translate(-28, -23.339)"></path>
                    <path d="M0,12.084833 C0.409985503,5.42710916 13.064551,0 28,0 C42.7363097,0 55.2977957,5.55086193 56,12.084833" id="Top"></path>
                </g>
                <g id="Mouth" transform="translate(34.8385, 32.0085)">
                    <mask id="mask-2" fill="white">
                        <use xlink:href="#path-1" transform="translate(28, 10.5) scale(1, -1) translate(-28, -10.5)"></use>
                    </mask>
                    <use id="Inner" fill="#833219" transform="translate(28, 10.5) scale(1, -1) translate(-28, -10.5)" xlink:href="#path-1"></use>
                    <path d="M26.6531975,21 L26.0003767,20.9971613 L25.0220051,20.9893881 L23.7304532,20.9726536 C15.0951477,20.8359798 7.17948718,20.2104661 7.17948718,19.2331315 C7.17948718,18.1217482 7.57800216,15.9850468 9.5828518,14.2223126 C11.5877014,12.4595784 18.3324422,9.69230769 27.3056903,9.69230769 L27.7000847,9.69409107 C36.4749079,9.77348076 43.0058842,12.485501 44.9812508,14.2223126 C46.9861004,15.9850468 47.3846154,18.1217482 47.3846154,19.2331315 C47.3846154,20.222532 39.3097694,20.851371 30.5592022,20.9774918 L29.5885794,20.9893881 C29.0460461,20.9948715 28.5019783,20.9984199 27.9581157,21 L26.6531975,21 Z" id="Tongue" fill="#DD795A" mask="url(#mask-2)"></path>
                </g>
            </g>
        </g>
    </g>
</svg>