<?xml version="1.0" encoding="UTF-8"?>
<svg width="416px" height="416px" viewBox="0 0 416 416" version="1.1" xmlns="http://www.w3.org/2000/svg" xmlns:xlink="http://www.w3.org/1999/xlink">
    <title>Penguin</title>
    <defs>
        <path d="M25.5,0 C39.1645781,0 50.3188239,7.05145529 50.9699589,15.9105373 L50.9982334,16.3852158 L51,16.729805 C50.6198316,25.7566771 39.3492345,33 25.5,33 C11.6507655,33 0.380168376,25.7566771 0.00941758502,16.7293334 L0,16.270195 C0.380168376,7.24332287 11.6507655,0 25.5,0 Z" id="path-1"></path>
    </defs>
    <g id="Penguin" stroke="none" stroke-width="1" fill="none" fill-rule="evenodd">
        <g id="Expressions" transform="translate(120.1781, 283.3091)">
            <g id="Blink" transform="translate(30.2977, 33.0201)">
                <path d="M0,1.16235653 C2.52371713,0.387452177 5.37808606,0 8.5631068,0 C11.7481275,0 14.6024965,0.387452177 17.1262136,1.16235653" id="Left-Eye" stroke="#000000" stroke-width="5" stroke-linecap="round"></path>
                <path d="M99.9223301,1.16235653 C102.446485,0.387452177 105.300854,0 108.485437,0 C111.67002,0 114.524389,0.387452177 117.048544,1.16235653" id="Right-Eye" stroke="#000000" stroke-width="5" stroke-linecap="round"></path>
                <g id="Mouth" transform="translate(32.5243, 20.6708)">
                    <mask id="mask-2" fill="white">
                        <use xlink:href="#path-1"></use>
                    </mask>
                    <use id="Beak" fill="#F0E191" xlink:href="#path-1"></use>
                    <path d="M0,15 C8.5,19.6666667 17,22 25.5,22 C34,22 42.5,19.6666667 51,15" id="Smile" stroke="#B9A539" stroke-width="4" stroke-linecap="round" mask="url(#mask-2)"></path>
                </g>
            </g>
        </g>
    </g>
</svg>