<?xml version="1.0" encoding="UTF-8"?>
<svg width="416px" height="416px" viewBox="0 0 416 416" version="1.1" xmlns="http://www.w3.org/2000/svg" xmlns:xlink="http://www.w3.org/1999/xlink">
    <title>Penguin</title>
    <g id="Penguin" stroke="none" stroke-width="1" fill="none" fill-rule="evenodd">
        <g id="Head" transform="translate(91.8299, 197)">
            <path d="M0,126.321951 C0,86.8426021 31.1713876,0.0198713553 116.670051,0 L118.454779,0.0198713553 C203.520247,1.9105326 233.340102,87.2373956 233.340102,126.321951 C233.340102,165.8013 176.186431,208 116.670051,208 C57.1536701,208 0,165.8013 0,126.321951 Z" id="Face" fill="#646464"></path>
            <path d="M58.1700508,63.2090019 C102.155045,63.2090019 108.62477,106.109432 100.170051,155.338983 L134.170051,155.338983 C126.381998,106.109432 129.521103,63.2090019 173.506098,63.2090019 C239.483589,63.2090019 232.025901,197.209002 115.506098,197.209002 C2.32040966,194.582334 -7.14766564,63.2090019 58.1700508,63.2090019 Z" id="Marking" fill="#FFFFFF"></path>
        </g>
    </g>
</svg>