<?xml version="1.0" encoding="UTF-8"?>
<svg width="416px" height="416px" viewBox="0 0 416 416" version="1.1" xmlns="http://www.w3.org/2000/svg" xmlns:xlink="http://www.w3.org/1999/xlink">
    <title>Axolotl</title>
    <g id="Axolotl" stroke="none" stroke-width="1" fill="none" fill-rule="evenodd">
        <g id="Expressions" transform="translate(110.1781, 283.3091)">
            <g id="Past-Bedtime" transform="translate(40.2977, 33.0201)">
                <path d="M80.2913884,53.5978873 C80.3977085,58.8211897 80.1166173,62.080796 79.4481149,63.3767064 C78.4453612,65.3205719 75.9363268,68.2093023 78.4955348,70.4400629 C81.0547427,72.6708235 84.5242718,70.1985132 84.5242718,65.9172784 C84.5242718,63.0631219 84.5242718,58.4496921 84.5242718,52.076989 L80.2913884,53.5978873 Z" id="Drool" fill="#B2E2E2"></path>
                <path d="M58.1791343,55.6708235 L56.7827306,55.6650494 L54.6899638,55.6492388 L51.9272948,55.6152005 C33.456112,55.3372042 16.5242718,54.0649008 16.5242718,52.076989 C16.5242718,49.8164202 17.3767076,45.4703404 21.6651423,41.884915 C25.9535771,38.2994897 40.380784,32.6708235 59.5748365,32.6708235 L60.4184582,32.6744509 C79.1880735,32.8359306 93.1580318,38.3522166 97.3834013,41.884915 C101.671836,45.4703404 102.524272,49.8164202 102.524272,52.076989 C102.524272,54.089443 85.251929,55.3685101 66.5341981,55.6250415 L64.4580061,55.6492388 C63.2975107,55.6603921 62.1337331,55.6676096 60.9703943,55.6708235 L58.1791343,55.6708235 Z" id="Mouth" fill="#9C5A5B"></path>
                <path d="M59.6978193,55.6708235 L59.0513361,55.6688151 L58.0824626,55.6633158 L56.8034491,55.6514764 C48.2519756,55.554782 40.4131607,55.1122417 40.4131607,54.4207941 C40.4131607,53.6345093 40.8078069,52.1228293 42.7931934,50.8757249 C44.7785798,49.6286204 51.4578423,47.6708235 60.3439777,47.6708235 L60.7345433,47.6720852 C69.42418,47.728252 75.8917533,49.6469602 77.8479429,50.8757249 C79.8333294,52.1228293 80.2279755,53.6345093 80.2279755,54.4207941 C80.2279755,55.1207781 72.2315205,55.565671 63.5659044,55.6548993 L62.6047044,55.6633158 C62.067438,55.6671952 61.5286521,55.6697056 60.9900693,55.6708235 L59.6978193,55.6708235 Z" id="Tongue" fill="#ED8283"></path>
                <path d="M0,1.16235653 C2.52371713,0.387452177 5.37808606,7.10542736e-15 8.5631068,7.10542736e-15 C11.7481275,7.10542736e-15 14.6024965,0.387452177 17.1262136,1.16235653" id="Left-Eye" stroke="#000000" stroke-width="5" stroke-linecap="round" transform="translate(8.5631, 0.5812) scale(1, -1) translate(-8.5631, -0.5812)"></path>
                <path d="M99.9223301,1.16235653 C102.446485,0.387452177 105.300854,7.10542736e-15 108.485437,7.10542736e-15 C111.67002,7.10542736e-15 114.524389,0.387452177 117.048544,1.16235653" id="Right-Eye" stroke="#000000" stroke-width="5" stroke-linecap="round" transform="translate(108.4854, 0.5812) scale(1, -1) translate(-108.4854, -0.5812)"></path>
            </g>
        </g>
    </g>
</svg>