<?xml version="1.0" encoding="UTF-8"?>
<svg width="416px" height="416px" viewBox="0 0 416 416" version="1.1" xmlns="http://www.w3.org/2000/svg" xmlns:xlink="http://www.w3.org/1999/xlink">
    <title>Axolotl</title>
    <g id="Axolotl" stroke="none" stroke-width="1" fill="none" fill-rule="evenodd">
        <g id="High-HR" transform="translate(110.1781, 283.3091)">
            <path d="M16.5347843,11.9085214 C16.5347843,16.2152901 15.5889329,19.386876 12.7282542,19.5690079 L12.4639902,19.5772785 C9.4523465,19.5272748 8.4639902,16.3109961 8.4639902,11.9085214 C8.4639902,9.04610426 9.95778844,4.83975008 12.4993873,0 C15.0409861,4.83975008 16.5347843,9.04610426 16.5347843,11.9085214 Z" id="Big-Sweat" fill="#B2E2E2"></path>
            <path d="M4.5347843,23.1825267 C4.5347843,25.602396 4.00333326,27.3844335 2.39598695,27.486769 L2.2475034,27.4914161 C0.555333534,27.4633202 0,25.6561709 0,23.1825267 C0,21.5742036 0.839329155,19.2107547 2.26739215,16.4914161 C3.69545515,19.2107547 4.5347843,21.5742036 4.5347843,23.1825267 Z" id="Small-Sweat" fill="#B2E2E2"></path>
            <ellipse id="Left-Eye" fill="#000000" cx="49.3364966" cy="34.1824429" rx="9.51456311" ry="9.49152542"></ellipse>
            <ellipse id="Right-Eye" fill="#000000" cx="148.30737" cy="34.1824429" rx="9.51456311" ry="9.49152542"></ellipse>
            <path d="M98.4767959,88.6909174 L97.0803923,88.6851434 L94.9876254,88.6693328 L92.2249564,88.6352945 C73.7537736,88.3572982 56.8219335,87.0849948 56.8219335,85.097083 C56.8219335,82.8365142 57.6743692,78.4904343 61.962804,74.905009 C66.2512387,71.3195837 80.6784456,65.6909174 99.8724981,65.6909174 L100.71612,65.6945449 C119.485735,65.8560246 133.455693,71.3723105 137.681063,74.905009 C141.969498,78.4904343 142.821933,82.8365142 142.821933,85.097083 C142.821933,87.1095369 125.549591,88.388604 106.83186,88.6451355 L104.755668,88.6693328 C103.595172,88.680486 102.431395,88.6877036 101.268056,88.6909174 L98.4767959,88.6909174 Z" id="Mouth" fill="#9C5A5B"></path>
            <path d="M99.9954809,88.6909174 L99.3489977,88.6889091 L98.3801242,88.6834097 L97.1011108,88.6715703 C88.5496373,88.574876 80.7108224,88.1323357 80.7108224,87.4408881 C80.7108224,86.6546033 81.1054685,85.1429233 83.090855,83.8958189 C85.0762415,82.6487144 91.7555039,80.6909174 100.641639,80.6909174 L101.032205,80.6921791 C109.721842,80.748346 116.189415,82.6670542 118.145605,83.8958189 C120.130991,85.1429233 120.525637,86.6546033 120.525637,87.4408881 C120.525637,88.140872 112.529182,88.585765 103.863566,88.6749933 L102.902366,88.6834097 C102.3651,88.6872891 101.826314,88.6897996 101.287731,88.6909174 L99.9954809,88.6909174 Z" id="Tongue" fill="#ED8283"></path>
        </g>
    </g>
</svg>