<?xml version="1.0" encoding="UTF-8"?>
<svg width="416px" height="416px" viewBox="0 0 416 416" version="1.1" xmlns="http://www.w3.org/2000/svg" xmlns:xlink="http://www.w3.org/1999/xlink">
    <title>Axolotl</title>
    <g id="Axolotl" stroke="none" stroke-width="1" fill="none" fill-rule="evenodd">
        <g id="Expressions" transform="translate(110.1781, 283.3091)">
            <g id="Past-Bedtime" transform="translate(39.8219, 33.0201)">
                <path d="M111.767117,41.5978873 C111.873437,46.8211897 111.592345,50.080796 110.923843,51.3767064 C109.921089,53.3205719 107.412055,56.2093023 109.971263,58.4400629 C112.530471,60.6708235 116,58.1985132 116,53.9172784 C116,51.0631219 116,46.4496921 116,40.076989 L111.767117,41.5978873 Z" id="Drool" fill="#B2E2E2"></path>
                <path d="M0,40.076989 C0,37.8164202 1.16962113,33.4703404 7.05375255,29.884915 C12.937884,26.2994897 32.6639744,20.3121792 59,20.3121792 C85.3360256,20.3121792 105.148647,26.3522166 110.946247,29.884915 C116.830379,33.4703404 118,37.8164202 118,40.076989 C118,42.089443 84.6824681,43.4142921 59,43.6708235 C33.655819,43.3988849 0,42.0649008 0,40.076989 Z" id="Mouth" fill="#9C5A5B"></path>
                <path d="M59.2381232,43.6708235 L58.3510882,43.6688151 L57.0217036,43.6633158 L55.2667781,43.6514764 C43.533361,43.554782 32.7777778,43.1122417 32.7777778,42.4207941 C32.7777778,41.6345093 33.319269,40.1228293 36.043404,38.8757249 C38.7675389,37.6286204 47.9321083,35.6708235 60.1247127,35.6708235 L60.660605,35.6720852 C72.5835949,35.728252 81.4577071,37.6469602 84.1417812,38.8757249 C86.8659161,40.1228293 87.4074074,41.6345093 87.4074074,42.4207941 C87.4074074,43.1207781 76.4355273,43.565671 64.5454958,43.6548993 L63.22664,43.6633158 C62.4894605,43.6671952 61.7501961,43.6697056 61.0112105,43.6708235 L59.2381232,43.6708235 Z" id="Tongue" fill="#ED8283"></path>
                <path d="M0.475728155,1.16235653 C2.99944529,0.387452177 5.85381422,0 9.03883495,0 C12.2238557,0 15.0782246,0.387452177 17.6019417,1.16235653" id="Left-Eye" stroke="#000000" stroke-width="5" stroke-linecap="round" transform="translate(9.0388, 0.5812) scale(1, -1) translate(-9.0388, -0.5812)"></path>
                <path d="M100.398058,1.16235653 C102.922213,0.387452177 105.776582,0 108.961165,0 C112.145748,0 115.000117,0.387452177 117.524272,1.16235653" id="Right-Eye" stroke="#000000" stroke-width="5" stroke-linecap="round" transform="translate(108.9612, 0.5812) scale(1, -1) translate(-108.9612, -0.5812)"></path>
            </g>
        </g>
    </g>
</svg>