<?xml version="1.0" encoding="UTF-8"?>
<svg width="416px" height="416px" viewBox="0 0 416 416" version="1.1" xmlns="http://www.w3.org/2000/svg" xmlns:xlink="http://www.w3.org/1999/xlink">
    <title>Axolotl</title>
    <defs>
        <path d="M63.0090047,53.0084746 L61.6288383,53.0032026 L59.560406,52.9887668 L56.829861,52.9576884 C38.5734595,52.7038657 21.8385012,51.5421974 21.8385012,49.7271474 C21.8385012,47.6631498 22.6810249,43.69499 26.9195941,40.4213408 C31.1581633,37.1476916 45.417612,32.0084746 64.3884779,32.0084746 L65.22229,32.0117866 C83.7736539,32.1592246 97.5811709,37.1958335 101.757408,40.4213408 C105.995977,43.69499 106.838501,47.6631498 106.838501,49.7271474 C106.838501,51.5646054 89.7669995,52.7324493 71.2669166,52.9666736 L69.2148664,52.9887668 C68.0678652,52.9989503 66.9176199,53.0055402 65.7678083,53.0084746 L63.0090047,53.0084746 Z" id="path-1"></path>
    </defs>
    <g id="Axolotl" stroke="none" stroke-width="1" fill="none" fill-rule="evenodd">
        <g id="Expressions" transform="translate(110.1781, 283.3091)">
            <g id="69" transform="translate(35.4834, 33.6824)">
                <path d="M4.33850117,0.5 C4.33850117,6.57513225 8.59831617,11.5 13.8530643,11.5 C19.1078124,11.5 23.3676274,6.57513225 23.3676274,0.5" id="Left-Eye" fill="#000000"></path>
                <line x1="0" y1="0.5" x2="21.3482682" y2="0.5" id="Left-Lid" stroke="#000000" stroke-width="4" stroke-linecap="round"></line>
                <path d="M103.309375,0.5 C103.309375,6.57513225 107.56919,11.5 112.823938,11.5 C118.078686,11.5 122.338501,6.57513225 122.338501,0.5" id="Right-Eye" fill="#000000"></path>
                <line x1="99" y1="1" x2="120.348268" y2="1" id="Right-Lid" stroke="#000000" stroke-width="4" stroke-linecap="round"></line>
                <mask id="mask-2" fill="white">
                    <use xlink:href="#path-1" transform="translate(64.3385, 42.5085) scale(1, -1) translate(-64.3385, -42.5085)"></use>
                </mask>
                <use id="Mouth" fill="#9C5A5B" transform="translate(64.3385, 42.5085) scale(1, -1) translate(-64.3385, -42.5085)" xlink:href="#path-1"></use>
                <path d="M62.2942473,53.0084746 L61.3033586,53.0056358 L59.8183303,52.9978627 L57.857939,52.9811282 C44.7507789,52.8444544 32.7359371,52.2189407 32.7359371,51.2416061 C32.7359371,50.1302228 33.3408259,47.9935213 36.3839012,46.2307872 C39.4269766,44.468053 49.6645295,41.7007823 63.2846383,41.7007823 L63.8832726,41.7025656 C77.2022006,41.7819553 87.1152897,44.4939755 90.1136139,46.2307872 C93.1566893,47.9935213 93.7615781,50.1302228 93.7615781,51.2416061 C93.7615781,52.2310066 81.5051154,52.8598456 68.2230046,52.9859664 L66.7497377,52.9978627 C65.9262497,53.0033461 65.1004326,53.0068945 64.2749268,53.0084746 L62.2942473,53.0084746 Z" id="Tongue" fill="#ED8283" mask="url(#mask-2)"></path>
            </g>
        </g>
    </g>
</svg>