<?xml version="1.0" encoding="UTF-8"?>
<svg width="416px" height="416px" viewBox="0 0 416 416" version="1.1" xmlns="http://www.w3.org/2000/svg" xmlns:xlink="http://www.w3.org/1999/xlink">
    <title>Axolotl</title>
    <defs>
        <path d="M167.065452,186.989467 C112.938817,186.295449 61.0091995,151.420248 54.9238159,116.556914 L54.3274342,116.363574 C34.3903064,111.10462 23.9229397,106.112685 25.4939637,101.980209 C27.1341734,97.6657447 37.4409254,98.9023246 54.3274342,104.937959 L54.3274342,104.581586 C14.9096149,72.8320795 -4.52924698,53.0391821 0.893547639,48.4117307 C6.2498409,43.8410271 27.9343058,52.5098798 61.7667206,72.0025641 C31.6382609,27.7727112 20.9693659,3.8031838 29.2082066,1.61681831 C37.5412495,-0.594545889 52.9326867,14.058493 76.051546,42.9689468 C93.8557277,15.321475 123.785809,0.964734213 168.70628,0 C213.626751,0.964734213 243.307398,15.321475 261.11158,42.9689468 C283.465409,15.1966147 299.788537,-0.550318605 307.954919,1.61681831 C316.19376,3.8031838 305.524865,27.7727112 275.396405,72.0025641 C309.22882,52.5098798 330.913285,43.8410271 336.269578,48.4117307 C341.803042,53.1336199 323.991746,71.9756961 282.835691,104.937959 L282.835691,104.581586 C299.125726,98.8550819 310.061756,97.752034 311.669162,101.980209 C313.288774,106.240494 303.478824,111.099396 282.23931,116.556914 C276.092458,151.772403 223.419983,187 168.70628,187 L167.065452,186.989467 Z" id="path-1"></path>
    </defs>
    <g id="Axolotl" stroke="none" stroke-width="1" fill="none" fill-rule="evenodd">
        <g id="Head" transform="translate(39.2903, 222)">
            <g id="Gills" transform="translate(4.9111, 17)" fill="#C98B8C">
                <path d="M270.798568,55 C282.546692,54.078022 284.791077,50.1380854 277.531723,43.1801904 C277.531723,43.1801904 294.551969,44.5710946 286.041846,32.4659718 C286.041846,32.4659718 302.637319,28.8998713 293.013431,20.3608491 C293.013431,20.3608491 307.961192,15.606956 298.024458,9.92233013 C298.024458,9.92233013 311.396984,4.11565384 303.064844,0" id="Left-Top"></path>
                <path d="M284.871355,94.3244621 C296.680648,93.3956565 298.936718,89.4265431 291.639568,82.4171222 C291.639568,82.4171222 308.748432,83.8183265 300.194,71.6235606 C300.194,71.6235606 316.875881,68.0310518 307.201884,59.4287947 C307.201884,59.4287947 322.227473,54.6396972 312.239002,48.9129744 C312.239002,48.9129744 325.681155,43.0632975 317.305631,38.9171656" id="Left-Middle" transform="translate(302.4625, 66.6208) rotate(18) translate(-302.4625, -66.6208)"></path>
                <path d="M280.839454,108.097922 C280.839454,108.097922 293.627669,109.145268 287.233562,100.030152 C287.233562,100.030152 299.702623,97.3448903 292.471684,90.9150355 C292.471684,90.9150355 303.702732,87.3353702 296.236735,83.0548662" id="Left-Bottom" transform="translate(289.8188, 95.5947) rotate(40) translate(-289.8188, -95.5947)"></path>
                <path d="M21.7985684,56 C33.546692,55.078022 35.7910771,51.1380854 28.5317235,44.1801904 C28.5317235,44.1801904 45.5519688,45.5710946 37.0418461,33.4659718 C37.0418461,33.4659718 53.6373192,29.8998713 44.0134311,21.3608491 C44.0134311,21.3608491 58.9611918,16.606956 49.0244585,10.9223301 C49.0244585,10.9223301 62.3969841,5.11565384 54.0648437,1" id="Right-Top" transform="translate(39.2986, 28.5) scale(-1, 1) translate(-39.2986, -28.5)"></path>
                <path d="M7.69992755,95.2835328 C19.5092202,94.3547271 21.7652911,90.3856138 14.4681402,83.3761928 C14.4681402,83.3761928 31.577005,84.7773972 23.0225726,72.5826313 C23.0225726,72.5826313 39.7044535,68.9901225 30.0304566,60.3878654 C30.0304566,60.3878654 45.0560459,55.5987678 35.0675749,49.8720451 C35.0675749,49.8720451 48.5097274,44.0223681 40.134204,39.8762363" id="Right-Middle" transform="translate(25.291, 67.5799) scale(-1, 1) rotate(18) translate(-25.291, -67.5799)"></path>
                <path d="M31.4810765,110.016063 C31.4810765,110.016063 44.2692918,111.063409 37.8751841,101.948293 C37.8751841,101.948293 50.3442455,99.2630316 43.1133066,92.8331769 C43.1133066,92.8331769 54.3443541,89.2535115 46.8783579,84.9730076" id="Right-Bottom" transform="translate(40.4604, 97.5128) scale(-1, 1) rotate(40) translate(-40.4604, -97.5128)"></path>
            </g>
            <mask id="mask-2" fill="white">
                <use xlink:href="#path-1"></use>
            </mask>
            <use id="Face" fill="#FBDBDB" xlink:href="#path-1"></use>
        </g>
    </g>
</svg>