<?xml version="1.0" encoding="UTF-8"?>
<svg width="416px" height="416px" viewBox="0 0 416 416" version="1.1" xmlns="http://www.w3.org/2000/svg" xmlns:xlink="http://www.w3.org/1999/xlink">
    <title>Axolotl</title>
    <defs>
        <path d="M174.289147,194.969433 C117.852603,194.245797 63.7068368,157.882261 57.3617532,121.531099 L55.4007961,121.020646 C34.6128311,115.537262 25.0378831,110.641152 26.6759522,106.332318 C28.3861595,101.83373 39.1327626,103.123082 56.7399203,109.416294 L54.1943837,107.371823 C13.0943689,74.2673741 -4.62852959,55.3026832 1.02568831,50.4777505 C6.61056684,45.7119875 29.2204384,54.7507924 64.4966858,75.0753468 C33.0824635,28.9579399 21.9582626,3.96548853 30.5487042,1.68581768 C39.2373681,-0.61991874 55.2856506,14.6584535 79.3911308,44.8026904 C97.955124,15.9753346 129.162502,1.00590523 176,-1.42108547e-14 C222.837498,1.00590523 253.784796,15.9753346 272.34879,44.8026904 L272.34879,44.8026904 C295.656591,15.8451457 312.676325,-0.573804012 321.191216,1.68581768 C329.781658,3.96548853 318.657457,28.9579399 287.243234,75.0753468 C322.519482,54.7507924 345.129353,45.7119875 350.714232,50.4777505 C356.483842,55.4011512 337.912431,75.0473322 295,109.416294 L296.048179,109.044712 C313.033407,103.073823 323.387965,101.923702 325.063968,106.332318 C326.752699,110.774415 316.524099,115.840675 294.378167,121.531099 C287.968992,158.249445 233.048666,194.980415 176,194.980415 L174.289147,194.969433 Z" id="path-1"></path>
    </defs>
    <g id="Axolotl" stroke="none" stroke-width="1" fill="none" fill-rule="evenodd">
        <g id="Head" transform="translate(32, 214.0196)">
            <g id="Gills" transform="translate(5.2147, 17.3035)" fill="#C98B8C">
                <path d="M282.02853,57.7718593 C294.341796,56.8034159 296.694147,52.6649166 289.085583,45.3563615 C289.085583,45.3563615 306.924586,46.8173637 298.005084,34.1021737 C298.005084,34.1021737 315.398881,30.3563509 305.312037,21.3869838 C305.312037,21.3869838 320.978859,16.3935066 310.564119,10.4223902 C310.564119,10.4223902 324.579929,4.32307227 315.846972,0" id="Left-Top"></path>
                <path d="M297.02853,98.7718593 C309.341796,97.8034159 311.694147,93.6649166 304.085583,86.3563615 C304.085583,86.3563615 321.924586,87.8173637 313.005084,75.1021737 C313.005084,75.1021737 330.398881,71.3563509 320.312037,62.3869838 C320.312037,62.3869838 335.978859,57.3935066 325.564119,51.4223902 C325.564119,51.4223902 339.579929,45.3230723 330.846972,41" id="Left-Middle" transform="translate(315.3704, 69.8859) rotate(18) translate(-315.3704, -69.8859)"></path>
                <path d="M292.824563,113.133116 C292.824563,113.133116 306.158529,114.225158 299.491546,104.721045 C299.491546,104.721045 312.492737,101.921187 304.953211,95.2169319 C304.953211,95.2169319 316.663555,91.4845007 308.87894,87.0213219" id="Left-Bottom" transform="translate(302.1871, 100.0963) rotate(40) translate(-302.1871, -100.0963)"></path>
                <path d="M23.0285298,58.7718593 C35.3417961,57.8034159 37.6941471,53.6649166 30.0855828,46.3563615 C30.0855828,46.3563615 47.9245858,47.8173637 39.0050843,35.1021737 C39.0050843,35.1021737 56.3988815,31.3563509 46.3120369,22.3869838 C46.3120369,22.3869838 61.9788585,17.3935066 51.5641193,11.4223902 C51.5641193,11.4223902 65.5799294,5.32307227 56.846972,1" id="Right-Top" transform="translate(41.3704, 29.8859) scale(-1, 1) translate(-41.3704, -29.8859)"></path>
                <path d="M8.02852979,99.7718593 C20.3417961,98.8034159 22.6941471,94.6649166 15.0855828,87.3563615 C15.0855828,87.3563615 32.9245858,88.8173637 24.0050843,76.1021737 C24.0050843,76.1021737 41.3988815,72.3563509 31.3120369,63.3869838 C31.3120369,63.3869838 46.9788585,58.3935066 36.5641193,52.4223902 C36.5641193,52.4223902 50.5799294,46.3230723 41.846972,42" id="Right-Middle" transform="translate(26.3704, 70.8859) scale(-1, 1) rotate(18) translate(-26.3704, -70.8859)"></path>
                <path d="M32.8245634,115.133116 C32.8245634,115.133116 46.1585289,116.225158 39.4915461,106.721045 C39.4915461,106.721045 52.4927374,103.921187 44.9532108,97.2169319 C44.9532108,97.2169319 56.6635546,93.4845007 48.8789395,89.0213219" id="Right-Bottom" transform="translate(42.1871, 102.0963) scale(-1, 1) rotate(40) translate(-42.1871, -102.0963)"></path>
            </g>
            <mask id="mask-2" fill="white">
                <use xlink:href="#path-1"></use>
            </mask>
            <use id="Face" fill="#FBDBDB" xlink:href="#path-1"></use>
            <g id="Markings" mask="url(#mask-2)" fill="#C98B8C">
                <g transform="translate(82.0551, -13.01)" id="Oval">
                    <ellipse transform="translate(36.9449, 29.9904) rotate(-30) translate(-36.9449, -29.9904)" cx="36.9448637" cy="29.9903811" rx="34" ry="15"></ellipse>
                    <ellipse transform="translate(56.561, 44.7358) rotate(-37) translate(-56.561, -44.7358)" cx="56.5609987" cy="44.7358435" rx="10" ry="5.51470588"></ellipse>
                    <ellipse transform="translate(40.5264, 51.2158) rotate(-14) translate(-40.5264, -51.2158)" cx="40.526397" cy="51.2157535" rx="4.5" ry="3.5"></ellipse>
                </g>
            </g>
        </g>
    </g>
</svg>