<?xml version="1.0" encoding="UTF-8"?>
<svg xmlns="http://www.w3.org/2000/svg" xmlns:xlink="http://www.w3.org/1999/xlink" width="400" height="400" viewBox="0 0 400 400">
<path fill-rule="evenodd" fill="rgb(69.803922%, 88.627451%, 88.627451%)" fill-opacity="1" d="M 131.453125 283.863281 C 131.453125 288.003906 130.546875 291.054688 127.792969 291.230469 L 127.539062 291.238281 C 124.644531 291.1875 123.695312 288.097656 123.695312 283.863281 C 123.695312 281.109375 125.128906 277.066406 127.574219 272.414062 C 130.019531 277.066406 131.453125 281.109375 131.453125 283.863281 Z M 131.453125 283.863281 "/>
<path fill-rule="evenodd" fill="rgb(69.803922%, 88.627451%, 88.627451%)" fill-opacity="1" d="M 119.917969 294.703125 C 119.917969 297.03125 119.40625 298.742188 117.859375 298.84375 L 117.71875 298.847656 C 116.089844 298.820312 115.554688 297.082031 115.554688 294.703125 C 115.554688 293.15625 116.363281 290.882812 117.734375 288.269531 C 119.109375 290.882812 119.917969 293.15625 119.917969 294.703125 Z M 119.917969 294.703125 "/>
<path fill-rule="evenodd" fill="rgb(0%, 0%, 0%)" fill-opacity="1" d="M 162.527344 305.28125 C 162.527344 310.320312 158.433594 314.40625 153.378906 314.40625 C 148.328125 314.40625 144.230469 310.320312 144.230469 305.28125 C 144.230469 300.238281 148.328125 296.152344 153.378906 296.152344 C 158.433594 296.152344 162.527344 300.238281 162.527344 305.28125 Z M 162.527344 305.28125 "/>
<path fill-rule="evenodd" fill="rgb(0%, 0%, 0%)" fill-opacity="1" d="M 257.691406 305.28125 C 257.691406 310.320312 253.597656 314.40625 248.542969 314.40625 C 243.492188 314.40625 239.394531 310.320312 239.394531 305.28125 C 239.394531 300.238281 243.492188 296.152344 248.542969 296.152344 C 253.597656 296.152344 257.691406 300.238281 257.691406 305.28125 Z M 257.691406 305.28125 "/>
<path fill-rule="evenodd" fill="rgb(94.117647%, 88.235294%, 56.862745%)" fill-opacity="1" d="M 175.03125 349.445312 C 178.855469 353.617188 189.277344 358.019531 200 358.019531 C 210.714844 358.019531 221.023438 353.628906 225.042969 349.445312 "/>
<path fill-rule="evenodd" fill="rgb(94.117647%, 88.235294%, 56.862745%)" fill-opacity="1" d="M 174.046875 347.441406 C 174.441406 341.039062 174.472656 324.039062 200.480469 324.039062 C 226.488281 324.039062 225.285156 341.160156 225.960938 347.441406 "/>
<path fill-rule="evenodd" fill="rgb(51.372549%, 19.607843%, 9.803922%)" fill-opacity="1" d="M 199.1875 351.921875 L 198.34375 351.917969 L 197.082031 351.902344 L 195.414062 351.871094 C 184.261719 351.601562 174.039062 350.378906 174.039062 348.46875 C 174.039062 346.292969 174.554688 342.113281 177.140625 338.667969 C 179.730469 335.21875 188.441406 329.808594 200.03125 329.808594 L 200.539062 329.8125 C 211.871094 329.964844 220.304688 335.269531 222.859375 338.667969 C 225.445312 342.113281 225.960938 346.292969 225.960938 348.46875 C 225.960938 350.402344 215.535156 351.632812 204.230469 351.878906 L 202.980469 351.902344 C 202.277344 351.914062 201.574219 351.921875 200.875 351.921875 Z M 199.1875 351.921875 "/>
<path fill-rule="evenodd" fill="rgb(86.666667%, 47.45098%, 35.294118%)" fill-opacity="1" d="M 200.105469 351.921875 L 199.714844 351.921875 L 199.128906 351.914062 L 198.355469 351.90625 C 193.195312 351.8125 188.460938 351.386719 188.460938 350.722656 C 188.460938 349.964844 188.699219 348.511719 189.898438 347.3125 C 191.097656 346.113281 195.128906 344.230469 200.496094 344.230469 L 200.730469 344.230469 C 205.976562 344.285156 209.882812 346.132812 211.0625 347.3125 C 212.261719 348.511719 212.5 349.964844 212.5 350.722656 C 212.5 351.394531 207.671875 351.820312 202.441406 351.90625 L 201.859375 351.914062 C 201.535156 351.917969 201.210938 351.921875 200.886719 351.921875 Z M 200.105469 351.921875 "/>
</svg>
