<?xml version="1.0" encoding="UTF-8"?>
<svg xmlns="http://www.w3.org/2000/svg" xmlns:xlink="http://www.w3.org/1999/xlink" width="400" height="400" viewBox="0 0 400 400">
<path fill-rule="evenodd" fill="rgb(39.215686%, 39.215686%, 39.215686%)" fill-opacity="1" d="M 88.296875 310.886719 C 88.296875 272.925781 118.269531 189.441406 200.480469 189.421875 L 202.195312 189.441406 C 283.992188 191.261719 312.664062 273.304688 312.664062 310.886719 C 312.664062 348.847656 257.707031 389.421875 200.480469 389.421875 C 143.253906 389.421875 88.296875 348.847656 88.296875 310.886719 Z M 88.296875 310.886719 "/>
<path fill-rule="evenodd" fill="rgb(100%, 100%, 100%)" fill-opacity="1" d="M 144.230469 250.199219 C 186.523438 250.199219 192.746094 291.453125 184.617188 338.789062 L 217.308594 338.789062 C 209.820312 291.453125 212.835938 250.199219 255.128906 250.199219 C 318.570312 250.199219 311.398438 379.046875 199.363281 379.046875 C 90.527344 376.519531 81.425781 250.199219 144.230469 250.199219 Z M 144.230469 250.199219 "/>
</svg>
