<?xml version="1.0" encoding="UTF-8"?>
<svg xmlns="http://www.w3.org/2000/svg" xmlns:xlink="http://www.w3.org/1999/xlink" width="300" height="300" viewBox="0 0 300 300">
<path fill-rule="evenodd" fill="rgb(94.117647%, 88.235294%, 56.862745%)" fill-opacity="1" d="M 214.3125 268.992188 C 218.671875 269.9375 216.890625 285.441406 215.488281 288.085938 C 213.753906 289.808594 204.796875 306.492188 150.570312 306.492188 C 96.34375 306.492188 86.917969 289.4375 85.183594 287.710938 C 83.777344 285.066406 82.09375 269.9375 86.453125 268.992188 C 100.769531 273.457031 122.144531 275.6875 150.570312 275.6875 C 178.996094 275.6875 200.242188 273.457031 214.3125 268.992188 Z M 214.3125 268.992188 "/>
<path fill-rule="evenodd" fill="rgb(72.54902%, 64.705882%, 22.352941%)" fill-opacity="1" d="M 198.871094 299.566406 C 200.140625 295.859375 200.660156 291.636719 200.425781 286.902344 C 200.191406 282.164062 199.496094 277.398438 198.339844 272.597656 C 195.886719 272.941406 194.664062 273.113281 194.664062 273.113281 C 195.253906 277.394531 195.707031 281.808594 195.707031 288.070312 C 195.707031 294.332031 194.84375 297.484375 193.855469 301.207031 C 194.984375 300.878906 195.882812 300.613281 196.550781 300.398438 C 197.21875 300.1875 197.992188 299.910156 198.871094 299.566406 Z M 198.871094 299.566406 "/>
<path fill-rule="evenodd" fill="rgb(72.54902%, 64.705882%, 22.352941%)" fill-opacity="1" d="M 168.613281 305.492188 C 170.261719 299.980469 170.96875 294.855469 170.734375 290.121094 C 170.5 285.386719 169.832031 280.402344 168.734375 275.175781 C 166.175781 275.261719 164.894531 275.308594 164.894531 275.308594 C 165.484375 279.589844 165.71875 284.605469 165.71875 290.867188 C 165.71875 297.128906 165.265625 302.046875 164.277344 305.769531 C 165.183594 305.71875 165.863281 305.675781 166.3125 305.648438 C 166.828125 305.613281 167.59375 305.5625 168.613281 305.492188 Z M 168.613281 305.492188 "/>
<path fill-rule="evenodd" fill="rgb(72.54902%, 64.705882%, 22.352941%)" fill-opacity="1" d="M 132.996094 305.492188 C 131.351562 299.980469 130.644531 294.855469 130.878906 290.121094 C 131.113281 285.386719 131.777344 280.402344 132.875 275.175781 C 135.4375 275.261719 136.71875 275.308594 136.71875 275.308594 C 136.125 279.589844 135.894531 284.605469 135.894531 290.867188 C 135.894531 297.128906 136.34375 302.046875 137.335938 305.769531 C 136.429688 305.71875 135.75 305.675781 135.296875 305.648438 C 134.785156 305.613281 134.019531 305.5625 132.996094 305.492188 Z M 132.996094 305.492188 "/>
<path fill-rule="evenodd" fill="rgb(72.54902%, 64.705882%, 22.352941%)" fill-opacity="1" d="M 102.574219 299.566406 C 101.300781 295.859375 100.78125 291.636719 101.015625 286.902344 C 101.25 282.164062 101.945312 277.398438 103.101562 272.597656 C 105.554688 272.941406 106.78125 273.113281 106.78125 273.113281 C 106.1875 277.394531 105.734375 281.808594 105.734375 288.070312 C 105.734375 294.332031 106.597656 297.484375 107.589844 301.207031 C 106.457031 300.878906 105.558594 300.613281 104.890625 300.398438 C 104.222656 300.1875 103.449219 299.910156 102.574219 299.566406 Z M 102.574219 299.566406 "/>
<path fill-rule="evenodd" fill="rgb(72.54902%, 64.705882%, 22.352941%)" fill-opacity="1" d="M 155.929688 132.375 C 171.679688 104.042969 195.933594 98.585938 228.695312 116.007812 C 234.289062 118.980469 247.59375 127.101562 247.851562 133.902344 C 248.113281 140.703125 238.125 138.09375 233.121094 143.046875 C 229.789062 146.34375 225.902344 154.402344 221.46875 167.222656 C 213.355469 166.183594 201.75 161.648438 186.652344 153.621094 C 171.554688 145.59375 161.3125 138.511719 155.929688 132.375 Z M 155.929688 132.375 "/>
<path fill-rule="evenodd" fill="rgb(94.117647%, 88.235294%, 56.862745%)" fill-opacity="1" d="M 221.46875 167.222656 C 223.425781 168.929688 217.996094 176.945312 216.503906 178.011719 C 215.113281 178.488281 205.65625 185.191406 177.859375 170.410156 C 150.066406 155.632812 150.207031 143.710938 149.820312 142.292969 C 149.871094 140.460938 153.417969 131.707031 155.929688 132.375 C 161.964844 138.726562 172.269531 145.773438 186.84375 153.519531 C 201.414062 161.269531 212.953125 165.835938 221.46875 167.222656 Z M 221.46875 167.222656 "/>
<path fill-rule="evenodd" fill="rgb(72.54902%, 64.705882%, 22.352941%)" fill-opacity="1" d="M 204.183594 179.277344 C 205.902344 177.59375 207.390625 175.421875 208.648438 172.769531 C 209.910156 170.117188 210.945312 167.324219 211.757812 164.386719 C 210.417969 163.917969 209.75 163.683594 209.75 163.683594 C 208.804688 166.183594 207.75 168.71875 205.929688 172.144531 C 204.109375 175.566406 202.757812 177.058594 201.171875 178.828125 C 201.839844 178.953125 202.371094 179.050781 202.769531 179.113281 C 203.167969 179.175781 203.640625 179.230469 204.183594 179.277344 Z M 204.183594 179.277344 "/>
<path fill-rule="evenodd" fill="rgb(72.54902%, 64.705882%, 22.352941%)" fill-opacity="1" d="M 187.1875 174.398438 C 189.621094 171.828125 191.46875 169.214844 192.726562 166.5625 C 193.984375 163.910156 195.097656 161.003906 196.066406 157.851562 C 194.746094 157.210938 194.085938 156.894531 194.085938 156.894531 C 193.140625 159.394531 191.800781 162.199219 189.976562 165.625 C 188.15625 169.046875 186.5 171.617188 184.917969 173.386719 C 185.390625 173.601562 185.746094 173.761719 185.980469 173.867188 C 186.25 173.988281 186.652344 174.164062 187.1875 174.398438 Z M 187.1875 174.398438 "/>
<path fill-rule="evenodd" fill="rgb(72.54902%, 64.705882%, 22.352941%)" fill-opacity="1" d="M 169.210938 164.839844 C 169.980469 161.386719 171.117188 158.394531 172.609375 155.867188 C 174.105469 153.339844 175.890625 150.792969 177.964844 148.226562 C 179.234375 148.964844 179.867188 149.332031 179.867188 149.332031 C 178.320312 151.515625 176.746094 154.195312 174.925781 157.621094 C 173.105469 161.046875 171.902344 163.855469 171.320312 166.15625 C 170.875 165.886719 170.546875 165.679688 170.324219 165.542969 C 170.078125 165.386719 169.707031 165.152344 169.210938 164.839844 Z M 169.210938 164.839844 "/>
<path fill-rule="evenodd" fill="rgb(72.54902%, 64.705882%, 22.352941%)" fill-opacity="1" d="M 155.578125 153.433594 C 156.015625 151.066406 156.980469 148.617188 158.476562 146.089844 C 159.96875 143.5625 161.707031 141.140625 163.6875 138.828125 C 164.824219 139.671875 165.394531 140.097656 165.394531 140.097656 C 163.851562 142.277344 162.335938 144.570312 160.515625 147.996094 C 158.695312 151.421875 158.214844 153.375 157.632812 155.679688 C 157.15625 155.199219 156.78125 154.808594 156.503906 154.511719 C 156.230469 154.21875 155.921875 153.859375 155.578125 153.433594 Z M 155.578125 153.433594 "/>
</svg>
