<?xml version="1.0" encoding="UTF-8"?>
<svg xmlns="http://www.w3.org/2000/svg" xmlns:xlink="http://www.w3.org/1999/xlink" width="300" height="300" viewBox="0 0 300 300">
<path fill-rule="evenodd" fill="rgb(69.803922%, 88.627451%, 88.627451%)" fill-opacity="1" d="M 98.589844 212.898438 C 98.589844 216.003906 97.910156 218.289062 95.847656 218.421875 L 95.65625 218.425781 C 93.484375 218.390625 92.769531 216.070312 92.769531 212.898438 C 92.769531 210.832031 93.847656 207.800781 95.679688 204.308594 C 97.515625 207.800781 98.589844 210.832031 98.589844 212.898438 Z M 98.589844 212.898438 "/>
<path fill-rule="evenodd" fill="rgb(69.803922%, 88.627451%, 88.627451%)" fill-opacity="1" d="M 89.9375 221.027344 C 89.9375 222.773438 89.554688 224.058594 88.394531 224.132812 L 88.289062 224.136719 C 87.066406 224.113281 86.667969 222.8125 86.667969 221.027344 C 86.667969 219.867188 87.273438 218.164062 88.300781 216.203125 C 89.332031 218.164062 89.9375 219.867188 89.9375 221.027344 Z M 89.9375 221.027344 "/>
<path fill-rule="evenodd" fill="rgb(0%, 0%, 0%)" fill-opacity="1" d="M 121.894531 228.960938 C 121.894531 232.742188 118.824219 235.804688 115.035156 235.804688 C 111.246094 235.804688 108.171875 232.742188 108.171875 228.960938 C 108.171875 225.179688 111.246094 222.117188 115.035156 222.117188 C 118.824219 222.117188 121.894531 225.179688 121.894531 228.960938 Z M 121.894531 228.960938 "/>
<path fill-rule="evenodd" fill="rgb(0%, 0%, 0%)" fill-opacity="1" d="M 193.269531 228.960938 C 193.269531 232.742188 190.199219 235.804688 186.40625 235.804688 C 182.617188 235.804688 179.546875 232.742188 179.546875 228.960938 C 179.546875 225.179688 182.617188 222.117188 186.40625 222.117188 C 190.199219 222.117188 193.269531 225.179688 193.269531 228.960938 Z M 193.269531 228.960938 "/>
<path fill-rule="evenodd" fill="rgb(51.372549%, 19.607843%, 9.803922%)" fill-opacity="1" d="M 149.390625 263.941406 L 148.757812 263.9375 L 147.8125 263.925781 L 146.558594 263.902344 C 138.195312 263.703125 130.527344 262.785156 130.527344 261.351562 C 130.527344 259.71875 130.914062 256.585938 132.855469 254 C 134.796875 251.414062 141.332031 247.355469 150.023438 247.355469 L 150.40625 247.359375 C 158.902344 247.476562 165.230469 251.453125 167.144531 254 C 169.085938 256.585938 169.472656 259.71875 169.472656 261.351562 C 169.472656 262.800781 161.648438 263.722656 153.175781 263.910156 L 152.234375 263.925781 C 151.707031 263.933594 151.179688 263.941406 150.65625 263.941406 Z M 149.390625 263.941406 "/>
<path fill-rule="evenodd" fill="rgb(86.666667%, 47.45098%, 35.294118%)" fill-opacity="1" d="M 150.078125 263.941406 L 149.785156 263.941406 L 149.347656 263.9375 L 148.769531 263.929688 C 144.894531 263.859375 141.347656 263.539062 141.347656 263.039062 C 141.347656 262.472656 141.523438 261.382812 142.425781 260.484375 C 143.324219 259.585938 146.347656 258.171875 150.371094 258.171875 L 150.546875 258.175781 C 154.484375 258.214844 157.410156 259.597656 158.296875 260.484375 C 159.195312 261.382812 159.375 262.472656 159.375 263.039062 C 159.375 263.546875 155.753906 263.867188 151.832031 263.929688 L 151.394531 263.9375 C 151.152344 263.941406 150.90625 263.941406 150.664062 263.941406 Z M 150.078125 263.941406 "/>
</svg>
