<?xml version="1.0" encoding="UTF-8"?>
<svg xmlns="http://www.w3.org/2000/svg" xmlns:xlink="http://www.w3.org/1999/xlink" width="300" height="300" viewBox="0 0 300 300">
<path fill="none" stroke-width="5" stroke-linecap="round" stroke-linejoin="miter" stroke="rgb(0%, 0%, 0%)" stroke-opacity="1" stroke-miterlimit="4" d="M -0.000801468 1.163288 C 2.523365 0.388704 5.377949 -0.00129552 8.562949 -0.00129552 C 11.747949 -0.00129552 14.602532 0.388704 17.126699 1.163288 " transform="matrix(0.721154, 0, 0, 0.721154, 108.516203, 228.122028)"/>
<path fill="none" stroke-width="5" stroke-linecap="round" stroke-linejoin="miter" stroke="rgb(0%, 0%, 0%)" stroke-opacity="1" stroke-miterlimit="4" d="M 99.920449 1.163288 C 102.444615 0.388704 105.299199 -0.00129552 108.484199 -0.00129552 C 111.669199 -0.00129552 114.523782 0.388704 117.047949 1.163288 " transform="matrix(0.721154, 0, 0, 0.721154, 108.516203, 228.122028)"/>
<path fill="none" stroke-width="4" stroke-linecap="round" stroke-linejoin="miter" stroke="rgb(51.372549%, 19.607843%, 9.803922%)" stroke-opacity="1" stroke-miterlimit="4" d="M 34.427532 33.944954 C 45.217532 39.637871 49.577949 30.012454 58.526282 30.012454 C 67.469199 30.012454 71.748365 39.637871 82.619615 33.944954 " transform="matrix(0.721154, 0, 0, 0.721154, 108.516203, 228.122028)"/>
</svg>
