<?xml version="1.0" encoding="UTF-8"?>
<svg xmlns="http://www.w3.org/2000/svg" xmlns:xlink="http://www.w3.org/1999/xlink" width="300" height="300" viewBox="0 0 300 300">
<path fill-rule="evenodd" fill="rgb(76.862745%, 49.803922%, 29.019608%)" fill-opacity="1" d="M 120.390625 147.726562 C 85.578125 125.164062 65.300781 115.324219 59.554688 118.207031 C 50.933594 122.535156 59.453125 205.9375 68.976562 215.65625 "/>
<path fill-rule="evenodd" fill="rgb(76.862745%, 49.803922%, 29.019608%)" fill-opacity="1" d="M 180.246094 147.726562 C 215.40625 125.164062 235.859375 115.324219 241.605469 118.207031 C 250.226562 122.535156 241.707031 205.9375 232.183594 215.65625 "/>
<path fill-rule="evenodd" fill="rgb(98.431373%, 85.882353%, 85.882353%)" fill-opacity="1" d="M 119.46875 158.636719 C 90.25 139.695312 73.226562 131.4375 68.402344 133.855469 C 61.167969 137.488281 68.316406 207.496094 76.3125 215.65625 "/>
<path fill-rule="evenodd" fill="rgb(98.431373%, 85.882353%, 85.882353%)" fill-opacity="1" d="M 181.25 158.636719 C 210.765625 139.695312 227.933594 131.4375 232.757812 133.855469 C 239.992188 137.488281 232.84375 207.496094 224.847656 215.65625 "/>
<path fill-rule="evenodd" fill="rgb(76.862745%, 49.803922%, 29.019608%)" fill-opacity="1" d="M 66.222656 233.164062 C 66.222656 204.695312 88.703125 142.082031 150.359375 142.066406 L 151.648438 142.082031 C 212.992188 143.445312 234.496094 204.980469 234.496094 233.164062 C 234.496094 261.636719 193.28125 292.066406 150.359375 292.066406 C 107.441406 292.066406 66.222656 261.636719 66.222656 233.164062 Z M 66.222656 233.164062 "/>
<path fill="none" stroke-width="2" stroke-linecap="round" stroke-linejoin="round" stroke="rgb(100%, 100%, 100%)" stroke-opacity="1" stroke-miterlimit="4" d="M 296.976533 173.086336 C 275.46695 165.026336 242.793617 164.61467 223.997783 172.165503 " transform="matrix(0.721154, 0, 0, 0.721154, 43.256106, 117.717185)"/>
<path fill="none" stroke-width="2" stroke-linecap="round" stroke-linejoin="round" stroke="rgb(100%, 100%, 100%)" stroke-opacity="1" stroke-miterlimit="4" d="M 279.979033 193.886336 C 274.91445 188.139253 250.290283 184.721336 224.9782 186.254253 " transform="matrix(0.721154, 0, 0, 0.721154, 43.256106, 117.717185)"/>
<path fill="none" stroke-width="2" stroke-linecap="round" stroke-linejoin="round" stroke="rgb(100%, 100%, 100%)" stroke-opacity="1" stroke-miterlimit="4" d="M 72.974234 173.086336 C 51.464651 165.026336 18.791317 164.61467 0.000900726 172.165503 " transform="matrix(-0.721154, 0, 0, 0.721154, 95.883462, 117.717185)"/>
<path fill="none" stroke-width="2" stroke-linecap="round" stroke-linejoin="round" stroke="rgb(100%, 100%, 100%)" stroke-opacity="1" stroke-miterlimit="4" d="M 72.978335 193.886336 C 67.913751 188.139253 43.289585 184.721336 17.977501 186.254253 " transform="matrix(-0.721154, 0, 0, 0.721154, 108.847357, 117.717185)"/>
<path fill-rule="evenodd" fill="rgb(98.431373%, 85.882353%, 85.882353%)" fill-opacity="1" stroke-width="3" stroke-linecap="butt" stroke-linejoin="round" stroke="rgb(98.431373%, 85.882353%, 85.882353%)" stroke-opacity="1" stroke-miterlimit="4" d="M 148.516533 168.766336 L 154.019867 171.76717 L 143.018617 171.76717 Z M 148.516533 168.766336 " transform="matrix(0.721154, 0, 0, -0.721154, 43.256106, 363.29243)"/>
</svg>
