<?xml version="1.0" encoding="UTF-8"?>
<svg width="416px" height="416px" viewBox="0 0 416 416" version="1.1" xmlns="http://www.w3.org/2000/svg" xmlns:xlink="http://www.w3.org/1999/xlink">
    <title>Artboard</title>
    <g id="Artboard" stroke="none" stroke-width="1" fill="none" fill-rule="evenodd">
        <g id="Ashley" transform="translate(87, 128.9813)">
            <g id="Cold" transform="translate(35, 0)">
                <path d="M169.057445,235.254799 C174.70033,236.562521 172.397743,257.963434 170.578918,261.613322 C168.338417,263.994291 156.746105,287.018713 86.5824762,287.018713 C16.4188473,287.018713 4.22160707,263.476923 1.9811061,261.095953 C0.162281576,257.446065 -2.02043897,236.562521 3.62244602,235.254799 C22.1480892,241.417777 49.8014326,244.499266 86.5824762,244.499266 C123.36352,244.499266 150.855176,241.417777 169.057445,235.254799 Z" id="Base" fill="#5B9667"></path>
                <g id="Stripes" transform="translate(22.8743, 240.4637)" fill="#314836">
                    <path d="M125.220149,37.4311699 C126.846919,32.2868141 127.510573,26.428079 127.21111,19.8549647 C126.911648,13.2818504 126.022552,6.66352884 124.543821,0 C121.407367,0.478622698 119.83914,0.717934047 119.83914,0.717934047 C120.597147,6.65943172 121.176424,12.7855144 121.176424,21.4775637 C121.176424,30.169613 120.072939,34.5416284 118.805678,39.7099294 C120.250801,39.2576847 121.400507,38.8842744 122.254796,38.5896985 C123.109085,38.2951226 124.097536,37.9089464 125.220149,37.4311699 Z" id="4th-Stripe"></path>
                    <path d="M86.5260038,45.6558294 C88.6312819,38.0073399 89.5341897,30.896538 89.2347273,24.3234237 C88.935265,17.7503093 88.0834429,10.8351576 86.6792612,3.57796845 C83.4038739,3.70226936 81.7661803,3.76441981 81.7661803,3.76441981 C82.5241875,9.70591748 82.8193308,16.6665216 82.8193308,25.3585709 C82.8193308,34.0506202 82.2443152,40.8742677 80.9770546,46.0426978 C82.1370394,45.970586 83.0058421,45.9143945 83.5834627,45.8741232 C84.2389419,45.8284237 85.2197889,45.7556591 86.5260038,45.6558294 Z" id="3rd-Stripe"></path>
                    <path d="M43.7559598,45.6558294 C45.8612378,38.0073399 46.7641456,30.896538 46.4646832,24.3234237 C46.1652209,17.7503093 45.3133988,10.8351576 43.9092171,3.57796845 C40.6338298,3.70226936 38.9961362,3.76441981 38.9961362,3.76441981 C39.7541434,9.70591748 40.0492867,16.6665216 40.0492867,25.3585709 C40.0492867,34.0506202 39.4742711,40.8742677 38.2070105,46.0426978 C39.3669953,45.970586 40.235798,45.9143945 40.8134187,45.8741232 C41.4688978,45.8284237 42.4497449,45.7556591 43.7559598,45.6558294 Z" id="2nd-Stripe" transform="translate(42.3638, 24.8103) scale(-1, 1) translate(-42.3638, -24.8103)"></path>
                    <path d="M6.41447064,37.4311699 C8.04124085,32.2868141 8.70489477,26.428079 8.40543241,19.8549647 C8.10597005,13.2818504 7.21687351,6.66352884 5.7381428,0 C2.60168874,0.478622698 1.03346171,0.717934047 1.03346171,0.717934047 C1.79146894,6.65943172 2.37074639,12.7855144 2.37074639,21.4775637 C2.37074639,30.169613 1.26726057,34.5416284 0,39.7099294 C1.44512314,39.2576847 2.59482911,38.8842744 3.44911789,38.5896985 C4.30340668,38.2951226 5.2918576,37.9089464 6.41447064,37.4311699 Z" id="1st-Stripe" transform="translate(4.2376, 19.855) scale(-1, 1) translate(-4.2376, -19.855)"></path>
                </g>
                <g id="Beanie" transform="translate(163.0276, 71.4274) rotate(28) translate(-163.0276, -71.4274)translate(104.6409, 21.5756)">
                    <path d="M2.25375533,67.4105104 C3.09401713,22.4701701 29.239514,-1.84446769e-14 80.690246,-1.84446769e-14 C89.4740276,-1.84446769e-14 111.048736,1.27966577 115.795764,9.43768621 C120.542792,17.5957067 106.613491,20.9054574 103.712381,30.2221275 C101.778308,36.4332409 102.267997,48.8293685 105.181448,67.4105104 C94.570719,71.4194712 77.4102918,73.4239516 53.7001665,73.4239516 C29.9900411,73.4239516 12.8412374,71.4194712 2.25375533,67.4105104 Z" id="Path-2" fill="#314836"></path>
                    <path d="M105.181448,67.4105104 C108.692248,68.2263367 107.259661,81.5773648 106.128054,83.8543594 C104.734095,85.3397346 97.5217761,99.703594 53.8684955,99.703594 C10.215215,99.703594 2.62653174,85.0169726 1.2325728,83.5315973 C0.100965747,81.2546027 -1.25704429,68.2263367 2.25375533,67.4105104 C13.7797427,71.2553037 30.9846561,73.1777003 53.8684955,73.1777003 C76.752335,73.1777003 93.8566525,71.2553037 105.181448,67.4105104 Z" id="Base" fill="#5B9667"></path>
                    <g id="Stripes" transform="translate(14.2567, 70.2599)" fill="#314836">
                        <path d="M77.6097175,23.1645833 C78.6179671,19.980957 79.0292907,16.3552312 78.843688,12.2874061 C78.6580854,8.21958093 78.1070357,4.12377891 77.1905388,3.96084674e-15 C75.2466079,0.296199542 74.2746425,0.444299312 74.2746425,0.444299312 C74.7444449,4.12124337 75.1034731,7.91241937 75.1034731,13.2915646 C75.1034731,18.6707099 74.4195478,21.3763671 73.6341172,24.5748122 C74.5297846,24.2949369 75.2423564,24.0638489 75.7718328,23.8815482 C76.3013092,23.6992475 76.9139374,23.4602592 77.6097175,23.1645833 Z" id="4th-Stripe"></path>
                        <path d="M53.6276213,28.2544806 C54.9324435,23.5211508 55.4920533,19.1205733 55.3064507,15.0527482 C55.120848,10.984923 54.5929005,6.70542524 53.7226081,2.21425482 C51.6925683,2.29117944 50.6775484,2.32964176 50.6775484,2.32964176 C51.1473508,6.00658582 51.3302766,10.3142122 51.3302766,15.6933574 C51.3302766,21.0725027 50.9738899,25.2953723 50.1884593,28.4938973 C50.9074018,28.4492703 51.4458737,28.4144957 51.803875,28.3895735 C52.2101319,28.361292 52.8180474,28.316261 53.6276213,28.2544806 Z" id="3rd-Stripe"></path>
                        <path d="M27.1193391,28.2544806 C28.4241613,23.5211508 28.9837711,19.1205733 28.7981685,15.0527482 C28.6125658,10.984923 28.0846183,6.70542524 27.2143259,2.21425482 C25.1842861,2.29117944 24.1692662,2.32964176 24.1692662,2.32964176 C24.6390687,6.00658582 24.8219944,10.3142122 24.8219944,15.6933574 C24.8219944,21.0725027 24.4656077,25.2953723 23.6801771,28.4938973 C24.3991196,28.4492703 24.9375915,28.4144957 25.2955928,28.3895735 C25.7018497,28.361292 26.3097652,28.316261 27.1193391,28.2544806 Z" id="2nd-Stripe" transform="translate(26.2565, 15.3541) scale(-1, 1) translate(-26.2565, -15.3541)"></path>
                        <path d="M3.97560025,23.1645833 C4.98384994,19.980957 5.39517347,16.3552312 5.20957083,12.2874061 C5.0239682,8.21958093 4.47291846,4.12377891 3.5564216,-4.29191171e-15 C1.61249072,0.296199542 0.640525283,0.444299312 0.640525283,0.444299312 C1.11032769,4.12124337 1.46935585,7.91241937 1.46935585,13.2915646 C1.46935585,18.6707099 0.785430584,21.3763671 -1.26818445e-14,24.5748122 C0.89566735,24.2949369 1.60823922,24.0638489 2.1377156,23.8815482 C2.66719198,23.6992475 3.2798202,23.4602592 3.97560025,23.1645833 Z" id="1st-Stripe" transform="translate(2.6264, 12.2874) scale(-1, 1) translate(-2.6264, -12.2874)"></path>
                    </g>
                </g>
            </g>
        </g>
    </g>
</svg>