<?xml version="1.0" encoding="UTF-8"?>
<svg width="416px" height="416px" viewBox="0 0 416 416" version="1.1" xmlns="http://www.w3.org/2000/svg" xmlns:xlink="http://www.w3.org/1999/xlink">
    <title>Artboard</title>
    <g id="Artboard" stroke="none" stroke-width="1" fill="none" fill-rule="evenodd">
        <g id="Ashley" transform="translate(87, 128.9813)">
            <g id="Expressions" transform="translate(43.1781, 154.3278)">
                <g id="Default" transform="translate(29.8219, 24.6909)">
                    <ellipse id="Left-Eye" fill="#332B27" cx="9.51456311" cy="9.49152542" rx="9.51456311" ry="9.49152542"></ellipse>
                    <ellipse id="Right-Eye" fill="#332B27" cx="88.4854369" cy="9.49152542" rx="9.51456311" ry="9.49152542"></ellipse>
                    <path d="M35.6796117,43.6610169 C35.6796117,50.4756491 41.5216437,56 48.7281553,56 C55.934667,56 61.776699,50.4756491 61.776699,43.6610169" id="Mouth" stroke="#CC9774" stroke-width="4" stroke-linecap="round"></path>
                </g>
                <g id="High-HR" transform="translate(0, 0)">
                    <path d="M16.5347843,11.9085214 C16.5347843,16.2152901 15.5889329,19.386876 12.7282542,19.5690079 L12.4639902,19.5772785 C9.4523465,19.5272748 8.4639902,16.3109961 8.4639902,11.9085214 C8.4639902,9.04610426 9.95778844,4.83975008 12.4993873,0 C15.0409861,4.83975008 16.5347843,9.04610426 16.5347843,11.9085214 Z" id="Big-Sweat" fill="#B2E2E2"></path>
                    <path d="M4.5347843,23.1825267 C4.5347843,25.602396 4.00333326,27.3844335 2.39598695,27.486769 L2.2475034,27.4914161 C0.555333534,27.4633202 -5.68434189e-14,25.6561709 -5.68434189e-14,23.1825267 C-5.68434189e-14,21.5742036 0.839329155,19.2107547 2.26739215,16.4914161 C3.69545515,19.2107547 4.5347843,21.5742036 4.5347843,23.1825267 Z" id="Small-Sweat" fill="#B2E2E2"></path>
                    <path d="M76.9773122,82.6909174 L76.1005006,82.6851434 L74.7864377,82.6693328 L73.0517386,82.6352945 C61.453554,82.3572982 50.8219335,81.0849948 50.8219335,79.097083 C50.8219335,76.8365142 51.3571838,72.4904343 54.0499219,68.905009 C56.74266,65.3195837 65.8016039,59.6909174 77.8536834,59.6909174 L78.3833993,59.6945449 C90.1689717,59.8560246 98.940806,65.3723105 101.593945,68.905009 C104.286683,72.4904343 104.821933,76.8365142 104.821933,79.097083 C104.821933,81.1095369 93.9765089,82.388604 82.2235151,82.6451355 L80.9198596,82.6693328 C80.1911765,82.680486 79.4604324,82.6877036 78.7299639,82.6909174 L76.9773122,82.6909174 Z" id="Mouth" fill="#9D5746"></path>
                    <path d="M77.9309051,82.6909174 L77.5249738,82.6889091 L76.9166114,82.6834097 L76.1135099,82.6715703 C70.74398,82.574876 65.8219335,82.1323357 65.8219335,81.4408881 C65.8219335,80.6546033 66.0697346,79.1429233 67.3163726,77.8958189 C68.5630106,76.6487144 72.7569661,74.6909174 78.3366325,74.6909174 L78.5818714,74.6921791 C84.0381549,74.748346 88.0991893,76.6670542 89.3274944,77.8958189 C90.5741324,79.1429233 90.8219335,80.6546033 90.8219335,81.4408881 C90.8219335,82.140872 85.8009036,82.585765 80.3597027,82.6749933 L79.7561585,82.6834097 C79.4188052,82.6872891 79.0804978,82.6897996 78.7423179,82.6909174 L77.9309051,82.6909174 Z" id="Tongue" fill="#CC8574"></path>
                    <ellipse id="Left-Eye" fill="#332B27" cx="39.3364966" cy="34.1824429" rx="9.51456311" ry="9.49152542"></ellipse>
                    <ellipse id="Right-Eye" fill="#332B27" cx="118.30737" cy="34.1824429" rx="9.51456311" ry="9.49152542"></ellipse>
                </g>
            </g>
            <g id="Accessories" transform="translate(35, 0)"></g>
        </g>
    </g>
</svg>