<?xml version="1.0" encoding="UTF-8"?>
<svg width="416px" height="416px" viewBox="0 0 416 416" version="1.1" xmlns="http://www.w3.org/2000/svg" xmlns:xlink="http://www.w3.org/1999/xlink">
    <title>Artboard</title>
    <g id="Artboard" stroke="none" stroke-width="1" fill="none" fill-rule="evenodd">
        <g id="Head" transform="translate(80, 174.372)">
            <path d="M126.722928,232.518561 C84.6303006,232.011165 47.6161085,206.446123 31.8937665,167.398257 C23.8347783,169.03977 16.7423584,166.932398 10.616507,161.076142 C1.27506069,152.145807 -2.26055063,138.728619 1.45049178,125.948575 C3.92452006,117.428546 11.307874,114.655161 23.6005536,117.62842 C26.4233687,59.0294361 72.6373707,12.4470107 128,12.4470107 C183.074288,12.4470107 229.052805,59.0294361 231.860918,117.62842 C244.089575,114.655161 251.434475,117.428546 253.895618,125.948575 C257.587332,138.728619 254.070135,152.145807 244.777341,161.076142 C238.683395,166.932398 231.627914,169.03977 223.610899,167.398257 C207.812458,206.840546 170.397792,232.526254 128,232.526254 L126.722928,232.518561 Z" fill="#E6C29C"></path>
            <ellipse id="Blush" fill="#CC8574" cx="64" cy="161.628047" rx="16" ry="8"></ellipse>
            <ellipse id="Blush" fill="#CC8574" cx="191" cy="161.628047" rx="16" ry="8"></ellipse>
            <path d="M202.249236,200.685245 L202.716693,200.22714 C205.765906,197.168867 222.686719,179.099739 222.258782,155.128047 C221.80263,129.575805 200.150864,122.79396 189.820674,118.841192 L188.895653,118.482087 C179,114.571754 129.351659,105.640641 103.157833,93.6882023 L91.0891592,88.193775 C77.0230139,81.8040848 62.0195812,75.0360697 46.078861,67.8897298 L45.9382715,72.3900647 C44.4096276,120.155041 42.4476745,144.037529 40.0524122,144.037529 C36.3483984,144.037529 18.6482029,110.70787 16.0567974,97.6914321 C13.465392,84.674994 20.5201935,56.0204665 40.0524122,52.9926594 L40.1707706,52.5346042 C41.1014632,49.0890353 47.7851919,26.9731828 69.4576803,12.4470107 C93.0147329,-3.34230693 132.77259,-1.44845831 153.886295,3.68574341 C174.788863,8.7686031 208.131093,41.7229652 215.704001,49.9772643 L217.812982,52.2973407 C224.837075,59.9892018 234.785613,69.9593975 251.550629,69.9593975 L252.757371,69.9535092 C264.278561,69.8396687 271.624245,68.0751405 274.794423,64.6599248 C276.37872,74.3587016 271.476762,82.1718051 260.088548,88.0992354 L260.58246,89.0246421 C263.440092,94.4453961 277.728253,122.481774 277.728253,141.13393 C277.728253,161.858547 261.972421,207.01655 260.088548,215.87853 C258.204676,224.74051 259.058035,237.534814 263.316193,241.630197 L228,241.630197 L227.914338,241.495 L227.94665,241.019537 C227.982126,240.391533 228,239.760984 228,239.128047 C228,224.364067 218.274474,210.899711 202.288895,200.717713" id="Path" fill="#332B27"></path>
        </g>
        <g id="Walker" transform="translate(80, 165.819)"></g>
    </g>
</svg>