<?xml version="1.0" encoding="UTF-8"?>
<svg width="416px" height="416px" viewBox="0 0 416 416" version="1.1" xmlns="http://www.w3.org/2000/svg" xmlns:xlink="http://www.w3.org/1999/xlink">
    <title>Artboard</title>
    <g id="Artboard" stroke="none" stroke-width="1" fill="none" fill-rule="evenodd">
        <g id="Walker" transform="translate(78, 312)">
            <ellipse id="Body" fill="#104256" cx="55" cy="106.5" rx="43" ry="24.5"></ellipse>
            <g id="Head">
                <path d="M54.5923121,102.996713 C36.4587834,102.77993 20.5130476,91.8573836 13.7398534,75.174362 C10.2680365,75.8756909 7.21261789,74.975326 4.57359748,72.4732674 C0.549296895,68.6578229 -0.973846543,62.9253911 0.624872715,57.4651759 C1.69068555,53.8250324 4.87143879,52.6401164 10.1671324,53.910428 C11.3832028,28.874281 31.2922221,8.97215358 55.1424755,8.97215358 C78.8685112,8.97215358 98.6760835,28.874281 99.8858203,53.910428 C105.153933,52.6401164 108.31812,53.8250324 109.378382,57.4651759 C110.968775,62.9253911 109.453564,68.6578229 105.450223,72.4732674 C102.824947,74.975326 99.7854418,75.8756909 96.3317069,75.174362 C89.5257292,92.025899 73.4074693,103 55.1424755,103 L54.5923121,102.996713 Z" fill="#DCBDB4"></path>
                <path d="M19.3313294,42.8416942 C14.8021311,55.2209978 16.9015453,69.4067633 15.6684798,69.4067633 C14.0634272,69.4067633 11.292122,63.9408007 9.58943455,60.4011052 C7.17711125,54.7544582 4.31831933,47.7187401 4.31831933,39.4778978 C4.31831933,35.0713049 6.45410535,32.2676935 10.7256774,30.3140729 C9.62653039,21.9827963 14.6087654,14.4730601 19.3313294,11.1486605 C24.0538934,7.82426103 38.9611658,3.41586857 48.591481,1.64648618 C58.2217962,-0.122896206 79.2338179,-0.457190128 80.0762149,0.600151999 C80.6378129,1.30504675 79.9704772,2.24361894 78.0742076,3.41586857 C87.8726217,3.94809044 93.9959939,4.95584537 94.5996767,6.34282332 C95.2220301,7.77269749 93.4562289,10.9808377 89.3022731,15.9672438 C97.3231543,20.6334539 102.103358,25.6998125 103.642884,31.1663196 C105.952174,39.3660802 104.475365,53.9247173 102.299294,59.8978396 C100.123223,65.8709618 97.344147,70.2612541 95.8644892,70.2612541 C94.5804472,70.2612541 97.008862,54.4881004 92.2016396,43.696185 C85.307427,36.3514219 75.4582203,33.496236 62.6540195,35.1306271 L62.5825299,35.0713016 C61.4394209,34.1459815 46.6050831,22.976779 19.3313294,42.8416942 Z" id="Hair" fill="#413833"></path>
                <ellipse id="Blush" fill="#BD8483" cx="27.5712377" cy="72.7090665" rx="6.89280943" ry="3.41796327"></ellipse>
                <ellipse id="Blush" fill="#BD8483" cx="82.2829126" cy="72.7090665" rx="6.89280943" ry="3.41796327"></ellipse>
            </g>
            <g id="Hands" transform="translate(15, 93)" fill="#BD8F82">
                <ellipse id="Left" cx="13.5483871" cy="9.5" rx="13.5483871" ry="9.5"></ellipse>
                <ellipse id="Right" cx="66.4516129" cy="9.5" rx="13.5483871" ry="9.5"></ellipse>
            </g>
            <g id="Expressions" transform="translate(33, 58)">
                <g id="Kiss" transform="translate(0.2136, 3.7184)">
                    <path d="M23.5063803,6.28054307 C24.6079389,3.26284866 30.4939206,3.26284866 31.017705,6.28054307 C31.3668945,8.29233935 30.4130878,9.63898589 28.1562847,10.3204827 C30.5910087,10.7643731 31.8083707,11.9058599 31.8083707,13.7449432 C31.8083707,16.5035682 29.7318536,18.2816176 27.254525,18.2816176 C25.6029725,18.2816176 24.3535909,17.5607127 23.5063803,16.1189029" id="Mouth" stroke="#BD8F82" stroke-width="2" stroke-linecap="round" stroke-linejoin="round"></path>
                    <path d="M39.0890356,8.07325361 C40.1377773,8.07325361 40.3636844,8.68764486 40.2831475,9.40797353 C40.1873366,10.2649131 39.3348045,11.1414681 37.7793128,12.0374961 C36.2237414,11.1414433 35.37084,10.2649358 35.2750266,9.40797353 C35.1944897,8.68764486 35.4203968,8.07325361 36.4691385,8.07325361 C37.137718,8.07325361 37.5744427,8.31465806 37.7793128,8.79746695 C37.9837314,8.31465806 38.4204561,8.07325361 39.0890356,8.07325361 Z" id="Heart" fill="#8D0B0B"></path>
                    <path d="M0,0.518909165 C1.13309749,0.172969722 2.41465089,0 3.84466019,0 C5.2746695,0 6.5562229,0.172969722 7.68932039,0.518909165" id="Left-Eye" stroke="#4C88A1" stroke-width="3" stroke-linecap="round"></path>
                    <path d="M35.8834951,0.518909165 C37.0167893,0.172969722 38.2983427,0 39.7281553,0 C41.157968,0 42.4395214,0.172969722 43.5728155,0.518909165" id="Right-Eye" stroke="#4C88A1" stroke-width="3" stroke-linecap="round"></path>
                </g>
            </g>
        </g>
    </g>
</svg>