<?xml version="1.0" encoding="UTF-8"?>
<svg width="416px" height="416px" viewBox="0 0 416 416" version="1.1" xmlns="http://www.w3.org/2000/svg" xmlns:xlink="http://www.w3.org/1999/xlink">
    <title>Artboard</title>
    <defs>
        <path d="M17.2449979,25.1459442 L16.9283715,25.1426806 L16.4538488,25.1337442 L15.8274296,25.1145051 C11.6391963,24.9573768 7.8,24.2382488 7.8,23.1146465 C7.8,21.8369336 7.99328485,19.3804537 8.9656625,17.353909 C9.93804015,15.3273643 13.2093254,12.1459442 17.5614652,12.1459442 L17.7527516,12.1479945 C22.0086527,12.2392656 25.1762595,15.3571664 26.1343375,17.353909 C27.1067152,19.3804537 27.3,21.8369336 27.3,23.1146465 C27.3,24.2521204 23.3835967,24.9750714 19.13946,25.1200674 L18.6686955,25.1337442 C18.40556,25.1400482 18.1416802,25.1441277 17.8778999,25.1459442 L17.2449979,25.1459442 Z" id="path-1"></path>
    </defs>
    <g id="Artboard" stroke="none" stroke-width="1" fill="none" fill-rule="evenodd">
        <g id="Walker" transform="translate(104, 330)">
            <ellipse id="Body" fill="#104256" cx="44.5" cy="86.1755725" rx="34.7909091" ry="19.8244275"></ellipse>
            <g id="Head">
                <path d="M44.1701434,83.3408516 C29.4984702,83.1654397 16.5969204,74.3273486 11.1167905,60.8281097 C8.30777501,61.3955972 5.83566357,60.6670577 3.70045615,58.6424912 C0.444431124,55.5551849 -0.787930385,50.9167287 0.505578833,46.4985393 C1.36791831,43.5530796 3.94143684,42.5942927 8.22613441,43.6221783 C9.21004592,23.363922 25.3182524,7.25991053 44.6152756,7.25991053 C63.8117954,7.25991053 79.8379221,23.363922 80.8167092,43.6221783 C85.0790911,42.5942927 87.6392061,43.5530796 88.4970543,46.4985393 C89.7838267,50.9167287 88.5578836,55.5551849 85.3188167,58.6424912 C83.1947299,60.6670577 80.7354938,61.3955972 77.9411083,60.8281097 C72.4344537,74.4637045 59.393316,83.3435115 44.6152756,83.3435115 L44.1701434,83.3408516 Z" fill="#DCBDB4"></path>
                <path d="M15.6408029,34.6657983 C11.9762697,44.6826395 13.6748867,56.1611978 12.6772245,56.1611978 C11.3785911,56.1611978 9.13635323,51.7383578 7.75872431,48.8741767 C5.80693546,44.3051341 3.49391292,38.6121103 3.49391292,31.9439478 C3.49391292,28.3783078 5.22195796,26.1097367 8.67804806,24.5289445 C7.78873823,17.7876062 11.8198192,11.7110257 15.6408029,9.02105357 C19.4617865,6.33108144 31.523125,2.76398525 39.3149255,1.33227126 C47.106726,-0.0994427318 64.1073618,-0.369940104 64.7889375,0.485619174 C65.2433214,1.05599203 64.7033861,1.81544739 63.1691316,2.76398525 C71.0969394,3.19463807 76.0513041,4.01007335 76.5397384,5.13236085 C77.0432789,6.28935828 75.6145852,8.88525795 72.2536573,12.9200599 C78.7432794,16.6957719 82.6108988,20.7952682 83.8565156,25.2185487 C85.7249406,31.8534695 84.5300681,43.6337407 82.7694286,48.4669542 C81.0087892,53.3001676 78.7602644,56.8526178 77.5630867,56.8526178 C76.52418,56.8526178 78.4889883,44.089608 74.5995084,35.3572184 C69.0214636,29.4141277 61.05256,27.1038245 50.6927976,28.4263089 L50.634956,28.3783051 C49.7100769,27.6295728 37.7077491,18.5918975 15.6408029,34.6657983 Z" id="Hair" fill="#413833"></path>
                <ellipse id="Blush" fill="#BD8483" cx="22.3076378" cy="58.8332905" rx="5.57690945" ry="2.7656802"></ellipse>
                <ellipse id="Blush" fill="#BD8483" cx="66.5743566" cy="58.8332905" rx="5.57690945" ry="2.7656802"></ellipse>
            </g>
            <g id="Hands" transform="translate(12.1364, 75.2519)" fill="#BD8F82">
                <ellipse id="Left" cx="10.9618768" cy="7.6870229" rx="10.9618768" ry="7.6870229"></ellipse>
                <ellipse id="Right" cx="53.7653959" cy="7.6870229" rx="10.9618768" ry="7.6870229"></ellipse>
            </g>
            <g id="Sparkles" transform="translate(26.7, 44.8541)">
                <polygon id="Big-Sparkle" fill="#FFFCD4" points="42.1111633 3.83576818 44.4955589 0 46.8532576 3.83576818 44.4955589 7"></polygon>
                <polygon id="Bottom-Small-Sparkle" fill="#FFFCD4" points="46.8532576 9.19186753 48.3617022 7 49.8532576 9.19186753 48.3617022 11"></polygon>
                <polygon id="Right-Small-Sparkle" fill="#FFFCD4" points="48.8532576 4.19186753 50.3617022 2 51.8532576 4.19186753 50.3617022 6"></polygon>
                <ellipse id="Left-Eye" fill="#4C88A1" cx="3.45631068" cy="5.50588727" rx="3.45631068" ry="3.42864536"></ellipse>
                <ellipse id="Right-Eye" fill="#4C88A1" cx="32.1436893" cy="5.50588727" rx="3.45631068" ry="3.42864536"></ellipse>
                <mask id="mask-2" fill="white">
                    <use xlink:href="#path-1" transform="translate(17.55, 18.6459) scale(1, -1) translate(-17.55, -18.6459)"></use>
                </mask>
                <use id="Mouth" fill="#925B57" transform="translate(17.55, 18.6459) scale(1, -1) translate(-17.55, -18.6459)" xlink:href="#path-1"></use>
                <path d="M17.0810241,25.1459442 L16.8537026,25.1441869 L16.5130196,25.1393749 L16.0632828,25.1290155 C13.0563461,25.0444079 10.3,24.6571851 10.3,24.0521685 C10.3,23.3641693 10.4387686,22.0414493 11.1368859,20.9502329 C11.8350032,19.8590165 14.1836183,18.1459442 17.3082315,18.1459442 L17.4455652,18.1470482 C20.501084,18.1961942 22.7752632,19.8750638 23.4631141,20.9502329 C24.1612314,22.0414493 24.3,23.3641693 24.3,24.0521685 C24.3,24.6646545 21.4882233,25.0539358 18.4411508,25.1320105 L18.103166,25.1393749 C17.9142482,25.1427694 17.724796,25.1449661 17.5354153,25.1459442 L17.0810241,25.1459442 Z" id="Tongue" fill="#BD8483" mask="url(#mask-2)"></path>
            </g>
        </g>
    </g>
</svg>