<?xml version="1.0" encoding="UTF-8"?>
<svg width="416px" height="416px" viewBox="0 0 416 416" version="1.1" xmlns="http://www.w3.org/2000/svg" xmlns:xlink="http://www.w3.org/1999/xlink">
    <title>Artboard</title>
    <g id="Artboard" stroke="none" stroke-width="1" fill="none" fill-rule="evenodd">
        <g id="Walker" transform="translate(104, 330)">
            <ellipse id="Body" fill="#104256" cx="44.5" cy="86.1755725" rx="34.7909091" ry="19.8244275"></ellipse>
            <g id="Head">
                <path d="M44.1701434,83.3408516 C29.4984702,83.1654397 16.5969204,74.3273486 11.1167905,60.8281097 C8.30777501,61.3955972 5.83566357,60.6670577 3.70045615,58.6424912 C0.444431124,55.5551849 -0.787930385,50.9167287 0.505578833,46.4985393 C1.36791831,43.5530796 3.94143684,42.5942927 8.22613441,43.6221783 C9.21004592,23.363922 25.3182524,7.25991053 44.6152756,7.25991053 C63.8117954,7.25991053 79.8379221,23.363922 80.8167092,43.6221783 C85.0790911,42.5942927 87.6392061,43.5530796 88.4970543,46.4985393 C89.7838267,50.9167287 88.5578836,55.5551849 85.3188167,58.6424912 C83.1947299,60.6670577 80.7354938,61.3955972 77.9411083,60.8281097 C72.4344537,74.4637045 59.393316,83.3435115 44.6152756,83.3435115 L44.1701434,83.3408516 Z" fill="#DCBDB4"></path>
                <path d="M15.6408029,34.6657983 C11.9762697,44.6826395 13.6748867,56.1611978 12.6772245,56.1611978 C11.3785911,56.1611978 9.13635323,51.7383578 7.75872431,48.8741767 C5.80693546,44.3051341 3.49391292,38.6121103 3.49391292,31.9439478 C3.49391292,28.3783078 5.22195796,26.1097367 8.67804806,24.5289445 C7.78873823,17.7876062 11.8198192,11.7110257 15.6408029,9.02105357 C19.4617865,6.33108144 31.523125,2.76398525 39.3149255,1.33227126 C47.106726,-0.0994427318 64.1073618,-0.369940104 64.7889375,0.485619174 C65.2433214,1.05599203 64.7033861,1.81544739 63.1691316,2.76398525 C71.0969394,3.19463807 76.0513041,4.01007335 76.5397384,5.13236085 C77.0432789,6.28935828 75.6145852,8.88525795 72.2536573,12.9200599 C78.7432794,16.6957719 82.6108988,20.7952682 83.8565156,25.2185487 C85.7249406,31.8534695 84.5300681,43.6337407 82.7694286,48.4669542 C81.0087892,53.3001676 78.7602644,56.8526178 77.5630867,56.8526178 C76.52418,56.8526178 78.4889883,44.089608 74.5995084,35.3572184 C69.0214636,29.4141277 61.05256,27.1038245 50.6927976,28.4263089 L50.634956,28.3783051 C49.7100769,27.6295728 37.7077491,18.5918975 15.6408029,34.6657983 Z" id="Hair" fill="#413833"></path>
                <ellipse id="Blush" fill="#BD8483" cx="22.3076378" cy="58.8332905" rx="5.57690945" ry="2.7656802"></ellipse>
                <ellipse id="Blush" fill="#BD8483" cx="66.5743566" cy="58.8332905" rx="5.57690945" ry="2.7656802"></ellipse>
            </g>
            <g id="Hands" transform="translate(12.1364, 75.2519)" fill="#BD8F82">
                <ellipse id="Left" cx="10.9618768" cy="7.6870229" rx="10.9618768" ry="7.6870229"></ellipse>
                <ellipse id="Right" cx="53.7653959" cy="7.6870229" rx="10.9618768" ry="7.6870229"></ellipse>
            </g>
            <g id="Expressions" transform="translate(26.7, 33.0244)">
                <g id="Squish" transform="translate(0.2984, 0)">
                    <path d="M-0.0109349334,17.7488514 C0.903160519,17.4710103 1.93701872,17.3320897 3.09063968,17.3320897 C4.24426063,17.3320897 5.27811883,17.4710103 6.19221429,17.7488514" id="Left-Eye" stroke="#4C88A1" stroke-width="3" stroke-linecap="round" transform="translate(3.0906, 17.5405) rotate(10) translate(-3.0906, -17.5405)"></path>
                    <path d="M28.9370948,17.7488514 C29.8513489,17.4710103 30.8852071,17.3320897 32.0386694,17.3320897 C33.1921317,17.3320897 34.2259899,17.4710103 35.140244,17.7488514" id="Right-Eye" stroke="#4C88A1" stroke-width="3" stroke-linecap="round" transform="translate(32.0387, 17.5405) rotate(-10) translate(-32.0387, -17.5405)"></path>
                    <path d="M9.19240077,27.0002834 C9.19240077,29.4436624 12.7741228,31.4244125 17.1924008,31.4244125 C21.6106788,31.4244125 25.1924008,29.4436624 25.1924008,27.0002834" id="Mouth" stroke="#BD8F82" stroke-width="2" stroke-linecap="round"></path>
                    <path d="M43.523077,6.81612019 C44.3691207,6.81612019 44.5513651,7.30956827 44.4863941,7.88809996 C44.4091013,8.57635065 43.7213443,9.28035541 42.4664939,10 C41.2115791,9.28033554 40.5235243,8.57636886 40.4462294,7.88809996 C40.3812584,7.30956827 40.5635028,6.81612019 41.4095466,6.81612019 C41.9489048,6.81612019 42.3012206,7.01000407 42.4664939,7.39777184 C42.631403,7.01000407 42.9837188,6.81612019 43.523077,6.81612019 Z" id="Heart" fill="#8D0B0B"></path>
                    <path d="M51.3540974,0 C53.2141884,0 53.6148665,1.08488285 53.4720228,2.35682841 C53.3020887,3.86999949 51.7900032,5.41780706 49.0311198,7 C46.2720949,5.41776338 44.7593544,3.87003952 44.5894159,2.35682841 C44.4465722,1.08488285 44.8472503,0 46.7073413,0 C47.893161,0 48.6677539,0.42626835 49.0311198,1.27880505 C49.3936848,0.42626835 50.1682776,0 51.3540974,0 Z" id="Heart" fill="#8D0B0B"></path>
                </g>
            </g>
        </g>
    </g>
</svg>