<?xml version="1.0" encoding="UTF-8"?>
<svg width="416px" height="416px" viewBox="0 0 416 416" version="1.1" xmlns="http://www.w3.org/2000/svg" xmlns:xlink="http://www.w3.org/1999/xlink">
    <title>Artboard</title>
    <g id="Artboard" stroke="none" stroke-width="1" fill="none" fill-rule="evenodd">
        <g id="Walker" transform="translate(78, 312)">
            <ellipse id="Body" fill="#104256" cx="55" cy="106.5" rx="43" ry="24.5"></ellipse>
            <g id="Head">
                <path d="M54.5923121,102.996713 C36.4587834,102.77993 20.5130476,91.8573836 13.7398534,75.174362 C10.2680365,75.8756909 7.21261789,74.975326 4.57359748,72.4732674 C0.549296895,68.6578229 -0.973846543,62.9253911 0.624872715,57.4651759 C1.69068555,53.8250324 4.87143879,52.6401164 10.1671324,53.910428 C11.3832028,28.874281 31.2922221,8.97215358 55.1424755,8.97215358 C78.8685112,8.97215358 98.6760835,28.874281 99.8858203,53.910428 C105.153933,52.6401164 108.31812,53.8250324 109.378382,57.4651759 C110.968775,62.9253911 109.453564,68.6578229 105.450223,72.4732674 C102.824947,74.975326 99.7854418,75.8756909 96.3317069,75.174362 C89.5257292,92.025899 73.4074693,103 55.1424755,103 L54.5923121,102.996713 Z" fill="#DCBDB4"></path>
                <path d="M19.3313294,42.8416942 C14.8021311,55.2209978 16.9015453,69.4067633 15.6684798,69.4067633 C14.0634272,69.4067633 11.292122,63.9408007 9.58943455,60.4011052 C7.17711125,54.7544582 4.31831933,47.7187401 4.31831933,39.4778978 C4.31831933,35.0713049 6.45410535,32.2676935 10.7256774,30.3140729 C9.62653039,21.9827963 14.6087654,14.4730601 19.3313294,11.1486605 C24.0538934,7.82426103 38.9611658,3.41586857 48.591481,1.64648618 C58.2217962,-0.122896206 79.2338179,-0.457190128 80.0762149,0.600151999 C80.6378129,1.30504675 79.9704772,2.24361894 78.0742076,3.41586857 C87.8726217,3.94809044 93.9959939,4.95584537 94.5996767,6.34282332 C95.2220301,7.77269749 93.4562289,10.9808377 89.3022731,15.9672438 C97.3231543,20.6334539 102.103358,25.6998125 103.642884,31.1663196 C105.952174,39.3660802 104.475365,53.9247173 102.299294,59.8978396 C100.123223,65.8709618 97.344147,70.2612541 95.8644892,70.2612541 C94.5804472,70.2612541 97.008862,54.4881004 92.2016396,43.696185 C85.307427,36.3514219 75.4582203,33.496236 62.6540195,35.1306271 L62.5825299,35.0713016 C61.4394209,34.1459815 46.6050831,22.976779 19.3313294,42.8416942 Z" id="Hair" fill="#413833"></path>
                <ellipse id="Blush" fill="#BD8483" cx="27.5712377" cy="72.7090665" rx="6.89280943" ry="3.41796327"></ellipse>
                <ellipse id="Blush" fill="#BD8483" cx="82.2829126" cy="72.7090665" rx="6.89280943" ry="3.41796327"></ellipse>
            </g>
            <g id="Hands" transform="translate(15, 93)" fill="#BD8F82">
                <ellipse id="Left" cx="13.5483871" cy="9.5" rx="13.5483871" ry="9.5"></ellipse>
                <ellipse id="Right" cx="66.4516129" cy="9.5" rx="13.5483871" ry="9.5"></ellipse>
            </g>
            <g id="Default" transform="translate(33, 58)">
                <ellipse id="Left-Eye" fill="#4C88A1" cx="4.27184466" cy="4.23728814" rx="4.27184466" ry="4.23728814"></ellipse>
                <ellipse id="Right-Eye" fill="#4C88A1" cx="39.7281553" cy="4.23728814" rx="4.27184466" ry="4.23728814"></ellipse>
                <path d="M16.0194175,19.4915254 C16.0194175,22.5337719 18.6423706,25 21.8779473,25 C25.113524,25 27.7364771,22.5337719 27.7364771,19.4915254" id="Mouth" stroke="#BD8F82" stroke-width="2" stroke-linecap="round"></path>
            </g>
        </g>
    </g>
</svg>