<?xml version="1.0" encoding="UTF-8"?>
<svg xmlns="http://www.w3.org/2000/svg" xmlns:xlink="http://www.w3.org/1999/xlink" width="300" height="300" viewBox="0 0 300 300">
<path fill-rule="evenodd" fill="rgb(35.686275%, 58.823529%, 40.392157%)" fill-opacity="1" d="M 221.238281 272.597656 C 226.046875 273.542969 224.085938 289.046875 222.535156 291.691406 C 220.625 293.417969 210.746094 310.097656 150.953125 310.097656 C 91.15625 310.097656 80.761719 293.042969 78.851562 291.316406 C 77.300781 288.671875 75.441406 273.542969 80.25 272.597656 C 96.039062 277.0625 119.605469 279.292969 150.953125 279.292969 C 182.296875 279.292969 205.726562 277.0625 221.238281 272.597656 Z M 221.238281 272.597656 "/>
<path fill-rule="evenodd" fill="rgb(19.215686%, 28.235294%, 21.176471%)" fill-opacity="1" d="M 203.042969 303.171875 C 204.4375 299.464844 205.003906 295.242188 204.746094 290.507812 C 204.492188 285.769531 203.730469 281.003906 202.464844 276.203125 C 199.78125 276.546875 198.441406 276.71875 198.441406 276.71875 C 199.089844 281 199.585938 285.414062 199.585938 291.675781 C 199.585938 297.9375 198.640625 301.089844 197.558594 304.8125 C 198.792969 304.488281 199.777344 304.21875 200.507812 304.003906 C 201.238281 303.792969 202.085938 303.515625 203.042969 303.171875 Z M 203.042969 303.171875 "/>
<path fill-rule="evenodd" fill="rgb(19.215686%, 28.235294%, 21.176471%)" fill-opacity="1" d="M 169.941406 309.097656 C 171.742188 303.585938 172.515625 298.460938 172.257812 293.726562 C 172 288.992188 171.273438 284.007812 170.070312 278.78125 C 167.269531 278.871094 165.867188 278.914062 165.867188 278.914062 C 166.515625 283.195312 166.769531 288.210938 166.769531 294.472656 C 166.769531 300.734375 166.277344 305.652344 165.191406 309.375 C 166.183594 309.324219 166.929688 309.28125 167.421875 309.253906 C 167.984375 309.21875 168.824219 309.167969 169.941406 309.097656 Z M 169.941406 309.097656 "/>
<path fill-rule="evenodd" fill="rgb(19.215686%, 28.235294%, 21.176471%)" fill-opacity="1" d="M 130.964844 309.097656 C 129.164062 303.585938 128.394531 298.460938 128.648438 293.726562 C 128.90625 288.992188 129.632812 284.007812 130.835938 278.78125 C 133.636719 278.871094 135.039062 278.914062 135.039062 278.914062 C 134.390625 283.195312 134.136719 288.210938 134.136719 294.472656 C 134.136719 300.734375 134.628906 305.652344 135.714844 309.375 C 134.722656 309.324219 133.976562 309.28125 133.484375 309.253906 C 132.921875 309.21875 132.085938 309.167969 130.964844 309.097656 Z M 130.964844 309.097656 "/>
<path fill-rule="evenodd" fill="rgb(19.215686%, 28.235294%, 21.176471%)" fill-opacity="1" d="M 97.675781 303.171875 C 96.285156 299.464844 95.71875 295.242188 95.972656 290.507812 C 96.230469 285.769531 96.988281 281.003906 98.253906 276.203125 C 100.9375 276.546875 102.28125 276.71875 102.28125 276.71875 C 101.632812 281 101.136719 285.414062 101.136719 291.675781 C 101.136719 297.9375 102.082031 301.089844 103.164062 304.8125 C 101.929688 304.488281 100.945312 304.21875 100.214844 304.003906 C 99.484375 303.792969 98.636719 303.515625 97.675781 303.171875 Z M 97.675781 303.171875 "/>
<path fill-rule="evenodd" fill="rgb(19.215686%, 28.235294%, 21.176471%)" fill-opacity="1" d="M 163.863281 136.703125 C 179.613281 108.371094 203.867188 102.914062 236.628906 120.332031 C 242.222656 123.308594 255.527344 131.425781 255.785156 138.230469 C 256.046875 145.03125 246.058594 142.421875 241.054688 147.371094 C 237.722656 150.671875 233.835938 158.730469 229.398438 171.546875 C 221.285156 170.507812 209.679688 165.976562 194.585938 157.949219 C 179.488281 149.921875 169.246094 142.839844 163.863281 136.703125 Z M 163.863281 136.703125 "/>
<path fill-rule="evenodd" fill="rgb(35.686275%, 58.823529%, 40.392157%)" fill-opacity="1" d="M 229.398438 171.546875 C 231.359375 173.257812 225.925781 181.273438 224.4375 182.339844 C 223.046875 182.8125 213.589844 189.519531 185.792969 174.738281 C 158 159.960938 158.136719 148.039062 157.753906 146.621094 C 157.804688 144.789062 161.351562 136.03125 163.863281 136.703125 C 169.898438 143.050781 180.203125 150.101562 194.773438 157.847656 C 209.34375 165.597656 220.886719 170.164062 229.398438 171.546875 Z M 229.398438 171.546875 "/>
<path fill-rule="evenodd" fill="rgb(19.215686%, 28.235294%, 21.176471%)" fill-opacity="1" d="M 212.113281 183.605469 C 213.835938 181.917969 215.324219 179.75 216.582031 177.097656 C 217.84375 174.445312 218.878906 171.648438 219.691406 168.714844 C 218.351562 168.242188 217.683594 168.007812 217.683594 168.007812 C 216.738281 170.507812 215.683594 173.042969 213.863281 176.46875 C 212.039062 179.894531 210.6875 181.386719 209.105469 183.15625 C 209.769531 183.28125 210.304688 183.375 210.703125 183.4375 C 211.101562 183.503906 211.570312 183.558594 212.113281 183.605469 Z M 212.113281 183.605469 "/>
<path fill-rule="evenodd" fill="rgb(19.215686%, 28.235294%, 21.176471%)" fill-opacity="1" d="M 195.121094 178.726562 C 197.554688 176.15625 199.402344 173.542969 200.660156 170.890625 C 201.917969 168.234375 203.03125 165.332031 203.996094 162.179688 C 202.679688 161.539062 202.019531 161.21875 202.019531 161.21875 C 201.074219 163.71875 199.730469 166.527344 197.910156 169.949219 C 196.089844 173.375 194.433594 175.945312 192.851562 177.714844 C 193.324219 177.929688 193.675781 178.089844 193.914062 178.195312 C 194.183594 178.316406 194.585938 178.492188 195.121094 178.726562 Z M 195.121094 178.726562 "/>
<path fill-rule="evenodd" fill="rgb(19.215686%, 28.235294%, 21.176471%)" fill-opacity="1" d="M 177.144531 169.167969 C 177.914062 165.710938 179.046875 162.71875 180.542969 160.191406 C 182.039062 157.664062 183.824219 155.121094 185.898438 152.554688 C 187.164062 153.289062 187.800781 153.660156 187.800781 153.660156 C 186.253906 155.839844 184.679688 158.523438 182.859375 161.945312 C 181.039062 165.371094 179.835938 168.183594 179.253906 170.484375 C 178.808594 170.210938 178.476562 170.007812 178.257812 169.871094 C 178.007812 169.714844 177.636719 169.480469 177.144531 169.167969 Z M 177.144531 169.167969 "/>
<path fill-rule="evenodd" fill="rgb(19.215686%, 28.235294%, 21.176471%)" fill-opacity="1" d="M 163.511719 157.761719 C 163.945312 155.394531 164.910156 152.945312 166.40625 150.417969 C 167.902344 147.890625 169.640625 145.46875 171.621094 143.152344 C 172.757812 144 173.328125 144.425781 173.328125 144.425781 C 171.78125 146.605469 170.269531 148.898438 168.449219 152.324219 C 166.628906 155.75 166.148438 157.703125 165.566406 160.003906 C 165.089844 159.523438 164.714844 159.136719 164.4375 158.839844 C 164.164062 158.546875 163.855469 158.1875 163.511719 157.761719 Z M 163.511719 157.761719 "/>
</svg>
