<?xml version="1.0" encoding="UTF-8"?>
<svg xmlns="http://www.w3.org/2000/svg" xmlns:xlink="http://www.w3.org/1999/xlink" width="300" height="300" viewBox="0 0 300 300">
<path fill="none" stroke-width="5" stroke-linecap="round" stroke-linejoin="miter" stroke="rgb(0%, 0%, 0%)" stroke-opacity="1" stroke-miterlimit="4" d="M -0.000799561 1.163288 C 2.523367 0.388704 5.37795 -0.00129552 8.56295 -0.00129552 C 11.74795 -0.00129552 14.602534 0.388704 17.1267 1.163288 " transform="matrix(0.721154, 0, 0, 0.721154, 108.516202, 228.122028)"/>
<path fill="none" stroke-width="5" stroke-linecap="round" stroke-linejoin="miter" stroke="rgb(0%, 0%, 0%)" stroke-opacity="1" stroke-miterlimit="4" d="M 99.92045 1.163288 C 102.444617 0.388704 105.2992 -0.00129552 108.4842 -0.00129552 C 111.6692 -0.00129552 114.523784 0.388704 117.04795 1.163288 " transform="matrix(0.721154, 0, 0, 0.721154, 108.516202, 228.122028)"/>
<path fill="none" stroke-width="4" stroke-linecap="round" stroke-linejoin="miter" stroke="rgb(51.372549%, 19.607843%, 9.803922%)" stroke-opacity="1" stroke-miterlimit="4" d="M 41.523367 35.672871 C 41.523367 42.487038 49.133784 48.012038 58.526284 48.012038 C 67.913367 48.012038 75.523784 42.487038 75.523784 35.672871 " transform="matrix(0.721154, 0, 0, 0.721154, 108.516202, 228.122028)"/>
</svg>
