<?xml version="1.0" encoding="UTF-8"?>
<svg xmlns="http://www.w3.org/2000/svg" xmlns:xlink="http://www.w3.org/1999/xlink" width="300" height="300" viewBox="0 0 300 300">
<path fill-rule="evenodd" fill="rgb(0%, 0%, 0%)" fill-opacity="1" d="M 121.894531 228.960938 C 121.894531 232.742188 118.824219 235.804688 115.035156 235.804688 C 111.246094 235.804688 108.171875 232.742188 108.171875 228.960938 C 108.171875 225.179688 111.246094 222.117188 115.035156 222.117188 C 118.824219 222.117188 121.894531 225.179688 121.894531 228.960938 Z M 121.894531 228.960938 "/>
<path fill-rule="evenodd" fill="rgb(0%, 0%, 0%)" fill-opacity="1" d="M 193.269531 228.960938 C 193.269531 232.742188 190.195312 235.804688 186.40625 235.804688 C 182.617188 235.804688 179.546875 232.742188 179.546875 228.960938 C 179.546875 225.179688 182.617188 222.117188 186.40625 222.117188 C 190.195312 222.117188 193.269531 225.179688 193.269531 228.960938 Z M 193.269531 228.960938 "/>
<path fill="none" stroke-width="4" stroke-linecap="round" stroke-linejoin="miter" stroke="rgb(51.372549%, 19.607843%, 9.803922%)" stroke-opacity="1" stroke-miterlimit="4" d="M 41.999167 44.00207 C 41.999167 50.816237 49.609583 56.341237 59.002083 56.341237 C 68.389167 56.341237 75.999583 50.816237 75.999583 44.00207 " transform="matrix(0.721154, 0, 0, 0.721154, 108.173077, 222.115394)"/>
</svg>
