<?xml version="1.0" encoding="UTF-8"?>
<svg xmlns="http://www.w3.org/2000/svg" xmlns:xlink="http://www.w3.org/1999/xlink" width="300" height="300" viewBox="0 0 300 300">
<path fill-rule="evenodd" fill="rgb(69.803922%, 88.627451%, 88.627451%)" fill-opacity="1" d="M 91.378906 212.898438 C 91.378906 216.003906 90.699219 218.289062 88.632812 218.421875 L 88.445312 218.425781 C 86.273438 218.390625 85.558594 216.070312 85.558594 212.898438 C 85.558594 210.832031 86.636719 207.800781 88.46875 204.308594 C 90.300781 207.800781 91.378906 210.832031 91.378906 212.898438 Z M 91.378906 212.898438 "/>
<path fill-rule="evenodd" fill="rgb(69.803922%, 88.627451%, 88.627451%)" fill-opacity="1" d="M 82.726562 221.027344 C 82.726562 222.773438 82.34375 224.058594 81.183594 224.132812 L 81.074219 224.136719 C 79.855469 224.113281 79.457031 222.8125 79.457031 221.027344 C 79.457031 219.867188 80.0625 218.164062 81.089844 216.203125 C 82.121094 218.164062 82.726562 219.867188 82.726562 221.027344 Z M 82.726562 221.027344 "/>
<path fill-rule="evenodd" fill="rgb(0%, 0%, 0%)" fill-opacity="1" d="M 121.894531 228.960938 C 121.894531 232.742188 118.824219 235.804688 115.035156 235.804688 C 111.246094 235.804688 108.171875 232.742188 108.171875 228.960938 C 108.171875 225.179688 111.246094 222.117188 115.035156 222.117188 C 118.824219 222.117188 121.894531 225.179688 121.894531 228.960938 Z M 121.894531 228.960938 "/>
<path fill-rule="evenodd" fill="rgb(0%, 0%, 0%)" fill-opacity="1" d="M 193.269531 228.960938 C 193.269531 232.742188 190.199219 235.804688 186.40625 235.804688 C 182.617188 235.804688 179.546875 232.742188 179.546875 228.960938 C 179.546875 225.179688 182.617188 222.117188 186.40625 222.117188 C 190.199219 222.117188 193.269531 225.179688 193.269531 228.960938 Z M 193.269531 228.960938 "/>
<path fill-rule="evenodd" fill="rgb(51.372549%, 19.607843%, 9.803922%)" fill-opacity="1" d="M 149.390625 268.269531 L 148.757812 268.265625 L 147.8125 268.253906 L 146.558594 268.230469 C 138.195312 268.027344 130.527344 267.109375 130.527344 265.675781 C 130.527344 264.046875 130.914062 260.914062 132.855469 258.328125 C 134.796875 255.742188 141.332031 251.683594 150.023438 251.683594 L 150.40625 251.683594 C 158.902344 251.800781 165.230469 255.78125 167.144531 258.328125 C 169.085938 260.914062 169.472656 264.046875 169.472656 265.675781 C 169.472656 267.128906 161.648438 268.050781 153.175781 268.234375 L 152.234375 268.253906 C 151.707031 268.261719 151.179688 268.265625 150.65625 268.269531 Z M 149.390625 268.269531 "/>
<path fill-rule="evenodd" fill="rgb(86.666667%, 47.45098%, 35.294118%)" fill-opacity="1" d="M 150.078125 268.269531 L 149.785156 268.269531 L 149.347656 268.265625 L 148.769531 268.253906 C 144.894531 268.1875 141.347656 267.867188 141.347656 267.367188 C 141.347656 266.800781 141.523438 265.710938 142.425781 264.8125 C 143.324219 263.910156 146.347656 262.5 150.371094 262.5 L 150.546875 262.5 C 154.484375 262.542969 157.410156 263.925781 158.296875 264.8125 C 159.195312 265.710938 159.375 266.800781 159.375 267.367188 C 159.375 267.871094 155.753906 268.195312 151.832031 268.257812 L 151.394531 268.265625 C 151.152344 268.265625 150.90625 268.269531 150.664062 268.269531 Z M 150.078125 268.269531 "/>
</svg>
