<?xml version="1.0" encoding="UTF-8"?>
<svg xmlns="http://www.w3.org/2000/svg" xmlns:xlink="http://www.w3.org/1999/xlink" width="300" height="300" viewBox="0 0 300 300">
<path fill-rule="evenodd" fill="rgb(69.803922%, 88.627451%, 88.627451%)" fill-opacity="1" d="M 166.417969 266.773438 C 166.496094 270.542969 166.292969 272.890625 165.808594 273.828125 C 165.085938 275.226562 163.277344 277.3125 165.125 278.921875 C 166.96875 280.527344 169.472656 278.746094 169.472656 275.660156 C 169.472656 273.601562 169.472656 270.273438 169.472656 265.675781 Z M 166.417969 266.773438 "/>
<path fill-rule="evenodd" fill="rgb(51.372549%, 19.607843%, 9.803922%)" fill-opacity="1" d="M 149.390625 268.269531 L 148.757812 268.265625 L 147.8125 268.253906 L 146.558594 268.230469 C 138.195312 268.027344 130.527344 267.109375 130.527344 265.675781 C 130.527344 264.046875 130.914062 260.914062 132.855469 258.328125 C 134.796875 255.742188 141.332031 251.683594 150.023438 251.683594 L 150.40625 251.683594 C 158.902344 251.800781 165.230469 255.78125 167.144531 258.328125 C 169.085938 260.914062 169.472656 264.046875 169.472656 265.675781 C 169.472656 267.128906 161.648438 268.050781 153.175781 268.234375 L 152.234375 268.253906 C 151.707031 268.261719 151.183594 268.265625 150.65625 268.269531 Z M 149.390625 268.269531 "/>
<path fill-rule="evenodd" fill="rgb(86.666667%, 47.45098%, 35.294118%)" fill-opacity="1" d="M 150.078125 268.269531 L 149.785156 268.269531 L 149.347656 268.265625 L 148.769531 268.253906 C 144.894531 268.1875 141.347656 267.867188 141.347656 267.367188 C 141.347656 266.800781 141.523438 265.710938 142.425781 264.8125 C 143.324219 263.910156 146.347656 262.5 150.371094 262.5 L 150.546875 262.5 C 154.484375 262.542969 157.410156 263.925781 158.296875 264.8125 C 159.195312 265.710938 159.375 266.800781 159.375 267.367188 C 159.375 267.871094 155.753906 268.195312 151.832031 268.257812 L 151.394531 268.265625 C 151.152344 268.265625 150.90625 268.269531 150.664062 268.269531 Z M 150.078125 268.269531 "/>
<path fill="none" stroke-width="5" stroke-linecap="round" stroke-linejoin="miter" stroke="rgb(0%, 0%, 0%)" stroke-opacity="1" stroke-miterlimit="4" d="M -0.000799561 1.163696 C 2.523367 0.389112 5.37795 -0.000887804 8.56295 -0.000887804 C 11.74795 -0.000887804 14.602534 0.389112 17.1267 1.163696 " transform="matrix(0.721154, 0, 0, -0.721154, 108.516202, 228.960297)"/>
<path fill="none" stroke-width="5" stroke-linecap="round" stroke-linejoin="miter" stroke="rgb(0%, 0%, 0%)" stroke-opacity="1" stroke-miterlimit="4" d="M 99.92045 1.163696 C 102.444617 0.389112 105.2992 -0.000887804 108.4842 -0.000887804 C 111.6692 -0.000887804 114.523784 0.389112 117.04795 1.163696 " transform="matrix(0.721154, 0, 0, -0.721154, 108.516202, 228.960297)"/>
</svg>
