<?xml version="1.0" encoding="UTF-8"?>
<svg xmlns="http://www.w3.org/2000/svg" xmlns:xlink="http://www.w3.org/1999/xlink" width="300" height="300" viewBox="0 0 300 300">
<path fill-rule="evenodd" fill="rgb(100%, 100%, 100%)" fill-opacity="1" d="M 186.058594 160.339844 C 214.488281 132.613281 236.457031 119.121094 251.964844 119.867188 C 267.46875 120.613281 268.636719 148.464844 255.46875 203.429688 C 268.851562 208.226562 275.542969 212.289062 275.542969 215.617188 C 275.542969 218.949219 267.683594 220.007812 251.964844 218.804688 C 260.703125 222.679688 264.246094 225.371094 262.589844 226.878906 C 260.933594 228.386719 254.636719 229.964844 243.703125 231.617188 "/>
<path fill-rule="evenodd" fill="rgb(0%, 0%, 0%)" fill-opacity="1" d="M 201.40625 171.332031 C 222.449219 147.597656 235.839844 136.863281 241.585938 139.128906 C 250.207031 142.527344 241.6875 208.023438 232.164062 215.65625 "/>
<path fill-rule="evenodd" fill="rgb(100%, 100%, 100%)" fill-opacity="1" d="M 115.445312 160.339844 C 87.015625 132.613281 65.046875 119.121094 49.539062 119.867188 C 34.035156 120.613281 32.867188 148.464844 46.039062 203.429688 C 32.652344 208.226562 25.960938 212.289062 25.960938 215.617188 C 25.960938 218.949219 33.820312 220.007812 49.539062 218.804688 C 40.800781 222.679688 37.261719 225.371094 38.917969 226.878906 C 40.574219 228.386719 46.867188 229.964844 57.800781 231.617188 "/>
<path fill-rule="evenodd" fill="rgb(0%, 0%, 0%)" fill-opacity="1" d="M 99.734375 171.332031 C 78.695312 147.597656 65.300781 136.863281 59.554688 139.128906 C 50.933594 142.527344 59.453125 208.023438 68.976562 215.65625 "/>
<path fill-rule="evenodd" fill="rgb(76.862745%, 49.803922%, 29.019608%)" fill-opacity="1" d="M 56.25 236.898438 C 56.25 208.839844 81.492188 147.128906 150.722656 147.117188 L 152.167969 147.128906 C 221.046875 148.472656 245.191406 209.121094 245.191406 236.898438 C 245.191406 264.960938 198.914062 294.953125 150.722656 294.953125 C 102.527344 294.953125 56.25 264.960938 56.25 236.898438 Z M 56.25 236.898438 "/>
<path fill-rule="evenodd" fill="rgb(100%, 100%, 100%)" fill-opacity="1" d="M 151.046875 283.414062 C 180.9375 283.414062 222.335938 277.1875 222.335938 260.0625 C 222.335938 242.933594 180.9375 221.394531 151.046875 221.394531 C 121.15625 221.394531 80.269531 242.933594 80.269531 260.0625 C 80.269531 277.1875 121.15625 283.414062 151.046875 283.414062 Z M 151.046875 283.414062 "/>
<path fill-rule="evenodd" fill="rgb(76.862745%, 49.803922%, 29.019608%)" fill-opacity="1" d="M 150.753906 288.460938 C 172.605469 288.460938 202.867188 280.785156 202.867188 259.679688 C 202.867188 238.570312 172.605469 212.019531 150.753906 212.019531 C 128.90625 212.019531 99.019531 238.570312 99.019531 259.679688 C 99.019531 280.785156 128.90625 288.460938 150.753906 288.460938 Z M 150.753906 288.460938 "/>
<path fill-rule="evenodd" fill="rgb(100%, 100%, 100%)" fill-opacity="1" d="M 150.359375 279.808594 C 163.304688 279.808594 181.230469 273.941406 181.230469 257.8125 C 181.230469 241.683594 163.304688 221.394531 150.359375 221.394531 C 137.417969 221.394531 119.710938 241.683594 119.710938 257.8125 C 119.710938 273.941406 137.417969 279.808594 150.359375 279.808594 Z M 150.359375 279.808594 "/>
<path fill-rule="evenodd" fill="rgb(100%, 100%, 100%)" fill-opacity="1" d="M 122.457031 204.453125 C 122.457031 208.636719 118.421875 212.027344 113.441406 212.027344 C 108.464844 212.027344 104.429688 208.636719 104.429688 204.453125 C 104.429688 200.273438 108.464844 196.882812 113.441406 196.882812 C 118.421875 196.882812 122.457031 200.273438 122.457031 204.453125 Z M 122.457031 204.453125 "/>
<path fill-rule="evenodd" fill="rgb(100%, 100%, 100%)" fill-opacity="1" d="M 177.265625 204.453125 C 177.265625 208.636719 181.300781 212.027344 186.28125 212.027344 C 191.257812 212.027344 195.292969 208.636719 195.292969 204.453125 C 195.292969 200.273438 191.257812 196.882812 186.28125 196.882812 C 181.300781 196.882812 177.265625 200.273438 177.265625 204.453125 Z M 177.265625 204.453125 "/>
<path fill-rule="evenodd" fill="rgb(0%, 0%, 0%)" fill-opacity="1" stroke-width="3" stroke-linecap="butt" stroke-linejoin="round" stroke="rgb(0%, 0%, 0%)" stroke-opacity="1" stroke-miterlimit="4" d="M 172.498333 175.826374 L 178.001667 178.827207 L 167.000417 178.827207 Z M 172.498333 175.826374 " transform="matrix(0.721154, 0, 0, -0.721154, 25.961538, 375.594741)"/>
</svg>
