<?xml version="1.0" encoding="UTF-8"?>
<svg xmlns="http://www.w3.org/2000/svg" xmlns:xlink="http://www.w3.org/1999/xlink" width="300" height="300" viewBox="0 0 300 300">
<path fill-rule="evenodd" fill="rgb(29.803922%, 53.333333%, 63.137255%)" fill-opacity="1" d="M 214.28125 272.597656 C 218.691406 273.542969 216.890625 289.046875 215.46875 291.691406 C 213.71875 293.417969 204.664062 310.097656 149.851562 310.097656 C 95.039062 310.097656 85.507812 293.042969 83.757812 291.316406 C 82.339844 288.671875 80.632812 273.542969 85.042969 272.597656 C 99.515625 277.0625 121.117188 279.292969 149.851562 279.292969 C 178.585938 279.292969 200.0625 277.0625 214.28125 272.597656 Z M 214.28125 272.597656 "/>
<path fill-rule="evenodd" fill="rgb(17.647059%, 39.215686%, 47.843137%)" fill-opacity="1" d="M 198.136719 303.171875 C 199.417969 299.464844 199.941406 295.242188 199.703125 290.507812 C 199.46875 285.769531 198.769531 281.003906 197.605469 276.203125 C 195.132812 276.546875 193.898438 276.71875 193.898438 276.71875 C 194.496094 281 194.953125 285.414062 194.953125 291.675781 C 194.953125 297.9375 194.082031 301.089844 193.085938 304.8125 C 194.222656 304.488281 195.128906 304.21875 195.800781 304.003906 C 196.472656 303.792969 197.253906 303.515625 198.136719 303.171875 Z M 198.136719 303.171875 "/>
<path fill-rule="evenodd" fill="rgb(17.647059%, 39.215686%, 47.843137%)" fill-opacity="1" d="M 167.664062 309.097656 C 169.320312 303.585938 170.03125 298.460938 169.796875 293.726562 C 169.558594 288.992188 168.890625 284.007812 167.785156 278.78125 C 165.203125 278.871094 163.914062 278.914062 163.914062 278.914062 C 164.511719 283.195312 164.742188 288.210938 164.742188 294.472656 C 164.742188 300.734375 164.289062 305.652344 163.292969 309.375 C 164.207031 309.324219 164.890625 309.28125 165.34375 309.253906 C 165.863281 309.21875 166.632812 309.167969 167.664062 309.097656 Z M 167.664062 309.097656 "/>
<path fill-rule="evenodd" fill="rgb(17.647059%, 39.215686%, 47.843137%)" fill-opacity="1" d="M 131.785156 309.097656 C 130.128906 303.585938 129.417969 298.460938 129.652344 293.726562 C 129.890625 288.992188 130.558594 284.007812 131.664062 278.78125 C 134.246094 278.871094 135.535156 278.914062 135.535156 278.914062 C 134.9375 283.195312 134.707031 288.210938 134.707031 294.472656 C 134.707031 300.734375 135.160156 305.652344 136.15625 309.375 C 135.242188 309.324219 134.558594 309.28125 134.105469 309.253906 C 133.585938 309.21875 132.816406 309.167969 131.785156 309.097656 Z M 131.785156 309.097656 "/>
<path fill-rule="evenodd" fill="rgb(17.647059%, 39.215686%, 47.843137%)" fill-opacity="1" d="M 101.140625 303.171875 C 99.859375 299.464844 99.339844 295.242188 99.574219 290.507812 C 99.808594 285.769531 100.511719 281.003906 101.675781 276.203125 C 104.144531 276.546875 105.378906 276.71875 105.378906 276.71875 C 104.78125 281 104.328125 285.414062 104.328125 291.675781 C 104.328125 297.9375 105.195312 301.089844 106.195312 304.8125 C 105.054688 304.488281 104.148438 304.21875 103.476562 304.003906 C 102.804688 303.792969 102.027344 303.515625 101.140625 303.171875 Z M 101.140625 303.171875 "/>
<path fill-rule="evenodd" fill="rgb(17.647059%, 39.215686%, 47.843137%)" fill-opacity="1" d="M 163.863281 145.355469 C 179.613281 117.023438 203.867188 111.570312 236.628906 128.988281 C 242.222656 131.960938 255.527344 140.082031 255.785156 146.882812 C 256.046875 153.683594 246.058594 151.074219 241.054688 156.027344 C 237.722656 159.324219 233.835938 167.386719 229.398438 180.203125 C 221.285156 179.164062 209.679688 174.628906 194.585938 166.601562 C 179.488281 158.574219 169.246094 151.492188 163.863281 145.355469 Z M 163.863281 145.355469 "/>
<path fill-rule="evenodd" fill="rgb(29.803922%, 53.333333%, 63.137255%)" fill-opacity="1" d="M 229.398438 180.203125 C 231.359375 181.910156 225.925781 189.925781 224.4375 190.992188 C 223.046875 191.46875 213.589844 198.171875 185.792969 183.390625 C 158 168.613281 158.136719 156.691406 157.753906 155.273438 C 157.804688 153.441406 161.351562 144.6875 163.863281 145.355469 C 169.898438 151.707031 180.203125 158.753906 194.773438 166.503906 C 209.34375 174.25 220.886719 178.816406 229.398438 180.203125 Z M 229.398438 180.203125 "/>
<path fill-rule="evenodd" fill="rgb(17.647059%, 39.215686%, 47.843137%)" fill-opacity="1" d="M 212.113281 192.257812 C 213.835938 190.574219 215.324219 188.402344 216.582031 185.75 C 217.84375 183.097656 218.878906 180.304688 219.691406 177.367188 C 218.351562 176.898438 217.683594 176.664062 217.683594 176.664062 C 216.738281 179.164062 215.683594 181.699219 213.863281 185.125 C 212.039062 188.550781 210.6875 190.039062 209.105469 191.8125 C 209.769531 191.9375 210.304688 192.03125 210.703125 192.09375 C 211.101562 192.15625 211.570312 192.210938 212.113281 192.257812 Z M 212.113281 192.257812 "/>
<path fill-rule="evenodd" fill="rgb(17.647059%, 39.215686%, 47.843137%)" fill-opacity="1" d="M 195.121094 187.378906 C 197.554688 184.808594 199.402344 182.195312 200.660156 179.542969 C 201.917969 176.890625 203.03125 173.984375 203.996094 170.832031 C 202.679688 170.191406 202.019531 169.875 202.019531 169.875 C 201.074219 172.375 199.730469 175.179688 197.910156 178.605469 C 196.089844 182.03125 194.433594 184.597656 192.851562 186.367188 C 193.324219 186.582031 193.675781 186.742188 193.914062 186.847656 C 194.183594 186.96875 194.585938 187.144531 195.121094 187.378906 Z M 195.121094 187.378906 "/>
<path fill-rule="evenodd" fill="rgb(17.647059%, 39.215686%, 47.843137%)" fill-opacity="1" d="M 177.144531 177.820312 C 177.914062 174.367188 179.046875 171.375 180.542969 168.847656 C 182.039062 166.320312 183.824219 163.773438 185.898438 161.207031 C 187.164062 161.945312 187.800781 162.3125 187.800781 162.3125 C 186.253906 164.496094 184.679688 167.175781 182.859375 170.601562 C 181.039062 174.027344 179.835938 176.835938 179.253906 179.136719 C 178.808594 178.867188 178.476562 178.660156 178.257812 178.523438 C 178.007812 178.371094 177.636719 178.136719 177.144531 177.820312 Z M 177.144531 177.820312 "/>
<path fill-rule="evenodd" fill="rgb(17.647059%, 39.215686%, 47.843137%)" fill-opacity="1" d="M 163.511719 166.414062 C 163.945312 164.046875 164.910156 161.597656 166.40625 159.070312 C 167.902344 156.542969 169.640625 154.125 171.621094 151.808594 C 172.757812 152.65625 173.328125 153.078125 173.328125 153.078125 C 171.78125 155.261719 170.269531 157.550781 168.449219 160.976562 C 166.628906 164.402344 166.148438 166.355469 165.566406 168.660156 C 165.089844 168.179688 164.714844 167.789062 164.4375 167.496094 C 164.164062 167.199219 163.855469 166.839844 163.511719 166.414062 Z M 163.511719 166.414062 "/>
</svg>
