<?xml version="1.0" encoding="UTF-8"?>
<svg xmlns="http://www.w3.org/2000/svg" xmlns:xlink="http://www.w3.org/1999/xlink" width="300" height="300" viewBox="0 0 300 300">
<path fill-rule="evenodd" fill="rgb(69.803922%, 88.627451%, 88.627451%)" fill-opacity="1" d="M 188.773438 258.121094 C 188.851562 261.886719 188.648438 264.238281 188.167969 265.171875 C 187.441406 266.574219 185.632812 268.65625 187.480469 270.265625 C 189.324219 271.875 191.828125 270.09375 191.828125 267.003906 C 191.828125 264.945312 191.828125 261.621094 191.828125 257.023438 Z M 188.773438 258.121094 "/>
<path fill-rule="evenodd" fill="rgb(61.176471%, 35.294118%, 35.686275%)" fill-opacity="1" d="M 108.171875 257.023438 C 108.171875 255.394531 109.015625 252.257812 113.261719 249.671875 C 117.503906 247.089844 131.730469 242.769531 150.722656 242.769531 C 169.714844 242.769531 184 247.125 188.183594 249.671875 C 192.425781 252.257812 193.269531 255.394531 193.269531 257.023438 C 193.269531 258.476562 169.242188 259.429688 150.722656 259.617188 C 132.445312 259.417969 108.171875 258.457031 108.171875 257.023438 Z M 108.171875 257.023438 "/>
<path fill-rule="evenodd" fill="rgb(92.941176%, 50.980392%, 51.372549%)" fill-opacity="1" d="M 150.894531 259.617188 L 150.253906 259.613281 L 149.292969 259.609375 L 148.027344 259.601562 C 139.566406 259.53125 131.8125 259.210938 131.8125 258.714844 C 131.8125 258.148438 132.203125 257.058594 134.164062 256.15625 C 136.128906 255.257812 142.738281 253.847656 151.53125 253.847656 L 151.917969 253.847656 C 160.515625 253.886719 166.917969 255.269531 168.851562 256.15625 C 170.816406 257.058594 171.207031 258.148438 171.207031 258.714844 C 171.207031 259.21875 163.292969 259.539062 154.71875 259.605469 L 153.769531 259.609375 C 153.238281 259.613281 152.703125 259.613281 152.171875 259.617188 Z M 150.894531 259.617188 "/>
<path fill="none" stroke-width="5" stroke-linecap="round" stroke-linejoin="miter" stroke="rgb(0%, 0%, 0%)" stroke-opacity="1" stroke-miterlimit="4" d="M 0.475 1.163696 C 2.999167 0.389112 5.85375 -0.000887804 9.03875 -0.000887804 C 12.22375 -0.000887804 15.078333 0.389112 17.6025 1.163696 " transform="matrix(0.721154, 0, 0, -0.721154, 108.173077, 228.960297)"/>
<path fill="none" stroke-width="5" stroke-linecap="round" stroke-linejoin="miter" stroke="rgb(0%, 0%, 0%)" stroke-opacity="1" stroke-miterlimit="4" d="M 100.39625 1.163696 C 102.920417 0.389112 105.775 -0.000887804 108.96 -0.000887804 C 112.145 -0.000887804 114.999583 0.389112 117.52375 1.163696 " transform="matrix(0.721154, 0, 0, -0.721154, 108.173077, 228.960297)"/>
</svg>
