<?xml version="1.0" encoding="UTF-8"?>
<svg xmlns="http://www.w3.org/2000/svg" xmlns:xlink="http://www.w3.org/1999/xlink" width="300" height="300" viewBox="0 0 300 300">
<path fill-rule="evenodd" fill="rgb(69.803922%, 88.627451%, 88.627451%)" fill-opacity="1" d="M 91.378906 212.898438 C 91.378906 216.003906 90.699219 218.289062 88.632812 218.421875 L 88.445312 218.425781 C 86.273438 218.390625 85.558594 216.070312 85.558594 212.898438 C 85.558594 210.832031 86.636719 207.800781 88.46875 204.308594 C 90.300781 207.800781 91.378906 210.832031 91.378906 212.898438 Z M 91.378906 212.898438 "/>
<path fill-rule="evenodd" fill="rgb(69.803922%, 88.627451%, 88.627451%)" fill-opacity="1" d="M 82.726562 221.027344 C 82.726562 222.773438 82.34375 224.058594 81.183594 224.132812 L 81.074219 224.136719 C 79.855469 224.113281 79.457031 222.8125 79.457031 221.027344 C 79.457031 219.867188 80.0625 218.164062 81.089844 216.203125 C 82.121094 218.164062 82.726562 219.867188 82.726562 221.027344 Z M 82.726562 221.027344 "/>
<path fill-rule="evenodd" fill="rgb(0%, 0%, 0%)" fill-opacity="1" d="M 121.894531 228.960938 C 121.894531 232.742188 118.824219 235.804688 115.035156 235.804688 C 111.246094 235.804688 108.171875 232.742188 108.171875 228.960938 C 108.171875 225.179688 111.246094 222.117188 115.035156 222.117188 C 118.824219 222.117188 121.894531 225.179688 121.894531 228.960938 Z M 121.894531 228.960938 "/>
<path fill-rule="evenodd" fill="rgb(0%, 0%, 0%)" fill-opacity="1" d="M 193.269531 228.960938 C 193.269531 232.742188 190.199219 235.804688 186.40625 235.804688 C 182.617188 235.804688 179.546875 232.742188 179.546875 228.960938 C 179.546875 225.179688 182.617188 222.117188 186.40625 222.117188 C 190.199219 222.117188 193.269531 225.179688 193.269531 228.960938 Z M 193.269531 228.960938 "/>
<path fill-rule="evenodd" fill="rgb(61.176471%, 35.294118%, 35.686275%)" fill-opacity="1" d="M 108.171875 257.023438 C 108.171875 255.394531 109.015625 252.257812 113.261719 249.671875 C 117.503906 247.089844 131.730469 242.769531 150.722656 242.769531 C 169.714844 242.769531 184 247.125 188.183594 249.671875 C 192.425781 252.257812 193.269531 255.394531 193.269531 257.023438 C 193.269531 258.476562 169.242188 259.429688 150.722656 259.617188 C 132.445312 259.417969 108.171875 258.457031 108.171875 257.023438 Z M 108.171875 257.023438 "/>
<path fill-rule="evenodd" fill="rgb(92.941176%, 50.980392%, 51.372549%)" fill-opacity="1" d="M 150.894531 259.617188 L 150.253906 259.613281 L 149.292969 259.609375 L 148.027344 259.601562 C 139.566406 259.53125 131.8125 259.210938 131.8125 258.714844 C 131.8125 258.148438 132.203125 257.058594 134.164062 256.15625 C 136.128906 255.257812 142.738281 253.847656 151.53125 253.847656 L 151.917969 253.847656 C 160.515625 253.886719 166.917969 255.269531 168.851562 256.15625 C 170.816406 257.058594 171.207031 258.148438 171.207031 258.714844 C 171.207031 259.21875 163.292969 259.539062 154.71875 259.605469 L 153.769531 259.609375 C 153.238281 259.613281 152.703125 259.613281 152.171875 259.617188 Z M 150.894531 259.617188 "/>
</svg>
