<?xml version="1.0" encoding="UTF-8"?>
<svg xmlns="http://www.w3.org/2000/svg" xmlns:xlink="http://www.w3.org/1999/xlink" width="300" height="300" viewBox="0 0 300 300">
<path fill-rule="evenodd" fill="rgb(0%, 0%, 0%)" fill-opacity="1" d="M 121.894531 228.960938 C 121.894531 232.742188 118.824219 235.804688 115.035156 235.804688 C 111.246094 235.804688 108.171875 232.742188 108.171875 228.960938 C 108.171875 225.179688 111.246094 222.117188 115.035156 222.117188 C 118.824219 222.117188 121.894531 225.179688 121.894531 228.960938 Z M 121.894531 228.960938 "/>
<path fill-rule="evenodd" fill="rgb(0%, 0%, 0%)" fill-opacity="1" d="M 193.269531 228.960938 C 193.269531 232.742188 190.195312 235.804688 186.40625 235.804688 C 182.617188 235.804688 179.546875 232.742188 179.546875 228.960938 C 179.546875 225.179688 182.617188 222.117188 186.40625 222.117188 C 190.195312 222.117188 193.269531 225.179688 193.269531 228.960938 Z M 193.269531 228.960938 "/>
<path fill="none" stroke-width="4" stroke-linecap="round" stroke-linejoin="miter" stroke="rgb(78.823529%, 54.509804%, 54.901961%)" stroke-opacity="1" stroke-miterlimit="4" d="M -0.00166667 38.661237 C 11.324583 51.455403 46.662917 31.00207 59.002083 31.00207 C 71.34125 31.00207 108.645833 51.36332 118.000417 38.661237 " transform="matrix(0.721154, 0, 0, 0.721154, 108.173077, 222.115394)"/>
</svg>
