<?xml version="1.0" encoding="UTF-8"?>
<svg xmlns="http://www.w3.org/2000/svg" xmlns:xlink="http://www.w3.org/1999/xlink" width="300" height="300" viewBox="0 0 300 300">
<path fill-rule="evenodd" fill="rgb(78.823529%, 54.509804%, 54.901961%)" fill-opacity="1" d="M 227.164062 212.019531 C 235.636719 211.355469 237.253906 208.511719 232.019531 203.496094 C 232.019531 203.496094 244.292969 204.5 238.15625 195.769531 C 238.15625 195.769531 250.125 193.195312 243.183594 187.039062 C 243.183594 187.039062 253.964844 183.609375 246.796875 179.511719 C 246.796875 179.511719 256.441406 175.324219 250.433594 172.355469 "/>
<path fill-rule="evenodd" fill="rgb(78.823529%, 54.509804%, 54.901961%)" fill-opacity="1" d="M 231.757812 235.480469 C 240.066406 237.476562 242.496094 235.253906 239.054688 228.820312 C 239.054688 228.820312 250.476562 233.59375 247.328125 223.324219 C 247.328125 223.324219 259.570312 224.578125 254.851562 216.523438 C 254.851562 216.523438 266.222656 216.585938 260.648438 210.433594 C 260.648438 210.433594 271.171875 209.417969 266.351562 204.707031 "/>
<path fill-rule="evenodd" fill="rgb(78.823529%, 54.509804%, 54.901961%)" fill-opacity="1" d="M 230.125 244.039062 C 230.125 244.039062 236.703125 250.546875 237.394531 242.546875 C 237.394531 242.546875 245.527344 246.84375 244.515625 239.9375 C 244.515625 239.9375 252.378906 243.167969 250.238281 237.34375 "/>
<path fill-rule="evenodd" fill="rgb(78.823529%, 54.509804%, 54.901961%)" fill-opacity="1" d="M 72.835938 212.742188 C 64.363281 212.074219 62.746094 209.234375 67.980469 204.214844 C 67.980469 204.214844 55.707031 205.21875 61.84375 196.488281 C 61.84375 196.488281 49.875 193.917969 56.816406 187.761719 C 56.816406 187.761719 46.035156 184.332031 53.203125 180.234375 C 53.203125 180.234375 43.558594 176.046875 49.566406 173.078125 "/>
<path fill-rule="evenodd" fill="rgb(78.823529%, 54.509804%, 54.901961%)" fill-opacity="1" d="M 68.351562 236.171875 C 60.046875 238.167969 57.613281 235.945312 61.058594 229.511719 C 61.058594 229.511719 49.636719 234.289062 52.785156 224.015625 C 52.785156 224.015625 40.542969 225.269531 45.261719 217.214844 C 45.261719 217.214844 33.890625 217.277344 39.464844 211.125 C 39.464844 211.125 28.941406 210.109375 33.761719 205.398438 "/>
<path fill-rule="evenodd" fill="rgb(78.823529%, 54.509804%, 54.901961%)" fill-opacity="1" d="M 71.8125 245.421875 C 71.8125 245.421875 65.230469 251.929688 64.539062 243.929688 C 64.539062 243.929688 56.40625 248.226562 57.417969 241.320312 C 57.417969 241.320312 49.554688 244.550781 51.695312 238.726562 "/>
<path fill-rule="evenodd" fill="rgb(98.431373%, 85.882353%, 85.882353%)" fill-opacity="1" d="M 148.8125 294.945312 C 109.78125 294.445312 72.332031 269.292969 67.941406 244.152344 L 67.511719 244.011719 C 53.136719 240.21875 45.585938 236.621094 46.71875 233.640625 C 47.902344 230.527344 55.335938 231.421875 67.511719 235.773438 L 67.511719 235.515625 C 39.085938 212.621094 25.066406 198.34375 28.980469 195.007812 C 32.839844 191.710938 48.480469 197.964844 72.878906 212.019531 C 51.152344 180.125 43.457031 162.839844 49.398438 161.261719 C 55.40625 159.667969 66.507812 170.234375 83.179688 191.082031 C 96.019531 171.144531 117.601562 160.792969 149.996094 160.097656 C 182.390625 160.792969 203.796875 171.144531 216.636719 191.082031 C 232.757812 171.054688 244.527344 159.699219 250.417969 161.261719 C 256.359375 162.839844 248.664062 180.125 226.9375 212.019531 C 251.335938 197.964844 266.972656 191.710938 270.835938 195.007812 C 274.828125 198.414062 261.980469 212 232.300781 235.773438 L 232.300781 235.515625 C 244.050781 231.386719 251.9375 230.589844 253.097656 233.640625 C 254.265625 236.710938 247.1875 240.214844 231.871094 244.152344 C 227.441406 269.546875 189.453125 294.953125 149.996094 294.953125 Z M 148.8125 294.945312 "/>
</svg>
