<?xml version="1.0" encoding="UTF-8"?>
<svg width="416px" height="416px" viewBox="0 0 416 416" version="1.1" xmlns="http://www.w3.org/2000/svg" xmlns:xlink="http://www.w3.org/1999/xlink">
    <title>Kitty</title>
    <g id="Kitty" stroke="none" stroke-width="1" fill="none" fill-rule="evenodd">
        <g id="Accessories" transform="translate(116, 122.9813)">
            <g id="Cold" transform="translate(0, -0)">
                <g id="Scarf" transform="translate(0, 250.0187)">
                    <path d="M181.17791,2.84217094e-14 C187.225358,1.31368589 184.757689,22.8122044 182.808465,26.4787394 C180.407333,28.8705678 167.983917,52 92.7899514,52 C17.5959861,52 4.52427249,28.3508396 2.12314024,25.9590112 C0.17391625,22.2924763 -2.16529305,1.31368589 3.88215497,2.84217094e-14 C23.7359823,6.19108572 53.3719145,9.28662859 92.7899514,9.28662859 C132.207988,9.28662859 161.670641,6.19108572 181.17791,2.84217094e-14 Z" id="Base" fill="#F0E191"></path>
                    <g id="Stripes" transform="translate(24, 5)" fill="#B9A539">
                        <path d="M135.765653,37.396458 C137.529423,32.2568728 138.248967,26.4035709 137.924285,19.8365522 C137.599603,13.2695334 136.635631,6.65734939 135.032368,0 C131.631775,0.478178846 129.931478,0.717268269 129.931478,0.717268269 C130.753322,6.65325607 131.381383,12.7736577 131.381383,21.4576464 C131.381383,30.1416351 130.184967,34.5095961 128.810983,39.6731043 C130.377808,39.221279 131.624337,38.848215 132.550571,38.5539122 C133.476804,38.2596095 134.548498,37.8737914 135.765653,37.396458 Z" id="4th-Stripe"></path>
                        <path d="M93.812853,45.6134903 C96.0954285,37.9720937 97.0743754,30.867886 96.7496936,24.3008673 C96.4250118,17.7338485 95.5014529,10.8251096 93.979017,3.57465041 C90.4277907,3.69883605 88.6521775,3.76092887 88.6521775,3.76092887 C89.4740209,9.69691667 89.7940198,16.6510659 89.7940198,25.3350546 C89.7940198,34.0190433 89.1705789,40.8363628 87.7965951,46 C89.0542688,45.9279551 89.9962383,45.8718156 90.6225037,45.8315817 C91.3331845,45.7859246 92.3966343,45.7132275 93.812853,45.6134903 Z" id="3rd-Stripe"></path>
                        <path d="M47.4408991,45.6134903 C49.7234746,37.9720937 50.7024215,30.867886 50.3777397,24.3008673 C50.0530579,17.7338485 49.129499,10.8251096 47.6070631,3.57465041 C44.0558368,3.69883605 42.2802236,3.76092887 42.2802236,3.76092887 C43.102067,9.69691667 43.4220659,16.6510659 43.4220659,25.3350546 C43.4220659,34.0190433 42.798625,40.8363628 41.4246412,46 C42.6823149,45.9279551 43.6242844,45.8718156 44.2505498,45.8315817 C44.9612306,45.7859246 46.0246804,45.7132275 47.4408991,45.6134903 Z" id="2nd-Stripe" transform="translate(45.9315, 24.7873) scale(-1, 1) translate(-45.9315, -24.7873)"></path>
                        <path d="M6.95466986,37.396458 C8.71843968,32.2568728 9.4379837,26.4035709 9.1133019,19.8365522 C8.7886201,13.2695334 7.82464766,6.65734939 6.22138459,0 C2.82079181,0.478178846 1.12049542,0.717268269 1.12049542,0.717268269 C1.94233877,6.65325607 2.57040049,12.7736577 2.57040049,21.4576464 C2.57040049,30.1416351 1.37398382,34.5095961 0,39.6731043 C1.56682522,39.221279 2.81335449,38.848215 3.73958782,38.5539122 C4.66582115,38.2596095 5.73751516,37.8737914 6.95466986,37.396458 Z" id="1st-Stripe" transform="translate(4.5945, 19.8366) scale(-1, 1) translate(-4.5945, -19.8366)"></path>
                    </g>
                </g>
                <g id="Beanie" transform="translate(158.0276, 71.4274) rotate(28) translate(-158.0276, -71.4274)translate(99.6409, 21.5756)">
                    <path d="M2.25375533,67.4105104 C3.09401713,22.4701701 29.239514,-8.39439958e-14 80.690246,-8.39439958e-14 C89.4740276,-8.39439958e-14 111.048736,1.27966577 115.795764,9.43768621 C120.542792,17.5957067 106.613491,20.9054574 103.712381,30.2221275 C101.778308,36.4332409 102.267997,48.8293685 105.181448,67.4105104 C94.570719,71.4194712 77.4102918,73.4239516 53.7001665,73.4239516 C29.9900411,73.4239516 12.8412374,71.4194712 2.25375533,67.4105104 Z" id="Path-2" fill="#B9A539"></path>
                    <path d="M105.181448,67.4105104 C108.692248,68.2263367 107.259661,81.5773648 106.128054,83.8543594 C104.734095,85.3397346 97.5217761,99.703594 53.8684955,99.703594 C10.215215,99.703594 2.62653174,85.0169726 1.2325728,83.5315973 C0.100965747,81.2546027 -1.25704429,68.2263367 2.25375533,67.4105104 C13.7797427,71.2553037 30.9846561,73.1777003 53.8684955,73.1777003 C76.752335,73.1777003 93.8566525,71.2553037 105.181448,67.4105104 Z" id="Base" fill="#F0E191"></path>
                    <g id="Stripes" transform="translate(14.2567, 70.2599)" fill="#B9A539">
                        <path d="M77.6097175,23.1645833 C78.6179671,19.980957 79.0292907,16.3552312 78.843688,12.2874061 C78.6580854,8.21958093 78.1070357,4.12377891 77.1905388,8.75592338e-15 C75.2466079,0.296199542 74.2746425,0.444299312 74.2746425,0.444299312 C74.7444449,4.12124337 75.1034731,7.91241937 75.1034731,13.2915646 C75.1034731,18.6707099 74.4195478,21.3763671 73.6341172,24.5748122 C74.5297846,24.2949369 75.2423564,24.0638489 75.7718328,23.8815482 C76.3013092,23.6992475 76.9139374,23.4602592 77.6097175,23.1645833 Z" id="4th-Stripe"></path>
                        <path d="M53.6276213,28.2544806 C54.9324435,23.5211508 55.4920533,19.1205733 55.3064507,15.0527482 C55.120848,10.984923 54.5929005,6.70542524 53.7226081,2.21425482 C51.6925683,2.29117944 50.6775484,2.32964176 50.6775484,2.32964176 C51.1473508,6.00658582 51.3302766,10.3142122 51.3302766,15.6933574 C51.3302766,21.0725027 50.9738899,25.2953723 50.1884593,28.4938973 C50.9074018,28.4492703 51.4458737,28.4144957 51.803875,28.3895735 C52.2101319,28.361292 52.8180474,28.316261 53.6276213,28.2544806 Z" id="3rd-Stripe"></path>
                        <path d="M27.1193391,28.2544806 C28.4241613,23.5211508 28.9837711,19.1205733 28.7981685,15.0527482 C28.6125658,10.984923 28.0846183,6.70542524 27.2143259,2.21425482 C25.1842861,2.29117944 24.1692662,2.32964176 24.1692662,2.32964176 C24.6390687,6.00658582 24.8219944,10.3142122 24.8219944,15.6933574 C24.8219944,21.0725027 24.4656077,25.2953723 23.6801771,28.4938973 C24.3991196,28.4492703 24.9375915,28.4144957 25.2955928,28.3895735 C25.7018497,28.361292 26.3097652,28.316261 27.1193391,28.2544806 Z" id="2nd-Stripe" transform="translate(26.2565, 15.3541) scale(-1, 1) translate(-26.2565, -15.3541)"></path>
                        <path d="M3.97560025,23.1645833 C4.98384994,19.980957 5.39517347,16.3552312 5.20957083,12.2874061 C5.0239682,8.21958093 4.47291846,4.12377891 3.5564216,5.03164929e-16 C1.61249072,0.296199542 0.640525283,0.444299312 0.640525283,0.444299312 C1.11032769,4.12124337 1.46935585,7.91241937 1.46935585,13.2915646 C1.46935585,18.6707099 0.785430584,21.3763671 -3.28861316e-14,24.5748122 C0.89566735,24.2949369 1.60823922,24.0638489 2.1377156,23.8815482 C2.66719198,23.6992475 3.2798202,23.4602592 3.97560025,23.1645833 Z" id="1st-Stripe" transform="translate(2.6264, 12.2874) scale(-1, 1) translate(-2.6264, -12.2874)"></path>
                    </g>
                </g>
            </g>
        </g>
    </g>
</svg>