<?xml version="1.0" encoding="UTF-8"?>
<svg width="416px" height="416px" viewBox="0 0 416 416" version="1.1" xmlns="http://www.w3.org/2000/svg" xmlns:xlink="http://www.w3.org/1999/xlink">
    <title>Kitty</title>
    <g id="Kitty" stroke="none" stroke-width="1" fill="none" fill-rule="evenodd">
        <g id="Head" transform="translate(59.9818, 163.2345)">
            <g id="Ears" transform="translate(17.6517, 0)">
                <path d="M0,41.613353 C48.2714608,10.3245511 76.3912637,-3.31987006 84.3594088,0.680089442 C96.3116264,6.68002869 84.5006784,122.33144 71.2943613,135.81018" id="Outer-Left" fill="#C47F4A" transform="translate(44.654, 67.9051) scale(-1, 1) translate(-44.654, -67.9051)"></path>
                <path d="M172.305862,41.613353 C221.062889,10.3245511 249.425476,-3.31987006 257.393621,0.680089442 C269.345838,6.68002869 257.53489,122.33144 244.328573,135.81018" id="Outer-Right" fill="#C47F4A"></path>
                <path d="M13.0651789,56.7407147 C53.5845755,30.476679 77.1885317,19.0234579 83.8770475,22.3810515 C93.9098213,27.4174418 83.9956302,124.496033 72.9101567,135.81018" id="Inner-Left" fill="#FBDBDB" transform="translate(50.5481, 78.8102) scale(-1, 1) translate(-50.5481, -78.8102)"></path>
                <path d="M173.699906,56.7407147 C214.62689,30.476679 238.434641,19.0234579 245.123156,22.3810515 C255.15593,27.4174418 245.241739,124.496033 234.156266,135.81018" id="Inner-Right" fill="#FBDBDB"></path>
            </g>
            <path d="M31.8481325,160.087497 C31.8481325,120.608148 63.0195201,33.7854174 148.518183,33.765546 L150.302911,33.7854174 C235.368379,35.6760786 265.188234,121.002942 265.188234,160.087497 C265.188234,199.566846 208.034564,241.765546 148.518183,241.765546 C89.0018026,241.765546 31.8481325,199.566846 31.8481325,160.087497 Z" id="Face" fill="#C47F4A"></path>
            <path d="M296.976622,173.08466 C275.46652,165.028027 242.793773,164.615963 224,172.164291" id="Path" stroke="#FFFFFF" stroke-width="2" stroke-linecap="round" stroke-linejoin="round"></path>
            <path d="M279.976622,193.887192 C274.912203,188.139781 250.287864,184.721731 224.976622,186.252763" id="Path" stroke="#FFFFFF" stroke-width="2" stroke-linecap="round" stroke-linejoin="round"></path>
            <path d="M72.9766225,173.08466 C51.4665197,165.028027 18.7937729,164.615963 0,172.164291" id="Path" stroke="#FFFFFF" stroke-width="2" stroke-linecap="round" stroke-linejoin="round" transform="translate(36.4883, 169.9233) scale(-1, 1) translate(-36.4883, -169.9233)"></path>
            <path d="M72.9766225,193.887192 C67.9122033,188.139781 43.2878645,184.721731 17.9766225,186.252763" id="Path" stroke="#FFFFFF" stroke-width="2" stroke-linecap="round" stroke-linejoin="round" transform="translate(45.4766, 189.8872) scale(-1, 1) translate(-45.4766, -189.8872)"></path>
            <polygon id="Nose" stroke="#FBDBDB" stroke-width="3" fill="#FBDBDB" stroke-linejoin="round" transform="translate(148.5182, 170.2655) scale(1, -1) translate(-148.5182, -170.2655)" points="148.518183 168.765546 154.018183 171.765546 143.018183 171.765546"></polygon>
        </g>
    </g>
</svg>