<?xml version="1.0" encoding="UTF-8"?>
<svg width="416px" height="416px" viewBox="0 0 416 416" version="1.1" xmlns="http://www.w3.org/2000/svg" xmlns:xlink="http://www.w3.org/1999/xlink">
    <title>Artboard</title>
    <g id="Artboard" stroke="none" stroke-width="1" fill="none" fill-rule="evenodd">
        <g id="Walker" transform="translate(104, 330)">
            <ellipse id="Body" fill="#104256" cx="44.5" cy="86.1755725" rx="34.7909091" ry="19.8244275"></ellipse>
            <g id="Head">
                <path d="M44.1701434,83.3408516 C29.4984702,83.1654397 16.5969204,74.3273486 11.1167905,60.8281097 C8.30777501,61.3955972 5.83566357,60.6670577 3.70045615,58.6424912 C0.444431124,55.5551849 -0.787930385,50.9167287 0.505578833,46.4985393 C1.36791831,43.5530796 3.94143684,42.5942927 8.22613441,43.6221783 C9.21004592,23.363922 25.3182524,7.25991053 44.6152756,7.25991053 C63.8117954,7.25991053 79.8379221,23.363922 80.8167092,43.6221783 C85.0790911,42.5942927 87.6392061,43.5530796 88.4970543,46.4985393 C89.7838267,50.9167287 88.5578836,55.5551849 85.3188167,58.6424912 C83.1947299,60.6670577 80.7354938,61.3955972 77.9411083,60.8281097 C72.4344537,74.4637045 59.393316,83.3435115 44.6152756,83.3435115 L44.1701434,83.3408516 Z" fill="#DCBDB4"></path>
                <path d="M15.6408029,34.6657983 C11.9762697,44.6826395 13.6748867,56.1611978 12.6772245,56.1611978 C11.3785911,56.1611978 9.13635323,51.7383578 7.75872431,48.8741767 C5.80693546,44.3051341 3.49391292,38.6121103 3.49391292,31.9439478 C3.49391292,28.3783078 5.22195796,26.1097367 8.67804806,24.5289445 C7.78873823,17.7876062 11.8198192,11.7110257 15.6408029,9.02105357 C19.4617865,6.33108144 31.523125,2.76398525 39.3149255,1.33227126 C47.106726,-0.0994427318 64.1073618,-0.369940104 64.7889375,0.485619174 C65.2433214,1.05599203 64.7033861,1.81544739 63.1691316,2.76398525 C71.0969394,3.19463807 76.0513041,4.01007335 76.5397384,5.13236085 C77.0432789,6.28935828 75.6145852,8.88525795 72.2536573,12.9200599 C78.7432794,16.6957719 82.6108988,20.7952682 83.8565156,25.2185487 C85.7249406,31.8534695 84.5300681,43.6337407 82.7694286,48.4669542 C81.0087892,53.3001676 78.7602644,56.8526178 77.5630867,56.8526178 C76.52418,56.8526178 78.4889883,44.089608 74.5995084,35.3572184 C69.0214636,29.4141277 61.05256,27.1038245 50.6927976,28.4263089 L50.634956,28.3783051 C49.7100769,27.6295728 37.7077491,18.5918975 15.6408029,34.6657983 Z" id="Hair" fill="#413833"></path>
                <ellipse id="Blush" fill="#BD8483" cx="22.3076378" cy="58.8332905" rx="5.57690945" ry="2.7656802"></ellipse>
                <ellipse id="Blush" fill="#BD8483" cx="66.5743566" cy="58.8332905" rx="5.57690945" ry="2.7656802"></ellipse>
            </g>
            <g id="Hands" transform="translate(12.1364, 75.2519)" fill="#BD8F82">
                <ellipse id="Left" cx="10.9618768" cy="7.6870229" rx="10.9618768" ry="7.6870229"></ellipse>
                <ellipse id="Right" cx="53.7653959" cy="7.6870229" rx="10.9618768" ry="7.6870229"></ellipse>
            </g>
            <g id="Expressions" transform="translate(26.7, 46.9313)">
                <g id="Kiss" transform="translate(0.1728, 3.0088)">
                    <path d="M16.0187986,6.08196615 C16.9100597,3.64016762 21.672354,3.64016762 22.0961431,6.08196615 C22.3786692,7.70983184 21.6069528,8.79948477 19.780994,9.35092493 C21.7509071,9.71010339 22.7358636,10.6337492 22.7358636,12.1218625 C22.7358636,14.3540323 21.0557725,15.7927593 19.0513884,15.7927593 C17.7151323,15.7927593 16.704269,15.2094317 16.0187986,14.0427764" id="Mouth" stroke="#BD8F82" stroke-width="2" stroke-linecap="round" stroke-linejoin="round"></path>
                    <path d="M28.6265833,7.53255636 C29.4751107,7.53255636 29.6578901,8.02969737 29.5927284,8.61255873 C29.5152087,9.30596023 28.8254327,10.0152337 27.5668986,10.740264 C26.3082998,10.0152137 25.6182251,9.30597857 25.5407034,8.61255873 C25.4755416,8.02969737 25.658321,7.53255636 26.5068484,7.53255636 C27.04779,7.53255636 27.40114,7.72789125 27.5668986,8.11856104 C27.7322917,7.72789125 28.0856418,7.53255636 28.6265833,7.53255636 Z" id="Heart" fill="#8D0B0B"></path>
                    <path d="M0,0.419880699 C0.916778877,0.139960233 1.95367208,0 3.11067961,0 C4.26768714,0 5.30458035,0.139960233 6.22135922,0.419880699" id="Left-Eye" stroke="#4C88A1" stroke-width="3" stroke-linecap="round"></path>
                    <path d="M29.0330097,0.419880699 C29.9499477,0.139960233 30.9868409,0 32.1436893,0 C33.3005377,0 34.3374309,0.139960233 35.2543689,0.419880699" id="Right-Eye" stroke="#4C88A1" stroke-width="3" stroke-linecap="round"></path>
                </g>
            </g>
        </g>
    </g>
</svg>