<?xml version="1.0" encoding="UTF-8"?>
<svg xmlns="http://www.w3.org/2000/svg" xmlns:xlink="http://www.w3.org/1999/xlink" width="300" height="300" viewBox="0 0 300 300">
<path fill="none" stroke-width="5" stroke-linecap="round" stroke-linejoin="miter" stroke="rgb(0%, 0%, 0%)" stroke-opacity="1" stroke-miterlimit="4" d="M -0.000801468 1.163696 C 2.523365 0.389112 5.377949 -0.000887804 8.562949 -0.000887804 C 11.747949 -0.000887804 14.602532 0.389112 17.126699 1.163696 " transform="matrix(0.721154, 0, 0, -0.721154, 108.516203, 228.960297)"/>
<path fill="none" stroke-width="5" stroke-linecap="round" stroke-linejoin="miter" stroke="rgb(0%, 0%, 0%)" stroke-opacity="1" stroke-miterlimit="4" d="M 99.920449 1.163696 C 102.444615 0.389112 105.299199 -0.000887804 108.484199 -0.000887804 C 111.669199 -0.000887804 114.523782 0.389112 117.047949 1.163696 " transform="matrix(0.721154, 0, 0, -0.721154, 108.516203, 228.960297)"/>
<path fill-rule="evenodd" fill="rgb(94.117647%, 88.235294%, 56.862745%)" fill-opacity="1" d="M 131.273438 262.085938 C 134.140625 265.214844 141.957031 268.515625 150 268.515625 C 158.035156 268.515625 165.765625 265.222656 168.785156 262.085938 "/>
<path fill-rule="evenodd" fill="rgb(94.117647%, 88.235294%, 56.862745%)" fill-opacity="1" d="M 130.535156 260.582031 C 130.832031 255.78125 130.855469 243.027344 150.359375 243.027344 C 169.867188 243.027344 168.964844 255.867188 169.472656 260.582031 "/>
<path fill-rule="evenodd" fill="rgb(69.803922%, 88.627451%, 88.627451%)" fill-opacity="1" d="M 166.417969 262.449219 C 166.496094 266.214844 166.292969 268.566406 165.808594 269.5 C 165.085938 270.902344 163.277344 272.984375 165.125 274.59375 C 166.96875 276.203125 169.472656 274.417969 169.472656 271.332031 C 169.472656 269.273438 169.472656 265.945312 169.472656 261.351562 Z M 166.417969 262.449219 "/>
<path fill-rule="evenodd" fill="rgb(51.372549%, 19.607843%, 9.803922%)" fill-opacity="1" d="M 149.390625 263.941406 L 148.757812 263.9375 L 147.8125 263.925781 L 146.558594 263.902344 C 138.195312 263.703125 130.527344 262.785156 130.527344 261.351562 C 130.527344 259.71875 130.914062 256.585938 132.855469 254 C 134.796875 251.414062 141.332031 247.355469 150.023438 247.355469 L 150.40625 247.359375 C 158.902344 247.476562 165.230469 251.453125 167.144531 254 C 169.085938 256.585938 169.472656 259.71875 169.472656 261.351562 C 169.472656 262.800781 161.648438 263.722656 153.175781 263.910156 L 152.234375 263.925781 C 151.707031 263.933594 151.183594 263.941406 150.65625 263.941406 Z M 149.390625 263.941406 "/>
<path fill-rule="evenodd" fill="rgb(86.666667%, 47.45098%, 35.294118%)" fill-opacity="1" d="M 150.078125 263.941406 L 149.785156 263.941406 L 149.347656 263.9375 L 148.769531 263.929688 C 144.894531 263.859375 141.347656 263.539062 141.347656 263.039062 C 141.347656 262.472656 141.523438 261.382812 142.425781 260.484375 C 143.324219 259.585938 146.347656 258.171875 150.371094 258.171875 L 150.546875 258.175781 C 154.484375 258.214844 157.410156 259.597656 158.296875 260.484375 C 159.195312 261.382812 159.375 262.472656 159.375 263.039062 C 159.375 263.546875 155.753906 263.867188 151.832031 263.929688 L 151.394531 263.9375 C 151.152344 263.941406 150.90625 263.941406 150.664062 263.941406 Z M 150.078125 263.941406 "/>
</svg>
