<?xml version="1.0" encoding="UTF-8"?>
<svg xmlns="http://www.w3.org/2000/svg" xmlns:xlink="http://www.w3.org/1999/xlink" width="300" height="300" viewBox="0 0 300 300">
<path fill-rule="evenodd" fill="rgb(39.215686%, 39.215686%, 39.215686%)" fill-opacity="1" d="M 66.222656 233.164062 C 66.222656 204.695312 88.703125 142.082031 150.359375 142.066406 L 151.648438 142.082031 C 212.992188 143.445312 234.496094 204.980469 234.496094 233.164062 C 234.496094 261.636719 193.28125 292.066406 150.359375 292.066406 C 107.441406 292.066406 66.222656 261.636719 66.222656 233.164062 Z M 66.222656 233.164062 "/>
<path fill-rule="evenodd" fill="rgb(100%, 100%, 100%)" fill-opacity="1" d="M 108.171875 187.652344 C 139.894531 187.652344 144.558594 218.589844 138.460938 254.089844 L 162.980469 254.089844 C 157.363281 218.589844 159.628906 187.652344 191.347656 187.652344 C 238.929688 187.652344 233.550781 284.285156 149.519531 284.285156 C 67.898438 282.390625 61.070312 187.652344 108.171875 187.652344 Z M 108.171875 187.652344 "/>
</svg>
