<?xml version="1.0" encoding="UTF-8"?>
<svg xmlns="http://www.w3.org/2000/svg" xmlns:xlink="http://www.w3.org/1999/xlink" width="200" height="200" viewBox="0 0 200 200">
<path fill="none" stroke-width="5" stroke-linecap="round" stroke-linejoin="miter" stroke="rgb(0%, 0%, 0%)" stroke-opacity="1" stroke-miterlimit="4" d="M -0.000801468 1.160987 C 2.526074 0.389112 5.377949 -0.000887804 8.562949 -0.000887804 C 11.747949 -0.000887804 14.599824 0.389112 17.126699 1.160987 " transform="matrix(0.480769, 0, 0, -0.480769, 72.344135, 152.640198)"/>
<path fill="none" stroke-width="5" stroke-linecap="round" stroke-linejoin="miter" stroke="rgb(0%, 0%, 0%)" stroke-opacity="1" stroke-miterlimit="4" d="M 99.920449 1.160987 C 102.447324 0.389112 105.299199 -0.000887804 108.484199 -0.000887804 C 111.669199 -0.000887804 114.521074 0.389112 117.047949 1.160987 " transform="matrix(0.480769, 0, 0, -0.480769, 72.344135, 152.640198)"/>
<path fill-rule="evenodd" fill="rgb(94.117647%, 88.235294%, 56.862745%)" fill-opacity="1" d="M 87.515625 174.722656 C 89.425781 176.808594 94.636719 179.007812 100 179.007812 C 105.355469 179.007812 110.511719 176.8125 112.523438 174.722656 "/>
<path fill-rule="evenodd" fill="rgb(94.117647%, 88.235294%, 56.862745%)" fill-opacity="1" d="M 87.023438 173.71875 C 87.222656 170.519531 87.238281 162.019531 100.242188 162.019531 C 113.242188 162.019531 112.644531 170.578125 112.980469 173.71875 "/>
<path fill-rule="evenodd" fill="rgb(69.803922%, 88.627451%, 88.627451%)" fill-opacity="1" d="M 110.945312 174.964844 C 110.996094 177.476562 110.863281 179.042969 110.539062 179.667969 C 110.058594 180.601562 108.851562 181.988281 110.082031 183.0625 C 111.3125 184.132812 112.980469 182.945312 112.980469 180.886719 C 112.980469 179.515625 112.980469 177.296875 112.980469 174.234375 Z M 110.945312 174.964844 "/>
<path fill-rule="evenodd" fill="rgb(51.372549%, 19.607843%, 9.803922%)" fill-opacity="1" d="M 99.59375 175.960938 L 99.171875 175.957031 L 98.539062 175.949219 L 97.707031 175.933594 C 92.128906 175.800781 87.019531 175.191406 87.019531 174.234375 C 87.019531 173.148438 87.277344 171.058594 88.570312 169.332031 C 89.867188 167.609375 94.222656 164.902344 100.015625 164.902344 L 100.269531 164.90625 C 105.9375 164.984375 110.152344 167.636719 111.429688 169.332031 C 112.722656 171.058594 112.980469 173.148438 112.980469 174.234375 C 112.980469 175.203125 107.765625 175.816406 102.117188 175.941406 L 101.488281 175.949219 C 101.140625 175.957031 100.789062 175.960938 100.4375 175.960938 Z M 99.59375 175.960938 "/>
<path fill-rule="evenodd" fill="rgb(86.666667%, 47.45098%, 35.294118%)" fill-opacity="1" d="M 100.050781 175.960938 L 99.855469 175.960938 L 99.566406 175.957031 L 99.179688 175.953125 C 96.597656 175.90625 94.230469 175.691406 94.230469 175.359375 C 94.230469 174.984375 94.351562 174.253906 94.949219 173.65625 C 95.546875 173.054688 97.566406 172.117188 100.246094 172.117188 L 100.367188 172.117188 C 102.988281 172.144531 104.941406 173.066406 105.53125 173.65625 C 106.132812 174.253906 106.25 174.984375 106.25 175.359375 C 106.25 175.695312 103.835938 175.910156 101.21875 175.953125 L 100.929688 175.957031 C 100.769531 175.960938 100.605469 175.960938 100.441406 175.960938 Z M 100.050781 175.960938 "/>
</svg>
