<?xml version="1.0" encoding="UTF-8"?>
<svg xmlns="http://www.w3.org/2000/svg" xmlns:xlink="http://www.w3.org/1999/xlink" width="200" height="200" viewBox="0 0 200 200">
<path fill-rule="evenodd" fill="rgb(39.215686%, 39.215686%, 39.215686%)" fill-opacity="1" d="M 44.148438 155.441406 C 44.148438 136.460938 59.136719 94.722656 100.242188 94.710938 L 101.097656 94.722656 C 141.996094 95.628906 156.332031 136.652344 156.332031 155.441406 C 156.332031 174.421875 128.855469 194.710938 100.242188 194.710938 C 71.625 194.710938 44.148438 174.421875 44.148438 155.441406 Z M 44.148438 155.441406 "/>
<path fill-rule="evenodd" fill="rgb(100%, 100%, 100%)" fill-opacity="1" d="M 72.117188 125.101562 C 93.261719 125.101562 96.371094 145.726562 92.308594 169.394531 L 108.652344 169.394531 C 104.910156 145.726562 106.417969 125.101562 127.566406 125.101562 C 159.285156 125.101562 155.699219 189.523438 99.679688 189.523438 C 45.265625 188.261719 40.710938 125.101562 72.117188 125.101562 Z M 72.117188 125.101562 "/>
</svg>
