<?xml version="1.0" encoding="UTF-8"?>
<svg xmlns="http://www.w3.org/2000/svg" xmlns:xlink="http://www.w3.org/1999/xlink" width="400" height="400" viewBox="0 0 400 400">
<path fill-rule="evenodd" fill="rgb(94.117647%, 88.235294%, 56.862745%)" fill-opacity="1" d="M 285.746094 358.652344 C 291.5625 359.917969 289.191406 380.589844 287.316406 384.113281 C 285.007812 386.414062 273.0625 408.652344 200.757812 408.652344 C 128.457031 408.652344 115.890625 385.914062 113.578125 383.613281 C 111.707031 380.089844 109.457031 359.917969 115.269531 358.652344 C 134.363281 364.605469 162.859375 367.582031 200.757812 367.582031 C 238.660156 367.582031 266.992188 364.605469 285.746094 358.652344 Z M 285.746094 358.652344 "/>
<path fill-rule="evenodd" fill="rgb(72.54902%, 64.705882%, 22.352941%)" fill-opacity="1" d="M 265.160156 399.417969 C 266.855469 394.476562 267.546875 388.847656 267.234375 382.535156 C 266.921875 376.222656 265.996094 369.863281 264.453125 363.460938 C 261.183594 363.921875 259.550781 364.152344 259.550781 364.152344 C 260.339844 369.859375 260.945312 375.742188 260.945312 384.09375 C 260.945312 392.445312 259.792969 396.644531 258.472656 401.609375 C 259.980469 401.175781 261.175781 400.816406 262.066406 400.53125 C 262.957031 400.25 263.988281 399.878906 265.160156 399.417969 Z M 265.160156 399.417969 "/>
<path fill-rule="evenodd" fill="rgb(72.54902%, 64.705882%, 22.352941%)" fill-opacity="1" d="M 224.820312 407.320312 C 227.015625 399.972656 227.957031 393.140625 227.644531 386.828125 C 227.332031 380.511719 226.445312 373.871094 224.980469 366.898438 C 221.566406 367.019531 219.859375 367.078125 219.859375 367.078125 C 220.648438 372.785156 220.957031 379.472656 220.957031 387.820312 C 220.957031 396.171875 220.355469 402.726562 219.035156 407.691406 C 220.246094 407.621094 221.148438 407.570312 221.753906 407.53125 C 222.4375 407.488281 223.457031 407.417969 224.820312 407.320312 Z M 224.820312 407.320312 "/>
<path fill-rule="evenodd" fill="rgb(72.54902%, 64.705882%, 22.352941%)" fill-opacity="1" d="M 177.328125 407.320312 C 175.132812 399.972656 174.191406 393.140625 174.503906 386.828125 C 174.816406 380.511719 175.707031 373.871094 177.167969 366.898438 C 180.582031 367.019531 182.292969 367.078125 182.292969 367.078125 C 181.5 372.785156 181.191406 379.472656 181.191406 387.820312 C 181.191406 396.171875 181.792969 402.726562 183.113281 407.691406 C 181.90625 407.621094 181 407.570312 180.398438 407.53125 C 179.714844 407.488281 178.691406 407.417969 177.328125 407.320312 Z M 177.328125 407.320312 "/>
<path fill-rule="evenodd" fill="rgb(72.54902%, 64.705882%, 22.352941%)" fill-opacity="1" d="M 136.765625 399.417969 C 135.066406 394.476562 134.375 388.847656 134.6875 382.535156 C 135 376.222656 135.925781 369.863281 137.46875 363.460938 C 140.738281 363.921875 142.375 364.152344 142.375 364.152344 C 141.582031 369.859375 140.980469 375.742188 140.980469 384.09375 C 140.980469 392.445312 142.128906 396.644531 143.449219 401.609375 C 141.945312 401.175781 140.746094 400.816406 139.855469 400.53125 C 138.964844 400.25 137.933594 399.878906 136.765625 399.417969 Z M 136.765625 399.417969 "/>
<path fill-rule="evenodd" fill="rgb(72.54902%, 64.705882%, 22.352941%)" fill-opacity="1" d="M 207.90625 176.5 C 228.90625 138.726562 261.246094 131.449219 304.925781 154.675781 C 312.382812 158.640625 330.125 169.464844 330.472656 178.535156 C 330.820312 187.605469 317.5 184.125 310.832031 190.726562 C 306.382812 195.125 301.203125 205.871094 295.289062 222.960938 C 284.472656 221.574219 269 215.53125 248.867188 204.828125 C 228.738281 194.125 215.085938 184.683594 207.90625 176.5 Z M 207.90625 176.5 "/>
<path fill-rule="evenodd" fill="rgb(94.117647%, 88.235294%, 56.862745%)" fill-opacity="1" d="M 295.289062 222.960938 C 297.902344 225.238281 290.660156 235.929688 288.671875 237.351562 C 286.816406 237.980469 274.210938 246.921875 237.148438 227.214844 C 200.085938 207.507812 200.273438 191.617188 199.761719 189.726562 C 199.828125 187.28125 204.558594 175.605469 207.90625 176.5 C 215.957031 184.964844 229.695312 194.363281 249.121094 204.695312 C 268.550781 215.023438 283.941406 221.113281 295.289062 222.960938 Z M 295.289062 222.960938 "/>
<path fill-rule="evenodd" fill="rgb(72.54902%, 64.705882%, 22.352941%)" fill-opacity="1" d="M 272.242188 239.039062 C 274.535156 236.789062 276.523438 233.898438 278.199219 230.359375 C 279.878906 226.824219 281.261719 223.097656 282.34375 219.183594 C 280.558594 218.554688 279.667969 218.242188 279.667969 218.242188 C 278.40625 221.578125 277 224.957031 274.570312 229.523438 C 272.144531 234.089844 270.339844 236.078125 268.230469 238.441406 C 269.117188 238.605469 269.828125 238.730469 270.359375 238.816406 C 270.890625 238.902344 271.519531 238.972656 272.242188 239.039062 Z M 272.242188 239.039062 "/>
<path fill-rule="evenodd" fill="rgb(72.54902%, 64.705882%, 22.352941%)" fill-opacity="1" d="M 249.585938 232.53125 C 252.828125 229.101562 255.289062 225.621094 256.96875 222.082031 C 258.648438 218.546875 260.132812 214.671875 261.421875 210.46875 C 259.660156 209.617188 258.78125 209.191406 258.78125 209.191406 C 257.523438 212.523438 255.734375 216.265625 253.304688 220.832031 C 250.875 225.398438 248.667969 228.824219 246.554688 231.183594 C 247.1875 231.46875 247.660156 231.683594 247.976562 231.824219 C 248.332031 231.984375 248.871094 232.21875 249.585938 232.53125 Z M 249.585938 232.53125 "/>
<path fill-rule="evenodd" fill="rgb(72.54902%, 64.705882%, 22.352941%)" fill-opacity="1" d="M 225.613281 219.789062 C 226.644531 215.179688 228.15625 211.191406 230.148438 207.820312 C 232.140625 204.453125 234.523438 201.058594 237.289062 197.636719 C 238.976562 198.617188 239.820312 199.109375 239.820312 199.109375 C 237.761719 202.019531 235.664062 205.59375 233.234375 210.160156 C 230.804688 214.726562 229.203125 218.472656 228.425781 221.542969 C 227.835938 221.179688 227.394531 220.910156 227.101562 220.726562 C 226.769531 220.519531 226.273438 220.207031 225.613281 219.789062 Z M 225.613281 219.789062 "/>
<path fill-rule="evenodd" fill="rgb(72.54902%, 64.705882%, 22.352941%)" fill-opacity="1" d="M 207.4375 204.578125 C 208.019531 201.421875 209.304688 198.15625 211.300781 194.789062 C 213.292969 191.417969 215.609375 188.191406 218.25 185.101562 C 219.765625 186.230469 220.523438 186.796875 220.523438 186.796875 C 218.464844 189.707031 216.449219 192.761719 214.023438 197.328125 C 211.59375 201.894531 210.953125 204.5 210.175781 207.570312 C 209.542969 206.929688 209.042969 206.410156 208.675781 206.019531 C 208.308594 205.625 207.894531 205.144531 207.4375 204.578125 Z M 207.4375 204.578125 "/>
</svg>
