<?xml version="1.0" encoding="UTF-8"?>
<svg xmlns="http://www.w3.org/2000/svg" xmlns:xlink="http://www.w3.org/1999/xlink" width="400" height="400" viewBox="0 0 400 400">
<path fill="none" stroke-width="5" stroke-linecap="round" stroke-linejoin="miter" stroke="rgb(0%, 0%, 0%)" stroke-opacity="1" stroke-miterlimit="4" d="M -0.000801468 1.163288 C 2.522011 0.38735 5.377949 0.00141281 8.562949 0.00141281 C 11.747949 0.00141281 14.603886 0.38735 17.126699 1.163288 " transform="matrix(0.961538, 0, 0, 0.961538, 144.688271, 304.162704)"/>
<path fill="none" stroke-width="5" stroke-linecap="round" stroke-linejoin="miter" stroke="rgb(0%, 0%, 0%)" stroke-opacity="1" stroke-miterlimit="4" d="M 99.920449 1.163288 C 102.447324 0.38735 105.299199 0.00141281 108.484199 0.00141281 C 111.669199 0.00141281 114.525136 0.38735 117.047949 1.163288 " transform="matrix(0.961538, 0, 0, 0.961538, 144.688271, 304.162704)"/>
<path fill="none" stroke-width="4" stroke-linecap="round" stroke-linejoin="miter" stroke="rgb(51.372549%, 19.607843%, 9.803922%)" stroke-opacity="1" stroke-miterlimit="4" d="M 34.428886 33.947663 C 45.214824 39.639225 49.577949 30.0111 58.523574 30.0111 C 67.469199 30.0111 71.751074 39.639225 82.622324 33.947663 " transform="matrix(0.961538, 0, 0, 0.961538, 144.688271, 304.162704)"/>
</svg>
