<?xml version="1.0" encoding="UTF-8"?>
<svg xmlns="http://www.w3.org/2000/svg" xmlns:xlink="http://www.w3.org/1999/xlink" width="400" height="400" viewBox="0 0 400 400">
<path fill="none" stroke-width="5" stroke-linecap="round" stroke-linejoin="miter" stroke="rgb(0%, 0%, 0%)" stroke-opacity="1" stroke-miterlimit="4" d="M -0.000801468 1.160987 C 2.522011 0.389112 5.377949 -0.000887804 8.562949 -0.000887804 C 11.747949 -0.000887804 14.603886 0.389112 17.126699 1.160987 " transform="matrix(0.961538, 0, 0, -0.961538, 144.688271, 305.280396)"/>
<path fill="none" stroke-width="5" stroke-linecap="round" stroke-linejoin="miter" stroke="rgb(0%, 0%, 0%)" stroke-opacity="1" stroke-miterlimit="4" d="M 99.920449 1.160987 C 102.447324 0.389112 105.299199 -0.000887804 108.484199 -0.000887804 C 111.669199 -0.000887804 114.525136 0.389112 117.047949 1.160987 " transform="matrix(0.961538, 0, 0, -0.961538, 144.688271, 305.280396)"/>
<path fill-rule="evenodd" fill="rgb(69.803922%, 88.627451%, 88.627451%)" fill-opacity="1" d="M 221.890625 349.929688 C 221.992188 354.953125 221.722656 358.085938 221.082031 359.332031 C 220.117188 361.203125 217.703125 363.980469 220.164062 366.125 C 222.625 368.269531 225.960938 365.890625 225.960938 361.777344 C 225.960938 359.03125 225.960938 354.59375 225.960938 348.46875 Z M 221.890625 349.929688 "/>
<path fill-rule="evenodd" fill="rgb(51.372549%, 19.607843%, 9.803922%)" fill-opacity="1" d="M 199.1875 351.921875 L 198.34375 351.917969 L 197.082031 351.902344 L 195.414062 351.871094 C 184.261719 351.601562 174.039062 350.378906 174.039062 348.46875 C 174.039062 346.292969 174.554688 342.113281 177.140625 338.667969 C 179.730469 335.21875 188.441406 329.808594 200.03125 329.808594 L 200.539062 329.8125 C 211.871094 329.964844 220.308594 335.269531 222.859375 338.667969 C 225.445312 342.113281 225.960938 346.292969 225.960938 348.46875 C 225.960938 350.402344 215.535156 351.632812 204.230469 351.878906 L 202.980469 351.902344 C 202.277344 351.914062 201.574219 351.921875 200.875 351.921875 Z M 199.1875 351.921875 "/>
<path fill-rule="evenodd" fill="rgb(86.666667%, 47.45098%, 35.294118%)" fill-opacity="1" d="M 200.105469 351.921875 L 199.714844 351.921875 L 199.128906 351.914062 L 198.355469 351.90625 C 193.195312 351.8125 188.460938 351.386719 188.460938 350.722656 C 188.460938 349.964844 188.699219 348.511719 189.898438 347.3125 C 191.097656 346.113281 195.128906 344.230469 200.496094 344.230469 L 200.730469 344.230469 C 205.976562 344.285156 209.882812 346.132812 211.0625 347.3125 C 212.261719 348.511719 212.5 349.964844 212.5 350.722656 C 212.5 351.394531 207.671875 351.820312 202.441406 351.90625 L 201.859375 351.914062 C 201.535156 351.917969 201.210938 351.921875 200.886719 351.921875 Z M 200.105469 351.921875 "/>
</svg>
