<?xml version="1.0" encoding="UTF-8"?>
<svg xmlns="http://www.w3.org/2000/svg" xmlns:xlink="http://www.w3.org/1999/xlink" width="400" height="400" viewBox="0 0 400 400">
<path fill-rule="evenodd" fill="rgb(76.862745%, 49.803922%, 29.019608%)" fill-opacity="1" d="M 160.519531 196.96875 C 114.105469 166.882812 87.066406 153.765625 79.40625 157.609375 C 67.914062 163.378906 79.269531 274.582031 91.96875 287.542969 "/>
<path fill-rule="evenodd" fill="rgb(76.862745%, 49.803922%, 29.019608%)" fill-opacity="1" d="M 240.328125 196.96875 C 287.207031 166.882812 314.480469 153.765625 322.140625 157.609375 C 333.632812 163.378906 322.277344 274.582031 309.578125 287.542969 "/>
<path fill-rule="evenodd" fill="rgb(98.431373%, 85.882353%, 85.882353%)" fill-opacity="1" d="M 159.292969 211.515625 C 120.332031 186.261719 97.636719 175.246094 91.203125 178.476562 C 81.558594 183.320312 91.089844 276.664062 101.75 287.542969 "/>
<path fill-rule="evenodd" fill="rgb(98.431373%, 85.882353%, 85.882353%)" fill-opacity="1" d="M 241.667969 211.515625 C 281.019531 186.261719 303.910156 175.246094 310.34375 178.476562 C 319.988281 183.320312 310.457031 276.664062 299.796875 287.542969 "/>
<path fill-rule="evenodd" fill="rgb(76.862745%, 49.803922%, 29.019608%)" fill-opacity="1" d="M 88.296875 310.886719 C 88.296875 272.925781 118.269531 189.441406 200.480469 189.421875 L 202.195312 189.441406 C 283.992188 191.261719 312.664062 273.304688 312.664062 310.886719 C 312.664062 348.847656 257.707031 389.421875 200.480469 389.421875 C 143.253906 389.421875 88.296875 348.847656 88.296875 310.886719 Z M 88.296875 310.886719 "/>
<path fill="none" stroke-width="2" stroke-linecap="round" stroke-linejoin="round" stroke="rgb(100%, 100%, 100%)" stroke-opacity="1" stroke-miterlimit="4" d="M 296.977887 173.083628 C 275.46695 165.02769 242.792262 164.617378 223.999137 172.165503 " transform="matrix(0.961538, 0, 0, 0.961538, 57.674808, 156.956247)"/>
<path fill="none" stroke-width="2" stroke-linecap="round" stroke-linejoin="round" stroke="rgb(100%, 100%, 100%)" stroke-opacity="1" stroke-miterlimit="4" d="M 279.976325 193.88769 C 274.910387 188.139253 250.287575 184.72269 224.9782 186.254253 " transform="matrix(0.961538, 0, 0, 0.961538, 57.674808, 156.956247)"/>
<path fill="none" stroke-width="2" stroke-linecap="round" stroke-linejoin="round" stroke="rgb(100%, 100%, 100%)" stroke-opacity="1" stroke-miterlimit="4" d="M 72.975588 173.083628 C 51.464651 165.02769 18.794026 164.617378 0.000900726 172.165503 " transform="matrix(-0.961538, 0, 0, 0.961538, 127.844616, 156.956247)"/>
<path fill="none" stroke-width="2" stroke-linecap="round" stroke-linejoin="round" stroke="rgb(100%, 100%, 100%)" stroke-opacity="1" stroke-miterlimit="4" d="M 72.975626 193.88769 C 67.913751 188.139253 43.286876 184.72269 17.977501 186.254253 " transform="matrix(-0.961538, 0, 0, 0.961538, 145.129809, 156.956247)"/>
<path fill-rule="evenodd" fill="rgb(98.431373%, 85.882353%, 85.882353%)" fill-opacity="1" stroke-width="3" stroke-linecap="butt" stroke-linejoin="round" stroke="rgb(98.431373%, 85.882353%, 85.882353%)" stroke-opacity="1" stroke-miterlimit="4" d="M 148.517887 168.763628 L 154.018512 171.765815 L 143.017262 171.765815 Z M 148.517887 168.763628 " transform="matrix(0.961538, 0, 0, -0.961538, 57.674808, 484.389907)"/>
</svg>
