<?xml version="1.0" encoding="UTF-8"?>
<svg xmlns="http://www.w3.org/2000/svg" xmlns:xlink="http://www.w3.org/1999/xlink" width="200" height="200" viewBox="0 0 200 200">
<path fill-rule="evenodd" fill="rgb(94.117647%, 88.235294%, 56.862745%)" fill-opacity="1" d="M 142.875 179.328125 C 145.78125 179.957031 144.59375 190.292969 143.65625 192.058594 C 142.503906 193.207031 136.53125 204.328125 100.378906 204.328125 C 64.230469 204.328125 57.945312 192.957031 56.789062 191.808594 C 55.851562 190.042969 54.726562 179.957031 57.636719 179.328125 C 67.179688 182.304688 81.429688 183.792969 100.378906 183.792969 C 119.332031 183.792969 133.496094 182.304688 142.875 179.328125 Z M 142.875 179.328125 "/>
<path fill-rule="evenodd" fill="rgb(72.54902%, 64.705882%, 22.352941%)" fill-opacity="1" d="M 132.578125 199.710938 C 133.425781 197.238281 133.773438 194.425781 133.617188 191.265625 C 133.460938 188.109375 132.996094 184.929688 132.226562 181.730469 C 130.59375 181.960938 129.773438 182.074219 129.773438 182.074219 C 130.167969 184.929688 130.472656 187.871094 130.472656 192.046875 C 130.472656 196.222656 129.898438 198.320312 129.234375 200.804688 C 129.988281 200.585938 130.589844 200.40625 131.035156 200.265625 C 131.480469 200.125 131.996094 199.9375 132.578125 199.710938 Z M 132.578125 199.710938 "/>
<path fill-rule="evenodd" fill="rgb(72.54902%, 64.705882%, 22.352941%)" fill-opacity="1" d="M 112.410156 203.660156 C 113.507812 199.988281 113.976562 196.570312 113.820312 193.414062 C 113.664062 190.257812 113.222656 186.933594 112.488281 183.449219 C 110.78125 183.507812 109.929688 183.539062 109.929688 183.539062 C 110.324219 186.394531 110.476562 189.734375 110.476562 193.910156 C 110.476562 198.085938 110.179688 201.363281 109.519531 203.847656 C 110.121094 203.8125 110.574219 203.785156 110.875 203.765625 C 111.21875 203.742188 111.730469 203.707031 112.410156 203.660156 Z M 112.410156 203.660156 "/>
<path fill-rule="evenodd" fill="rgb(72.54902%, 64.705882%, 22.352941%)" fill-opacity="1" d="M 88.664062 203.660156 C 87.566406 199.988281 87.097656 196.570312 87.253906 193.414062 C 87.410156 190.257812 87.851562 186.933594 88.585938 183.449219 C 90.292969 183.507812 91.144531 183.539062 91.144531 183.539062 C 90.75 186.394531 90.597656 189.734375 90.597656 193.910156 C 90.597656 198.085938 90.894531 201.363281 91.558594 203.847656 C 90.953125 203.8125 90.5 203.785156 90.199219 203.765625 C 89.855469 203.742188 89.34375 203.707031 88.664062 203.660156 Z M 88.664062 203.660156 "/>
<path fill-rule="evenodd" fill="rgb(72.54902%, 64.705882%, 22.352941%)" fill-opacity="1" d="M 68.382812 199.710938 C 67.535156 197.238281 67.1875 194.425781 67.34375 191.265625 C 67.5 188.109375 67.964844 184.929688 68.734375 181.730469 C 70.371094 181.960938 71.1875 182.074219 71.1875 182.074219 C 70.792969 184.929688 70.488281 187.871094 70.488281 192.046875 C 70.488281 196.222656 71.066406 198.320312 71.726562 200.804688 C 70.972656 200.585938 70.371094 200.40625 69.925781 200.265625 C 69.480469 200.125 68.96875 199.9375 68.382812 199.710938 Z M 68.382812 199.710938 "/>
<path fill-rule="evenodd" fill="rgb(72.54902%, 64.705882%, 22.352941%)" fill-opacity="1" d="M 103.953125 88.25 C 114.453125 69.363281 130.625 65.726562 152.464844 77.339844 C 156.191406 79.320312 165.0625 84.734375 165.234375 89.269531 C 165.410156 93.800781 158.75 92.0625 155.414062 95.363281 C 153.191406 97.5625 150.601562 102.9375 147.644531 111.480469 C 142.234375 110.789062 134.5 107.765625 124.433594 102.414062 C 114.371094 97.0625 107.542969 92.339844 103.953125 88.25 Z M 103.953125 88.25 "/>
<path fill-rule="evenodd" fill="rgb(94.117647%, 88.235294%, 56.862745%)" fill-opacity="1" d="M 147.644531 111.480469 C 148.953125 112.621094 145.328125 117.964844 144.335938 118.675781 C 143.410156 118.992188 137.105469 123.460938 118.574219 113.609375 C 100.042969 103.753906 100.136719 95.808594 99.878906 94.863281 C 99.914062 93.640625 102.277344 87.804688 103.953125 88.25 C 107.976562 92.484375 114.847656 97.183594 124.5625 102.347656 C 134.273438 107.511719 141.96875 110.558594 147.644531 111.480469 Z M 147.644531 111.480469 "/>
<path fill-rule="evenodd" fill="rgb(72.54902%, 64.705882%, 22.352941%)" fill-opacity="1" d="M 136.121094 119.519531 C 137.269531 118.394531 138.261719 116.949219 139.101562 115.179688 C 139.941406 113.410156 140.628906 111.546875 141.171875 109.589844 C 140.28125 109.277344 139.832031 109.121094 139.832031 109.121094 C 139.203125 110.789062 138.5 112.480469 137.285156 114.761719 C 136.070312 117.046875 135.171875 118.039062 134.117188 119.21875 C 134.558594 119.304688 134.914062 119.367188 135.179688 119.410156 C 135.445312 119.449219 135.757812 119.488281 136.121094 119.519531 Z M 136.121094 119.519531 "/>
<path fill-rule="evenodd" fill="rgb(72.54902%, 64.705882%, 22.352941%)" fill-opacity="1" d="M 124.792969 116.265625 C 126.414062 114.550781 127.644531 112.808594 128.484375 111.042969 C 129.324219 109.273438 130.066406 107.335938 130.710938 105.234375 C 129.832031 104.808594 129.390625 104.59375 129.390625 104.59375 C 128.761719 106.261719 127.867188 108.132812 126.652344 110.414062 C 125.4375 112.699219 124.332031 114.410156 123.277344 115.589844 C 123.59375 115.734375 123.828125 115.84375 123.988281 115.910156 C 124.167969 115.992188 124.433594 116.109375 124.792969 116.265625 Z M 124.792969 116.265625 "/>
<path fill-rule="evenodd" fill="rgb(72.54902%, 64.705882%, 22.352941%)" fill-opacity="1" d="M 112.808594 109.894531 C 113.320312 107.589844 114.078125 105.59375 115.074219 103.910156 C 116.070312 102.226562 117.261719 100.527344 118.644531 98.820312 C 119.488281 99.308594 119.910156 99.554688 119.910156 99.554688 C 118.882812 101.007812 117.832031 102.796875 116.617188 105.082031 C 115.402344 107.363281 114.601562 109.238281 114.214844 110.773438 C 113.917969 110.589844 113.695312 110.453125 113.550781 110.363281 C 113.382812 110.257812 113.136719 110.101562 112.808594 109.894531 Z M 112.808594 109.894531 "/>
<path fill-rule="evenodd" fill="rgb(72.54902%, 64.705882%, 22.352941%)" fill-opacity="1" d="M 103.71875 102.289062 C 104.007812 100.710938 104.652344 99.078125 105.648438 97.394531 C 106.648438 95.710938 107.804688 94.09375 109.125 92.550781 C 109.882812 93.117188 110.261719 93.398438 110.261719 93.398438 C 109.234375 94.851562 108.226562 96.382812 107.011719 98.664062 C 105.796875 100.949219 105.476562 102.25 105.089844 103.785156 C 104.769531 103.464844 104.519531 103.207031 104.335938 103.007812 C 104.152344 102.8125 103.945312 102.574219 103.71875 102.289062 Z M 103.71875 102.289062 "/>
</svg>
