<?xml version="1.0" encoding="UTF-8"?>
<svg xmlns="http://www.w3.org/2000/svg" xmlns:xlink="http://www.w3.org/1999/xlink" width="200" height="200" viewBox="0 0 200 200">
<path fill-rule="evenodd" fill="rgb(69.803922%, 88.627451%, 88.627451%)" fill-opacity="1" d="M 65.726562 141.929688 C 65.726562 144.003906 65.273438 145.527344 63.898438 145.613281 L 63.769531 145.617188 C 62.324219 145.59375 61.847656 144.046875 61.847656 141.929688 C 61.847656 140.554688 62.566406 138.53125 63.789062 136.207031 C 65.007812 138.53125 65.726562 140.554688 65.726562 141.929688 Z M 65.726562 141.929688 "/>
<path fill-rule="evenodd" fill="rgb(69.803922%, 88.627451%, 88.627451%)" fill-opacity="1" d="M 59.957031 147.351562 C 59.957031 148.515625 59.703125 149.371094 58.929688 149.421875 L 58.859375 149.421875 C 58.042969 149.410156 57.777344 148.539062 57.777344 147.351562 C 57.777344 146.578125 58.179688 145.441406 58.867188 144.136719 C 59.554688 145.441406 59.957031 146.578125 59.957031 147.351562 Z M 59.957031 147.351562 "/>
<path fill-rule="evenodd" fill="rgb(0%, 0%, 0%)" fill-opacity="1" d="M 81.265625 152.640625 C 81.265625 155.160156 79.214844 157.203125 76.691406 157.203125 C 74.164062 157.203125 72.117188 155.160156 72.117188 152.640625 C 72.117188 150.121094 74.164062 148.078125 76.691406 148.078125 C 79.214844 148.078125 81.265625 150.121094 81.265625 152.640625 Z M 81.265625 152.640625 "/>
<path fill-rule="evenodd" fill="rgb(0%, 0%, 0%)" fill-opacity="1" d="M 128.847656 152.640625 C 128.847656 155.160156 126.796875 157.203125 124.273438 157.203125 C 121.746094 157.203125 119.699219 155.160156 119.699219 152.640625 C 119.699219 150.121094 121.746094 148.078125 124.273438 148.078125 C 126.796875 148.078125 128.847656 150.121094 128.847656 152.640625 Z M 128.847656 152.640625 "/>
<path fill-rule="evenodd" fill="rgb(51.372549%, 19.607843%, 9.803922%)" fill-opacity="1" d="M 99.59375 175.960938 L 99.171875 175.957031 L 98.539062 175.949219 L 97.707031 175.933594 C 92.128906 175.800781 87.019531 175.191406 87.019531 174.234375 C 87.019531 173.148438 87.277344 171.058594 88.570312 169.332031 C 89.867188 167.609375 94.222656 164.902344 100.015625 164.902344 L 100.269531 164.90625 C 105.9375 164.984375 110.152344 167.636719 111.429688 169.332031 C 112.722656 171.058594 112.980469 173.148438 112.980469 174.234375 C 112.980469 175.203125 107.765625 175.816406 102.117188 175.941406 L 101.488281 175.949219 C 101.140625 175.957031 100.789062 175.960938 100.4375 175.960938 Z M 99.59375 175.960938 "/>
<path fill-rule="evenodd" fill="rgb(86.666667%, 47.45098%, 35.294118%)" fill-opacity="1" d="M 100.050781 175.960938 L 99.855469 175.960938 L 99.566406 175.957031 L 99.179688 175.953125 C 96.597656 175.90625 94.230469 175.691406 94.230469 175.359375 C 94.230469 174.984375 94.351562 174.253906 94.949219 173.65625 C 95.546875 173.054688 97.566406 172.117188 100.246094 172.117188 L 100.367188 172.117188 C 102.988281 172.144531 104.941406 173.066406 105.53125 173.65625 C 106.132812 174.253906 106.25 174.984375 106.25 175.359375 C 106.25 175.695312 103.835938 175.910156 101.21875 175.953125 L 100.929688 175.957031 C 100.769531 175.960938 100.605469 175.960938 100.441406 175.960938 Z M 100.050781 175.960938 "/>
</svg>
