<?xml version="1.0" encoding="UTF-8"?>
<svg xmlns="http://www.w3.org/2000/svg" xmlns:xlink="http://www.w3.org/1999/xlink" width="200" height="200" viewBox="0 0 200 200">
<path fill-rule="evenodd" fill="rgb(0%, 0%, 0%)" fill-opacity="1" d="M 81.265625 152.640625 C 81.265625 155.160156 79.214844 157.203125 76.691406 157.203125 C 74.164062 157.203125 72.117188 155.160156 72.117188 152.640625 C 72.117188 150.121094 74.164062 148.078125 76.691406 148.078125 C 79.214844 148.078125 81.265625 150.121094 81.265625 152.640625 Z M 81.265625 152.640625 "/>
<path fill-rule="evenodd" fill="rgb(0%, 0%, 0%)" fill-opacity="1" d="M 128.847656 152.640625 C 128.847656 155.160156 126.796875 157.203125 124.273438 157.203125 C 121.746094 157.203125 119.699219 155.160156 119.699219 152.640625 C 119.699219 150.121094 121.746094 148.078125 124.273438 148.078125 C 126.796875 148.078125 128.847656 150.121094 128.847656 152.640625 Z M 128.847656 152.640625 "/>
<path fill="none" stroke-width="4" stroke-linecap="round" stroke-linejoin="miter" stroke="rgb(51.372549%, 19.607843%, 9.803922%)" stroke-opacity="1" stroke-miterlimit="4" d="M 34.900625 42.276862 C 45.690625 47.964362 50.05375 38.336237 58.999375 38.336237 C 67.945 38.336237 72.226875 47.964362 83.098125 42.276862 " transform="matrix(0.480769, 0, 0, 0.480769, 72.115385, 148.076929)"/>
</svg>
