<?xml version="1.0" encoding="UTF-8"?>
<svg xmlns="http://www.w3.org/2000/svg" xmlns:xlink="http://www.w3.org/1999/xlink" width="200" height="200" viewBox="0 0 200 200">
<path fill-rule="evenodd" fill="rgb(76.862745%, 49.803922%, 29.019608%)" fill-opacity="1" d="M 80.261719 98.484375 C 57.054688 83.441406 43.535156 76.882812 39.703125 78.804688 C 33.957031 81.691406 39.636719 137.292969 45.984375 143.769531 "/>
<path fill-rule="evenodd" fill="rgb(76.862745%, 49.803922%, 29.019608%)" fill-opacity="1" d="M 120.164062 98.484375 C 143.605469 83.441406 157.238281 76.882812 161.070312 78.804688 C 166.816406 81.691406 161.136719 137.292969 154.789062 143.769531 "/>
<path fill-rule="evenodd" fill="rgb(98.431373%, 85.882353%, 85.882353%)" fill-opacity="1" d="M 79.644531 105.757812 C 60.164062 93.128906 48.816406 87.625 45.601562 89.238281 C 40.777344 91.660156 45.546875 138.332031 50.875 143.769531 "/>
<path fill-rule="evenodd" fill="rgb(98.431373%, 85.882353%, 85.882353%)" fill-opacity="1" d="M 120.832031 105.757812 C 140.511719 93.128906 151.957031 87.625 155.171875 89.238281 C 159.996094 91.660156 155.226562 138.332031 149.898438 143.769531 "/>
<path fill-rule="evenodd" fill="rgb(76.862745%, 49.803922%, 29.019608%)" fill-opacity="1" d="M 44.148438 155.441406 C 44.148438 136.460938 59.136719 94.722656 100.242188 94.710938 L 101.097656 94.722656 C 141.996094 95.628906 156.332031 136.652344 156.332031 155.441406 C 156.332031 174.421875 128.855469 194.710938 100.242188 194.710938 C 71.625 194.710938 44.148438 174.421875 44.148438 155.441406 Z M 44.148438 155.441406 "/>
<path fill="none" stroke-width="2" stroke-linecap="round" stroke-linejoin="round" stroke="rgb(100%, 100%, 100%)" stroke-opacity="1" stroke-miterlimit="4" d="M 296.973825 173.083628 C 275.46695 165.031753 242.796325 164.617378 224.0032 172.165503 " transform="matrix(0.480769, 0, 0, 0.480769, 28.837404, 78.478124)"/>
<path fill="none" stroke-width="2" stroke-linecap="round" stroke-linejoin="round" stroke="rgb(100%, 100%, 100%)" stroke-opacity="1" stroke-miterlimit="4" d="M 279.976325 193.883628 C 274.91445 188.139253 250.287575 184.718628 224.9782 186.254253 " transform="matrix(0.480769, 0, 0, 0.480769, 28.837404, 78.478124)"/>
<path fill="none" stroke-width="2" stroke-linecap="round" stroke-linejoin="round" stroke="rgb(100%, 100%, 100%)" stroke-opacity="1" stroke-miterlimit="4" d="M 72.979651 173.083628 C 51.464651 165.031753 18.794026 164.617378 0.000900726 172.165503 " transform="matrix(-0.480769, 0, 0, 0.480769, 63.922308, 78.478124)"/>
<path fill="none" stroke-width="2" stroke-linecap="round" stroke-linejoin="round" stroke="rgb(100%, 100%, 100%)" stroke-opacity="1" stroke-miterlimit="4" d="M 72.975626 193.883628 C 67.913751 188.139253 43.286876 184.718628 17.977501 186.254253 " transform="matrix(-0.480769, 0, 0, 0.480769, 72.564905, 78.478124)"/>
<path fill-rule="evenodd" fill="rgb(98.431373%, 85.882353%, 85.882353%)" fill-opacity="1" stroke-width="3" stroke-linecap="butt" stroke-linejoin="round" stroke="rgb(98.431373%, 85.882353%, 85.882353%)" stroke-opacity="1" stroke-miterlimit="4" d="M 148.52195 168.763628 L 154.01445 171.761753 L 143.021325 171.761753 Z M 148.52195 168.763628 " transform="matrix(0.480769, 0, 0, -0.480769, 28.837404, 242.194953)"/>
</svg>
