<?xml version="1.0" encoding="UTF-8"?>
<svg xmlns="http://www.w3.org/2000/svg" xmlns:xlink="http://www.w3.org/1999/xlink" width="200" height="200" viewBox="0 0 200 200">
<path fill-rule="evenodd" fill="rgb(35.686275%, 58.823529%, 40.392157%)" fill-opacity="1" d="M 147.492188 181.730469 C 150.699219 182.363281 149.390625 192.699219 148.355469 194.460938 C 147.085938 195.609375 140.5 206.730469 100.632812 206.730469 C 60.769531 206.730469 53.839844 195.359375 52.566406 194.210938 C 51.535156 192.449219 50.292969 182.363281 53.5 181.730469 C 64.027344 184.707031 79.738281 186.195312 100.632812 186.195312 C 121.53125 186.195312 137.152344 184.707031 147.492188 181.730469 Z M 147.492188 181.730469 "/>
<path fill-rule="evenodd" fill="rgb(19.215686%, 28.235294%, 21.176471%)" fill-opacity="1" d="M 135.363281 202.113281 C 136.289062 199.644531 136.667969 196.828125 136.5 193.671875 C 136.328125 190.515625 135.820312 187.335938 134.976562 184.132812 C 133.1875 184.363281 132.292969 184.480469 132.292969 184.480469 C 132.726562 187.332031 133.058594 190.277344 133.058594 194.449219 C 133.058594 198.625 132.425781 200.726562 131.703125 203.207031 C 132.527344 202.992188 133.183594 202.8125 133.671875 202.671875 C 134.160156 202.527344 134.722656 202.34375 135.363281 202.113281 Z M 135.363281 202.113281 "/>
<path fill-rule="evenodd" fill="rgb(19.215686%, 28.235294%, 21.176471%)" fill-opacity="1" d="M 113.292969 206.0625 C 114.496094 202.390625 115.007812 198.976562 114.839844 195.816406 C 114.667969 192.660156 114.183594 189.339844 113.378906 185.851562 C 111.511719 185.914062 110.578125 185.941406 110.578125 185.941406 C 111.011719 188.796875 111.179688 192.140625 111.179688 196.316406 C 111.179688 200.488281 110.851562 203.765625 110.128906 206.25 C 110.789062 206.214844 111.285156 206.1875 111.613281 206.167969 C 111.988281 206.148438 112.546875 206.113281 113.292969 206.0625 Z M 113.292969 206.0625 "/>
<path fill-rule="evenodd" fill="rgb(19.215686%, 28.235294%, 21.176471%)" fill-opacity="1" d="M 87.3125 206.0625 C 86.109375 202.390625 85.59375 198.976562 85.765625 195.816406 C 85.9375 192.660156 86.421875 189.339844 87.222656 185.851562 C 89.089844 185.914062 90.027344 185.941406 90.027344 185.941406 C 89.59375 188.796875 89.425781 192.140625 89.425781 196.316406 C 89.425781 200.488281 89.753906 203.765625 90.476562 206.25 C 89.8125 206.214844 89.320312 206.1875 88.988281 206.167969 C 88.617188 206.148438 88.054688 206.113281 87.3125 206.0625 Z M 87.3125 206.0625 "/>
<path fill-rule="evenodd" fill="rgb(19.215686%, 28.235294%, 21.176471%)" fill-opacity="1" d="M 65.117188 202.113281 C 64.191406 199.644531 63.8125 196.828125 63.980469 193.671875 C 64.152344 190.515625 64.660156 187.335938 65.503906 184.132812 C 67.292969 184.363281 68.1875 184.480469 68.1875 184.480469 C 67.753906 187.332031 67.425781 190.277344 67.425781 194.449219 C 67.425781 198.625 68.054688 200.726562 68.777344 203.207031 C 67.953125 202.992188 67.296875 202.8125 66.808594 202.671875 C 66.320312 202.527344 65.757812 202.34375 65.117188 202.113281 Z M 65.117188 202.113281 "/>
<path fill-rule="evenodd" fill="rgb(19.215686%, 28.235294%, 21.176471%)" fill-opacity="1" d="M 109.242188 91.132812 C 119.742188 72.246094 135.910156 68.609375 157.753906 80.222656 C 161.480469 82.207031 170.351562 87.617188 170.523438 92.152344 C 170.699219 96.6875 164.039062 94.949219 160.703125 98.246094 C 158.480469 100.449219 155.890625 105.820312 152.933594 114.367188 C 147.523438 113.671875 139.789062 110.648438 129.722656 105.296875 C 119.65625 99.945312 112.832031 95.226562 109.242188 91.132812 Z M 109.242188 91.132812 "/>
<path fill-rule="evenodd" fill="rgb(35.686275%, 58.823529%, 40.392157%)" fill-opacity="1" d="M 152.933594 114.367188 C 154.238281 115.503906 150.617188 120.847656 149.625 121.558594 C 148.695312 121.875 142.394531 126.34375 123.863281 116.492188 C 105.332031 106.640625 105.425781 98.691406 105.167969 97.746094 C 105.203125 96.523438 107.566406 90.6875 109.242188 91.132812 C 113.265625 95.367188 120.136719 100.066406 129.851562 105.230469 C 139.5625 110.398438 147.257812 113.441406 152.933594 114.367188 Z M 152.933594 114.367188 "/>
<path fill-rule="evenodd" fill="rgb(19.215686%, 28.235294%, 21.176471%)" fill-opacity="1" d="M 141.410156 122.402344 C 142.554688 121.28125 143.550781 119.832031 144.386719 118.066406 C 145.226562 116.296875 145.917969 114.433594 146.460938 112.476562 C 145.566406 112.164062 145.121094 112.007812 145.121094 112.007812 C 144.492188 113.671875 143.789062 115.363281 142.574219 117.648438 C 141.359375 119.929688 140.460938 120.925781 139.402344 122.105469 C 139.847656 122.1875 140.203125 122.25 140.46875 122.292969 C 140.734375 122.335938 141.046875 122.371094 141.410156 122.402344 Z M 141.410156 122.402344 "/>
<path fill-rule="evenodd" fill="rgb(19.215686%, 28.235294%, 21.176471%)" fill-opacity="1" d="M 130.082031 119.152344 C 131.703125 117.4375 132.933594 115.695312 133.773438 113.925781 C 134.613281 112.15625 135.355469 110.222656 136 108.117188 C 135.121094 107.691406 134.679688 107.480469 134.679688 107.480469 C 134.050781 109.148438 133.15625 111.015625 131.941406 113.300781 C 130.726562 115.582031 129.621094 117.296875 128.566406 118.476562 C 128.882812 118.621094 129.117188 118.726562 129.277344 118.796875 C 129.453125 118.875 129.722656 118.996094 130.082031 119.152344 Z M 130.082031 119.152344 "/>
<path fill-rule="evenodd" fill="rgb(19.215686%, 28.235294%, 21.176471%)" fill-opacity="1" d="M 118.09375 112.777344 C 118.609375 110.472656 119.367188 108.480469 120.363281 106.796875 C 121.359375 105.109375 122.550781 103.414062 123.933594 101.703125 C 124.777344 102.195312 125.199219 102.4375 125.199219 102.4375 C 124.167969 103.894531 123.121094 105.679688 121.90625 107.964844 C 120.691406 110.25 119.890625 112.121094 119.5 113.65625 C 119.207031 113.476562 118.984375 113.339844 118.839844 113.246094 C 118.671875 113.144531 118.425781 112.988281 118.09375 112.777344 Z M 118.09375 112.777344 "/>
<path fill-rule="evenodd" fill="rgb(19.215686%, 28.235294%, 21.176471%)" fill-opacity="1" d="M 109.007812 105.175781 C 109.296875 103.59375 109.941406 101.964844 110.9375 100.277344 C 111.933594 98.59375 113.09375 96.980469 114.414062 95.4375 C 115.171875 96 115.550781 96.28125 115.550781 96.28125 C 114.523438 97.738281 113.511719 99.265625 112.300781 101.550781 C 111.085938 103.832031 110.765625 105.136719 110.375 106.671875 C 110.058594 106.347656 109.808594 106.089844 109.625 105.894531 C 109.441406 105.695312 109.234375 105.457031 109.007812 105.175781 Z M 109.007812 105.175781 "/>
</svg>
