<?xml version="1.0" encoding="UTF-8"?>
<svg xmlns="http://www.w3.org/2000/svg" xmlns:xlink="http://www.w3.org/1999/xlink" width="200" height="200" viewBox="0 0 200 200">
<path fill-rule="evenodd" fill="rgb(69.803922%, 88.627451%, 88.627451%)" fill-opacity="1" d="M 60.917969 141.929688 C 60.917969 144.003906 60.464844 145.527344 59.089844 145.613281 L 58.960938 145.617188 C 57.515625 145.59375 57.039062 144.046875 57.039062 141.929688 C 57.039062 140.554688 57.757812 138.53125 58.980469 136.207031 C 60.203125 138.53125 60.917969 140.554688 60.917969 141.929688 Z M 60.917969 141.929688 "/>
<path fill-rule="evenodd" fill="rgb(69.803922%, 88.627451%, 88.627451%)" fill-opacity="1" d="M 55.152344 147.351562 C 55.152344 148.515625 54.894531 149.371094 54.121094 149.421875 L 54.050781 149.421875 C 53.238281 149.410156 52.96875 148.539062 52.96875 147.351562 C 52.96875 146.578125 53.375 145.441406 54.058594 144.136719 C 54.746094 145.441406 55.152344 146.578125 55.152344 147.351562 Z M 55.152344 147.351562 "/>
<path fill-rule="evenodd" fill="rgb(0%, 0%, 0%)" fill-opacity="1" d="M 81.265625 152.640625 C 81.265625 155.160156 79.214844 157.203125 76.691406 157.203125 C 74.164062 157.203125 72.117188 155.160156 72.117188 152.640625 C 72.117188 150.121094 74.164062 148.078125 76.691406 148.078125 C 79.214844 148.078125 81.265625 150.121094 81.265625 152.640625 Z M 81.265625 152.640625 "/>
<path fill-rule="evenodd" fill="rgb(0%, 0%, 0%)" fill-opacity="1" d="M 128.847656 152.640625 C 128.847656 155.160156 126.796875 157.203125 124.273438 157.203125 C 121.746094 157.203125 119.699219 155.160156 119.699219 152.640625 C 119.699219 150.121094 121.746094 148.078125 124.273438 148.078125 C 126.796875 148.078125 128.847656 150.121094 128.847656 152.640625 Z M 128.847656 152.640625 "/>
<path fill-rule="evenodd" fill="rgb(51.372549%, 19.607843%, 9.803922%)" fill-opacity="1" d="M 99.59375 178.847656 L 99.171875 178.84375 L 98.539062 178.835938 L 97.707031 178.820312 C 92.128906 178.6875 87.019531 178.074219 87.019531 177.117188 C 87.019531 176.03125 87.277344 173.941406 88.570312 172.21875 C 89.867188 170.496094 94.222656 167.789062 100.015625 167.789062 L 100.269531 167.789062 C 105.9375 167.867188 110.152344 170.519531 111.429688 172.21875 C 112.722656 173.941406 112.980469 176.03125 112.980469 177.117188 C 112.980469 178.085938 107.765625 178.699219 102.117188 178.824219 L 101.488281 178.835938 C 101.140625 178.839844 100.789062 178.84375 100.4375 178.847656 Z M 99.59375 178.847656 "/>
<path fill-rule="evenodd" fill="rgb(86.666667%, 47.45098%, 35.294118%)" fill-opacity="1" d="M 100.050781 178.847656 L 99.855469 178.84375 L 99.566406 178.84375 L 99.179688 178.835938 C 96.597656 178.789062 94.230469 178.578125 94.230469 178.246094 C 94.230469 177.867188 94.351562 177.140625 94.949219 176.539062 C 95.546875 175.941406 97.566406 175 100.246094 175 L 100.367188 175 C 102.988281 175.027344 104.941406 175.949219 105.53125 176.539062 C 106.132812 177.140625 106.25 177.867188 106.25 178.246094 C 106.25 178.582031 103.835938 178.796875 101.21875 178.839844 L 100.929688 178.84375 C 100.769531 178.84375 100.605469 178.84375 100.441406 178.847656 Z M 100.050781 178.847656 "/>
</svg>
