<?xml version="1.0" encoding="UTF-8"?>
<svg xmlns="http://www.w3.org/2000/svg" xmlns:xlink="http://www.w3.org/1999/xlink" width="200" height="200" viewBox="0 0 200 200">
<path fill-rule="evenodd" fill="rgb(69.803922%, 88.627451%, 88.627451%)" fill-opacity="1" d="M 110.945312 177.847656 C 110.996094 180.359375 110.863281 181.929688 110.539062 182.550781 C 110.058594 183.484375 108.851562 184.875 110.082031 185.945312 C 111.3125 187.019531 112.980469 185.832031 112.980469 183.773438 C 112.980469 182.398438 112.980469 180.183594 112.980469 177.117188 Z M 110.945312 177.847656 "/>
<path fill-rule="evenodd" fill="rgb(51.372549%, 19.607843%, 9.803922%)" fill-opacity="1" d="M 99.59375 178.847656 L 99.171875 178.84375 L 98.539062 178.835938 L 97.707031 178.820312 C 92.128906 178.6875 87.019531 178.074219 87.019531 177.117188 C 87.019531 176.03125 87.277344 173.941406 88.570312 172.21875 C 89.867188 170.496094 94.222656 167.789062 100.015625 167.789062 L 100.269531 167.789062 C 105.9375 167.867188 110.152344 170.519531 111.429688 172.21875 C 112.722656 173.941406 112.980469 176.03125 112.980469 177.117188 C 112.980469 178.085938 107.765625 178.699219 102.117188 178.824219 L 101.488281 178.835938 C 101.140625 178.839844 100.789062 178.84375 100.4375 178.847656 Z M 99.59375 178.847656 "/>
<path fill-rule="evenodd" fill="rgb(86.666667%, 47.45098%, 35.294118%)" fill-opacity="1" d="M 100.050781 178.847656 L 99.855469 178.84375 L 99.566406 178.84375 L 99.179688 178.835938 C 96.597656 178.789062 94.230469 178.578125 94.230469 178.246094 C 94.230469 177.867188 94.351562 177.140625 94.949219 176.539062 C 95.546875 175.941406 97.566406 175 100.246094 175 L 100.367188 175 C 102.988281 175.027344 104.941406 175.949219 105.53125 176.539062 C 106.132812 177.140625 106.25 177.867188 106.25 178.246094 C 106.25 178.582031 103.835938 178.796875 101.21875 178.839844 L 100.929688 178.84375 C 100.769531 178.84375 100.605469 178.84375 100.441406 178.847656 Z M 100.050781 178.847656 "/>
<path fill="none" stroke-width="5" stroke-linecap="round" stroke-linejoin="miter" stroke="rgb(0%, 0%, 0%)" stroke-opacity="1" stroke-miterlimit="4" d="M -0.000799561 1.160987 C 2.526075 0.389112 5.37795 -0.000887804 8.56295 -0.000887804 C 11.74795 -0.000887804 14.599825 0.389112 17.1267 1.160987 " transform="matrix(0.480769, 0, 0, -0.480769, 72.344134, 152.640198)"/>
<path fill="none" stroke-width="5" stroke-linecap="round" stroke-linejoin="miter" stroke="rgb(0%, 0%, 0%)" stroke-opacity="1" stroke-miterlimit="4" d="M 99.92045 1.160987 C 102.447325 0.389112 105.2992 -0.000887804 108.4842 -0.000887804 C 111.6692 -0.000887804 114.521075 0.389112 117.04795 1.160987 " transform="matrix(0.480769, 0, 0, -0.480769, 72.344134, 152.640198)"/>
</svg>
