<?xml version="1.0" encoding="UTF-8"?>
<svg xmlns="http://www.w3.org/2000/svg" xmlns:xlink="http://www.w3.org/1999/xlink" width="200" height="200" viewBox="0 0 200 200">
<path fill="none" stroke-width="5" stroke-linecap="round" stroke-linejoin="miter" stroke="rgb(0%, 0%, 0%)" stroke-opacity="1" stroke-miterlimit="4" d="M -0.000799561 1.163288 C 2.526075 0.391413 5.37795 0.00141281 8.56295 0.00141281 C 11.74795 0.00141281 14.599825 0.391413 17.1267 1.163288 " transform="matrix(0.480769, 0, 0, 0.480769, 72.344134, 152.081352)"/>
<path fill="none" stroke-width="5" stroke-linecap="round" stroke-linejoin="miter" stroke="rgb(0%, 0%, 0%)" stroke-opacity="1" stroke-miterlimit="4" d="M 99.92045 1.163288 C 102.447325 0.391413 105.2992 0.00141281 108.4842 0.00141281 C 111.6692 0.00141281 114.521075 0.391413 117.04795 1.163288 " transform="matrix(0.480769, 0, 0, 0.480769, 72.344134, 152.081352)"/>
<path fill="none" stroke-width="4" stroke-linecap="round" stroke-linejoin="miter" stroke="rgb(51.372549%, 19.607843%, 9.803922%)" stroke-opacity="1" stroke-miterlimit="4" d="M 41.526075 35.670163 C 41.526075 42.487038 49.1392 48.012038 58.523575 48.012038 C 67.916075 48.012038 75.521075 42.487038 75.521075 35.670163 " transform="matrix(0.480769, 0, 0, 0.480769, 72.344134, 152.081352)"/>
</svg>
