<?xml version="1.0" encoding="UTF-8"?>
<svg xmlns="http://www.w3.org/2000/svg" xmlns:xlink="http://www.w3.org/1999/xlink" width="200" height="200" viewBox="0 0 200 200">
<path fill-rule="evenodd" fill="rgb(100%, 100%, 100%)" fill-opacity="1" d="M 124.039062 106.894531 C 142.992188 88.410156 157.640625 79.414062 167.976562 79.910156 C 178.3125 80.40625 179.089844 98.976562 170.3125 135.621094 C 179.234375 138.816406 183.695312 141.527344 183.695312 143.746094 C 183.695312 145.964844 178.457031 146.671875 167.976562 145.871094 C 173.800781 148.453125 176.164062 150.246094 175.058594 151.253906 C 173.953125 152.257812 169.757812 153.3125 162.46875 154.410156 "/>
<path fill-rule="evenodd" fill="rgb(0%, 0%, 0%)" fill-opacity="1" d="M 134.273438 114.222656 C 148.296875 98.398438 157.226562 91.242188 161.058594 92.753906 C 166.804688 95.019531 161.125 138.683594 154.777344 143.769531 "/>
<path fill-rule="evenodd" fill="rgb(100%, 100%, 100%)" fill-opacity="1" d="M 76.964844 106.894531 C 58.007812 88.410156 43.363281 79.414062 33.027344 79.910156 C 22.691406 80.40625 21.910156 98.976562 30.691406 135.621094 C 21.769531 138.816406 17.308594 141.527344 17.308594 143.746094 C 17.308594 145.964844 22.546875 146.671875 33.027344 145.871094 C 27.203125 148.453125 24.839844 150.246094 25.945312 151.253906 C 27.046875 152.257812 31.246094 153.3125 38.535156 154.410156 "/>
<path fill-rule="evenodd" fill="rgb(0%, 0%, 0%)" fill-opacity="1" d="M 66.488281 114.222656 C 52.460938 98.398438 43.535156 91.242188 39.703125 92.753906 C 33.957031 95.019531 39.636719 138.683594 45.984375 143.769531 "/>
<path fill-rule="evenodd" fill="rgb(76.862745%, 49.803922%, 29.019608%)" fill-opacity="1" d="M 37.5 157.933594 C 37.5 139.226562 54.328125 98.085938 100.480469 98.078125 L 101.445312 98.085938 C 147.363281 98.980469 163.460938 139.414062 163.460938 157.933594 C 163.460938 176.640625 132.609375 196.632812 100.480469 196.632812 C 68.351562 196.632812 37.5 176.640625 37.5 157.933594 Z M 37.5 157.933594 "/>
<path fill-rule="evenodd" fill="rgb(100%, 100%, 100%)" fill-opacity="1" d="M 100.699219 188.941406 C 120.625 188.941406 148.226562 184.792969 148.226562 173.375 C 148.226562 161.957031 120.625 147.597656 100.699219 147.597656 C 80.769531 147.597656 53.511719 161.957031 53.511719 173.375 C 53.511719 184.792969 80.769531 188.941406 100.699219 188.941406 Z M 100.699219 188.941406 "/>
<path fill-rule="evenodd" fill="rgb(76.862745%, 49.803922%, 29.019608%)" fill-opacity="1" d="M 100.503906 192.308594 C 115.070312 192.308594 135.246094 187.191406 135.246094 173.117188 C 135.246094 159.046875 115.070312 141.347656 100.503906 141.347656 C 85.9375 141.347656 66.011719 159.046875 66.011719 173.117188 C 66.011719 187.191406 85.9375 192.308594 100.503906 192.308594 Z M 100.503906 192.308594 "/>
<path fill-rule="evenodd" fill="rgb(100%, 100%, 100%)" fill-opacity="1" d="M 100.242188 186.539062 C 108.871094 186.539062 120.820312 182.628906 120.820312 171.875 C 120.820312 161.121094 108.871094 147.597656 100.242188 147.597656 C 91.609375 147.597656 79.808594 161.121094 79.808594 171.875 C 79.808594 182.628906 91.609375 186.539062 100.242188 186.539062 Z M 100.242188 186.539062 "/>
<path fill-rule="evenodd" fill="rgb(100%, 100%, 100%)" fill-opacity="1" d="M 81.636719 136.300781 C 81.636719 139.089844 78.949219 141.351562 75.628906 141.351562 C 72.308594 141.351562 69.617188 139.089844 69.617188 136.300781 C 69.617188 133.515625 72.308594 131.253906 75.628906 131.253906 C 78.949219 131.253906 81.636719 133.515625 81.636719 136.300781 Z M 81.636719 136.300781 "/>
<path fill-rule="evenodd" fill="rgb(100%, 100%, 100%)" fill-opacity="1" d="M 118.175781 136.300781 C 118.175781 139.089844 120.867188 141.351562 124.1875 141.351562 C 127.503906 141.351562 130.195312 139.089844 130.195312 136.300781 C 130.195312 133.515625 127.503906 131.253906 124.1875 131.253906 C 120.867188 131.253906 118.175781 133.515625 118.175781 136.300781 Z M 118.175781 136.300781 "/>
<path fill-rule="evenodd" fill="rgb(0%, 0%, 0%)" fill-opacity="1" stroke-width="3" stroke-linecap="butt" stroke-linejoin="round" stroke="rgb(0%, 0%, 0%)" stroke-opacity="1" stroke-miterlimit="4" d="M 172.50375 175.820957 L 177.99625 178.827207 L 167.003125 178.827207 Z M 172.50375 175.820957 " transform="matrix(0.480769, 0, 0, -0.480769, 17.307692, 250.396494)"/>
</svg>
