<?xml version="1.0" encoding="UTF-8"?>
<svg width="416px" height="416px" viewBox="0 0 416 416" version="1.1" xmlns="http://www.w3.org/2000/svg" xmlns:xlink="http://www.w3.org/1999/xlink">
    <title>Artboard</title>
    <g id="Artboard" stroke="none" stroke-width="1" fill="none" fill-rule="evenodd">
        <g id="Ashley" transform="translate(87, 128.9813)">
            <g id="Head" transform="translate(0, 60.0187)">
                <path d="M120.458948,221.326926 C80.4469806,220.843953 45.2624194,196.509413 30.317241,159.341007 C22.6566127,160.90351 15.9147749,158.897571 10.0917275,153.32319 C1.21203377,144.822692 -2.14881043,132.051303 1.37879322,119.886391 C3.73052898,111.776449 10.7489199,109.136553 22.4339659,111.966704 C25.1172478,56.1882184 69.0468675,11.8479084 121.672893,11.8479084 C174.02483,11.8479084 217.730605,56.1882184 220.399912,111.966704 C232.0241,109.136553 239.005937,111.776449 241.345425,119.886391 C244.854656,132.051303 241.511316,144.822692 232.677869,153.32319 C226.88515,158.897571 220.178425,160.90351 212.557695,159.341007 C197.540179,196.884852 161.97494,221.33425 121.672893,221.33425 L120.458948,221.326926 Z" fill="#E6C29C"></path>
                <ellipse id="Blush" fill="#CC8574" cx="60.8364466" cy="153.848531" rx="15.2091116" ry="7.61494225"></ellipse>
                <ellipse id="Blush" fill="#CC8574" cx="181.55877" cy="153.848531" rx="15.2091116" ry="7.61494225"></ellipse>
                <path d="M192.251951,191.025819 L192.696301,190.589763 C195.594789,187.678692 211.679198,170.479271 211.272415,147.66139 C210.83881,123.339034 190.257303,116.883614 180.437739,113.121101 L179.558442,112.779281 C170.151936,109.057161 122.957739,100.555923 98.0586873,89.1787813 L86.5865745,83.948813 C73.2157261,77.8666727 58.9539209,71.4244172 43.8011589,64.6220465 L43.6675188,68.9057703 C42.2144365,114.371712 40.3494637,137.104683 38.0726005,137.104683 C34.5516781,137.104683 17.7264124,105.379255 15.2631016,92.9893268 C12.7997907,80.5993987 19.5058696,53.3240772 38.0726005,50.4420051 L38.1851084,50.0059971 C39.0697964,46.7262711 45.4231449,25.6749037 66.0243508,11.8479084 C88.416966,-3.18143429 126.209572,-1.3787408 146.279615,3.5083404 C166.148958,8.34655079 197.843064,39.7147463 205.04164,47.5717477 L207.046373,49.7801537 C213.723261,57.1017884 223.180038,66.5920965 239.11635,66.5920965 L240.263442,66.5864916 C251.215134,66.4781305 258.197717,64.798533 261.211191,61.5476992 C262.717175,70.7796523 258.057523,78.2166938 247.232236,83.8588237 L247.701733,84.7396886 C250.418111,89.8995297 264,116.586454 264,134.34084 C264,154.067936 249.022988,197.052385 247.232236,205.487818 C245.441484,213.923251 246.252661,226.101736 250.300336,230 L216.729841,230 L216.648413,229.87131 L216.679128,229.418732 C216.71285,228.820955 216.729841,228.220756 216.729841,227.618284 C216.729841,213.564926 207.485053,200.74864 192.289649,191.056724" id="Path" fill="#332B27"></path>
            </g>
        </g>
    </g>
</svg>