<?xml version="1.0" encoding="UTF-8"?>
<svg xmlns="http://www.w3.org/2000/svg" xmlns:xlink="http://www.w3.org/1999/xlink" width="400" height="400" viewBox="0 0 400 400">
<path fill-rule="evenodd" fill="rgb(29.803922%, 53.333333%, 63.137255%)" fill-opacity="1" d="M 285.707031 363.460938 C 291.585938 364.726562 289.1875 385.394531 287.292969 388.921875 C 284.960938 391.222656 272.882812 413.460938 199.800781 413.460938 C 126.71875 413.460938 114.011719 390.722656 111.679688 388.421875 C 109.785156 384.898438 107.511719 364.726562 113.386719 363.460938 C 132.683594 369.414062 161.488281 372.390625 199.800781 372.390625 C 238.113281 372.390625 266.75 369.414062 285.707031 363.460938 Z M 285.707031 363.460938 "/>
<path fill-rule="evenodd" fill="rgb(17.647059%, 39.215686%, 47.843137%)" fill-opacity="1" d="M 264.183594 404.226562 C 265.890625 399.285156 266.585938 393.65625 266.273438 387.34375 C 265.957031 381.027344 265.023438 374.671875 263.472656 368.269531 C 260.179688 368.730469 258.53125 368.957031 258.53125 368.957031 C 259.328125 374.667969 259.9375 380.550781 259.9375 388.902344 C 259.9375 397.25 258.777344 401.453125 257.445312 406.417969 C 258.964844 405.980469 260.171875 405.625 261.066406 405.339844 C 261.964844 405.058594 263.003906 404.6875 264.183594 404.226562 Z M 264.183594 404.226562 "/>
<path fill-rule="evenodd" fill="rgb(17.647059%, 39.215686%, 47.843137%)" fill-opacity="1" d="M 223.550781 412.128906 C 225.761719 404.78125 226.710938 397.949219 226.394531 391.636719 C 226.082031 385.320312 225.1875 378.679688 223.710938 371.707031 C 220.273438 371.824219 218.550781 371.886719 218.550781 371.886719 C 219.347656 377.59375 219.660156 384.28125 219.660156 392.628906 C 219.660156 400.980469 219.054688 407.535156 217.722656 412.5 C 218.941406 412.429688 219.855469 412.375 220.460938 412.339844 C 221.148438 412.292969 222.179688 412.222656 223.550781 412.128906 Z M 223.550781 412.128906 "/>
<path fill-rule="evenodd" fill="rgb(17.647059%, 39.215686%, 47.843137%)" fill-opacity="1" d="M 175.714844 412.128906 C 173.503906 404.78125 172.558594 397.949219 172.871094 391.636719 C 173.1875 385.320312 174.082031 378.679688 175.554688 371.707031 C 178.992188 371.824219 180.714844 371.886719 180.714844 371.886719 C 179.917969 377.59375 179.609375 384.28125 179.609375 392.628906 C 179.609375 400.980469 180.210938 407.535156 181.542969 412.5 C 180.324219 412.429688 179.410156 412.375 178.804688 412.339844 C 178.117188 412.292969 177.085938 412.222656 175.714844 412.128906 Z M 175.714844 412.128906 "/>
<path fill-rule="evenodd" fill="rgb(17.647059%, 39.215686%, 47.843137%)" fill-opacity="1" d="M 134.855469 404.226562 C 133.148438 399.285156 132.453125 393.65625 132.765625 387.34375 C 133.082031 381.027344 134.015625 374.671875 135.566406 368.269531 C 138.859375 368.730469 140.507812 368.957031 140.507812 368.957031 C 139.710938 374.667969 139.101562 380.550781 139.101562 388.902344 C 139.101562 397.25 140.261719 401.453125 141.59375 406.417969 C 140.074219 405.980469 138.867188 405.625 137.96875 405.339844 C 137.074219 405.058594 136.035156 404.6875 134.855469 404.226562 Z M 134.855469 404.226562 "/>
<path fill-rule="evenodd" fill="rgb(17.647059%, 39.215686%, 47.843137%)" fill-opacity="1" d="M 218.484375 193.808594 C 239.484375 156.03125 271.824219 148.757812 315.503906 171.984375 C 322.960938 175.949219 340.699219 186.773438 341.046875 195.84375 C 341.394531 204.914062 328.074219 201.433594 321.40625 208.035156 C 316.960938 212.433594 311.78125 223.179688 305.867188 240.269531 C 295.050781 238.882812 279.574219 232.839844 259.445312 222.136719 C 239.316406 211.433594 225.660156 201.988281 218.484375 193.808594 Z M 218.484375 193.808594 "/>
<path fill-rule="evenodd" fill="rgb(29.803922%, 53.333333%, 63.137255%)" fill-opacity="1" d="M 305.867188 240.269531 C 308.480469 242.546875 301.234375 253.234375 299.246094 254.65625 C 297.394531 255.289062 284.785156 264.230469 247.726562 244.523438 C 210.664062 224.816406 210.851562 208.921875 210.339844 207.03125 C 210.40625 204.589844 215.132812 192.914062 218.484375 193.808594 C 226.53125 202.273438 240.269531 211.671875 259.699219 222.003906 C 279.128906 232.332031 294.515625 238.421875 305.867188 240.269531 Z M 305.867188 240.269531 "/>
<path fill-rule="evenodd" fill="rgb(17.647059%, 39.215686%, 47.843137%)" fill-opacity="1" d="M 282.820312 256.34375 C 285.113281 254.097656 287.097656 251.203125 288.777344 247.667969 C 290.457031 244.128906 291.835938 240.402344 292.921875 236.488281 C 291.136719 235.863281 290.246094 235.550781 290.246094 235.550781 C 288.984375 238.882812 287.578125 242.265625 285.148438 246.832031 C 282.71875 251.398438 280.917969 253.386719 278.808594 255.746094 C 279.695312 255.914062 280.402344 256.039062 280.933594 256.125 C 281.46875 256.207031 282.09375 256.28125 282.820312 256.34375 Z M 282.820312 256.34375 "/>
<path fill-rule="evenodd" fill="rgb(17.647059%, 39.215686%, 47.843137%)" fill-opacity="1" d="M 260.160156 249.839844 C 263.40625 246.410156 265.867188 242.925781 267.546875 239.390625 C 269.226562 235.851562 270.707031 231.980469 271.996094 227.777344 C 270.238281 226.925781 269.359375 226.5 269.359375 226.5 C 268.097656 229.832031 266.308594 233.574219 263.882812 238.140625 C 261.453125 242.707031 259.246094 246.128906 257.132812 248.492188 C 257.765625 248.777344 258.238281 248.992188 258.550781 249.132812 C 258.910156 249.292969 259.445312 249.527344 260.160156 249.839844 Z M 260.160156 249.839844 "/>
<path fill-rule="evenodd" fill="rgb(17.647059%, 39.215686%, 47.843137%)" fill-opacity="1" d="M 236.191406 237.09375 C 237.21875 232.488281 238.730469 228.5 240.726562 225.128906 C 242.71875 221.757812 245.097656 218.363281 247.867188 214.945312 C 249.554688 215.925781 250.398438 216.417969 250.398438 216.417969 C 248.339844 219.328125 246.238281 222.902344 243.8125 227.46875 C 241.382812 232.035156 239.78125 235.78125 239.003906 238.851562 C 238.414062 238.488281 237.972656 238.214844 237.679688 238.03125 C 237.347656 237.824219 236.851562 237.511719 236.191406 237.09375 Z M 236.191406 237.09375 "/>
<path fill-rule="evenodd" fill="rgb(17.647059%, 39.215686%, 47.843137%)" fill-opacity="1" d="M 218.015625 221.886719 C 218.59375 218.730469 219.882812 215.464844 221.875 212.097656 C 223.871094 208.726562 226.1875 205.496094 228.828125 202.410156 C 230.34375 203.539062 231.101562 204.105469 231.101562 204.105469 C 229.042969 207.011719 227.027344 210.070312 224.597656 214.636719 C 222.171875 219.203125 221.53125 221.808594 220.753906 224.878906 C 220.117188 224.238281 219.617188 223.71875 219.25 223.324219 C 218.882812 222.933594 218.472656 222.453125 218.015625 221.886719 Z M 218.015625 221.886719 "/>
</svg>
