<?xml version="1.0" encoding="UTF-8"?>
<svg xmlns="http://www.w3.org/2000/svg" xmlns:xlink="http://www.w3.org/1999/xlink" width="400" height="400" viewBox="0 0 400 400">
<path fill-rule="evenodd" fill="rgb(69.803922%, 88.627451%, 88.627451%)" fill-opacity="1" d="M 121.839844 283.863281 C 121.839844 288.003906 120.929688 291.054688 118.179688 291.230469 L 117.925781 291.238281 C 115.027344 291.1875 114.078125 288.097656 114.078125 283.863281 C 114.078125 281.109375 115.515625 277.066406 117.960938 272.414062 C 120.402344 277.066406 121.839844 281.109375 121.839844 283.863281 Z M 121.839844 283.863281 "/>
<path fill-rule="evenodd" fill="rgb(69.803922%, 88.627451%, 88.627451%)" fill-opacity="1" d="M 110.300781 294.703125 C 110.300781 297.03125 109.789062 298.742188 108.246094 298.84375 L 108.101562 298.847656 C 106.472656 298.820312 105.941406 297.082031 105.941406 294.703125 C 105.941406 293.15625 106.746094 290.882812 108.121094 288.269531 C 109.492188 290.882812 110.300781 293.15625 110.300781 294.703125 Z M 110.300781 294.703125 "/>
<path fill-rule="evenodd" fill="rgb(0%, 0%, 0%)" fill-opacity="1" d="M 162.527344 305.28125 C 162.527344 310.320312 158.433594 314.40625 153.378906 314.40625 C 148.328125 314.40625 144.230469 310.320312 144.230469 305.28125 C 144.230469 300.238281 148.328125 296.152344 153.378906 296.152344 C 158.433594 296.152344 162.527344 300.238281 162.527344 305.28125 Z M 162.527344 305.28125 "/>
<path fill-rule="evenodd" fill="rgb(0%, 0%, 0%)" fill-opacity="1" d="M 257.691406 305.28125 C 257.691406 310.320312 253.597656 314.40625 248.542969 314.40625 C 243.492188 314.40625 239.394531 310.320312 239.394531 305.28125 C 239.394531 300.238281 243.492188 296.152344 248.542969 296.152344 C 253.597656 296.152344 257.691406 300.238281 257.691406 305.28125 Z M 257.691406 305.28125 "/>
<path fill-rule="evenodd" fill="rgb(61.176471%, 35.294118%, 35.686275%)" fill-opacity="1" d="M 144.230469 342.699219 C 144.230469 340.523438 145.355469 336.347656 151.011719 332.898438 C 156.671875 329.449219 175.636719 323.695312 200.960938 323.695312 C 226.285156 323.695312 245.335938 329.5 250.910156 332.898438 C 256.566406 336.347656 257.691406 340.523438 257.691406 342.699219 C 257.691406 344.632812 225.65625 345.90625 200.960938 346.152344 C 176.59375 345.890625 144.230469 344.609375 144.230469 342.699219 Z M 144.230469 342.699219 "/>
<path fill-rule="evenodd" fill="rgb(92.941176%, 50.980392%, 51.372549%)" fill-opacity="1" d="M 201.191406 346.152344 L 200.335938 346.152344 L 199.058594 346.148438 L 197.371094 346.136719 C 186.089844 346.042969 175.746094 345.617188 175.746094 344.953125 C 175.746094 344.195312 176.269531 342.742188 178.886719 341.542969 C 181.507812 340.34375 190.320312 338.460938 202.042969 338.460938 L 202.558594 338.460938 C 214.023438 338.515625 222.554688 340.363281 225.136719 341.542969 C 227.753906 342.742188 228.277344 344.195312 228.277344 344.953125 C 228.277344 345.625 217.726562 346.054688 206.292969 346.136719 L 205.027344 346.148438 C 204.316406 346.148438 203.605469 346.152344 202.894531 346.152344 Z M 201.191406 346.152344 "/>
</svg>
