<?xml version="1.0" encoding="UTF-8"?>
<svg xmlns="http://www.w3.org/2000/svg" xmlns:xlink="http://www.w3.org/1999/xlink" width="400" height="400" viewBox="0 0 400 400">
<path fill-rule="evenodd" fill="rgb(0%, 0%, 0%)" fill-opacity="1" d="M 162.527344 305.28125 C 162.527344 310.320312 158.433594 314.40625 153.378906 314.40625 C 148.328125 314.40625 144.230469 310.320312 144.230469 305.28125 C 144.230469 300.238281 148.328125 296.152344 153.378906 296.152344 C 158.433594 296.152344 162.527344 300.238281 162.527344 305.28125 Z M 162.527344 305.28125 "/>
<path fill-rule="evenodd" fill="rgb(0%, 0%, 0%)" fill-opacity="1" d="M 257.691406 305.28125 C 257.691406 310.320312 253.597656 314.40625 248.542969 314.40625 C 243.492188 314.40625 239.394531 310.320312 239.394531 305.28125 C 239.394531 300.238281 243.492188 296.152344 248.542969 296.152344 C 253.597656 296.152344 257.691406 300.238281 257.691406 305.28125 Z M 257.691406 305.28125 "/>
<path fill="none" stroke-width="4" stroke-linecap="round" stroke-linejoin="miter" stroke="rgb(78.823529%, 54.509804%, 54.901961%)" stroke-opacity="1" stroke-miterlimit="4" d="M -0.0003125 38.661237 C 11.321875 51.458112 46.661563 30.999362 58.999375 30.999362 C 71.34125 30.999362 108.643125 51.360612 117.999063 38.661237 " transform="matrix(0.961538, 0, 0, 0.961538, 144.230769, 296.153859)"/>
</svg>
