<?xml version="1.0" encoding="UTF-8"?>
<svg xmlns="http://www.w3.org/2000/svg" xmlns:xlink="http://www.w3.org/1999/xlink" width="400" height="400" viewBox="0 0 400 400">
<path fill-rule="evenodd" fill="rgb(69.803922%, 88.627451%, 88.627451%)" fill-opacity="1" d="M 251.699219 344.160156 C 251.800781 349.183594 251.53125 352.316406 250.886719 353.5625 C 249.925781 355.433594 247.511719 358.210938 249.972656 360.355469 C 252.433594 362.5 255.769531 360.121094 255.769531 356.007812 C 255.769531 353.261719 255.769531 348.824219 255.769531 342.699219 Z M 251.699219 344.160156 "/>
<path fill-rule="evenodd" fill="rgb(61.176471%, 35.294118%, 35.686275%)" fill-opacity="1" d="M 144.230469 342.699219 C 144.230469 340.523438 145.355469 336.347656 151.011719 332.898438 C 156.671875 329.449219 175.636719 323.695312 200.960938 323.695312 C 226.285156 323.695312 245.335938 329.5 250.910156 332.898438 C 256.566406 336.347656 257.691406 340.523438 257.691406 342.699219 C 257.691406 344.632812 225.65625 345.90625 200.960938 346.152344 C 176.59375 345.890625 144.230469 344.609375 144.230469 342.699219 Z M 144.230469 342.699219 "/>
<path fill-rule="evenodd" fill="rgb(92.941176%, 50.980392%, 51.372549%)" fill-opacity="1" d="M 201.191406 346.152344 L 200.335938 346.152344 L 199.058594 346.148438 L 197.371094 346.136719 C 186.089844 346.042969 175.746094 345.617188 175.746094 344.953125 C 175.746094 344.195312 176.269531 342.742188 178.886719 341.542969 C 181.507812 340.34375 190.320312 338.460938 202.042969 338.460938 L 202.558594 338.460938 C 214.023438 338.515625 222.554688 340.363281 225.136719 341.542969 C 227.753906 342.742188 228.277344 344.195312 228.277344 344.953125 C 228.277344 345.625 217.726562 346.054688 206.292969 346.136719 L 205.027344 346.148438 C 204.316406 346.152344 203.605469 346.152344 202.894531 346.152344 Z M 201.191406 346.152344 "/>
<path fill="none" stroke-width="5" stroke-linecap="round" stroke-linejoin="miter" stroke="rgb(0%, 0%, 0%)" stroke-opacity="1" stroke-miterlimit="4" d="M 0.475 1.160987 C 2.997813 0.389112 5.85375 -0.000887804 9.03875 -0.000887804 C 12.22375 -0.000887804 15.079688 0.389112 17.6025 1.160987 " transform="matrix(0.961538, 0, 0, -0.961538, 144.230769, 305.280396)"/>
<path fill="none" stroke-width="5" stroke-linecap="round" stroke-linejoin="miter" stroke="rgb(0%, 0%, 0%)" stroke-opacity="1" stroke-miterlimit="4" d="M 100.39625 1.160987 C 102.923125 0.389112 105.775 -0.000887804 108.96 -0.000887804 C 112.145 -0.000887804 115.000938 0.389112 117.52375 1.160987 " transform="matrix(0.961538, 0, 0, -0.961538, 144.230769, 305.280396)"/>
</svg>
