<?xml version="1.0" encoding="UTF-8"?>
<svg xmlns="http://www.w3.org/2000/svg" xmlns:xlink="http://www.w3.org/1999/xlink" width="400" height="400" viewBox="0 0 400 400">
<path fill-rule="evenodd" fill="rgb(78.823529%, 54.509804%, 54.901961%)" fill-opacity="1" d="M 302.882812 282.691406 C 314.179688 281.804688 316.339844 278.015625 309.359375 271.328125 C 309.359375 271.328125 325.722656 272.664062 317.542969 261.023438 C 317.542969 261.023438 333.5 257.597656 324.246094 249.386719 C 324.246094 249.386719 338.617188 244.8125 329.0625 239.347656 C 329.0625 239.347656 341.921875 233.765625 333.910156 229.808594 "/>
<path fill-rule="evenodd" fill="rgb(78.823529%, 54.509804%, 54.901961%)" fill-opacity="1" d="M 309.011719 313.972656 C 320.085938 316.632812 323.332031 313.675781 318.738281 305.09375 C 318.738281 305.09375 333.96875 311.460938 329.769531 297.765625 C 329.769531 297.765625 346.09375 299.4375 339.800781 288.699219 C 339.800781 288.699219 354.964844 288.78125 347.53125 280.578125 C 347.53125 280.578125 361.5625 279.222656 355.136719 272.941406 "/>
<path fill-rule="evenodd" fill="rgb(78.823529%, 54.509804%, 54.901961%)" fill-opacity="1" d="M 306.832031 325.386719 C 306.832031 325.386719 315.605469 334.0625 316.527344 323.394531 C 316.527344 323.394531 327.371094 329.125 326.019531 319.917969 C 326.019531 319.917969 336.503906 324.222656 333.652344 316.457031 "/>
<path fill-rule="evenodd" fill="rgb(78.823529%, 54.509804%, 54.901961%)" fill-opacity="1" d="M 97.117188 283.652344 C 85.820312 282.765625 83.660156 278.980469 90.640625 272.289062 C 90.640625 272.289062 74.277344 273.625 82.457031 261.988281 C 82.457031 261.988281 66.5 258.558594 75.753906 250.347656 C 75.753906 250.347656 61.382812 245.777344 70.9375 240.308594 C 70.9375 240.308594 58.078125 234.726562 66.089844 230.769531 "/>
<path fill-rule="evenodd" fill="rgb(78.823529%, 54.509804%, 54.901961%)" fill-opacity="1" d="M 91.136719 314.894531 C 80.0625 317.554688 76.820312 314.597656 81.410156 306.019531 C 81.410156 306.019531 66.179688 312.382812 70.378906 298.6875 C 70.378906 298.6875 54.058594 300.359375 60.347656 289.621094 C 60.347656 289.621094 45.183594 289.703125 52.617188 281.5 C 52.617188 281.5 38.585938 280.144531 45.015625 273.863281 "/>
<path fill-rule="evenodd" fill="rgb(78.823529%, 54.509804%, 54.901961%)" fill-opacity="1" d="M 95.746094 327.230469 C 95.746094 327.230469 86.976562 335.90625 86.050781 325.238281 C 86.050781 325.238281 75.207031 330.96875 76.558594 321.761719 C 76.558594 321.761719 66.074219 326.066406 68.929688 318.300781 "/>
<path fill-rule="evenodd" fill="rgb(98.431373%, 85.882353%, 85.882353%)" fill-opacity="1" d="M 198.417969 393.257812 C 146.375 392.589844 96.441406 359.058594 90.589844 325.535156 L 90.015625 325.347656 C 70.847656 320.292969 60.78125 315.492188 62.292969 311.519531 C 63.871094 307.371094 73.78125 308.558594 90.015625 314.363281 L 90.015625 314.019531 C 52.117188 283.492188 33.425781 264.460938 38.636719 260.011719 C 43.789062 255.617188 64.640625 263.953125 97.171875 282.695312 C 68.199219 240.167969 57.941406 217.117188 65.863281 215.015625 C 73.875 212.890625 88.675781 226.980469 110.90625 254.777344 C 128.023438 228.195312 156.804688 214.390625 199.996094 213.460938 C 243.191406 214.390625 271.730469 228.195312 288.847656 254.777344 C 310.34375 228.074219 326.039062 212.933594 333.890625 215.015625 C 341.8125 217.117188 331.554688 240.167969 302.582031 282.695312 C 335.113281 263.953125 355.964844 255.617188 361.117188 260.011719 C 366.4375 264.550781 349.308594 282.667969 309.738281 314.363281 L 309.738281 314.019531 C 325.398438 308.515625 335.914062 307.453125 337.460938 311.519531 C 339.019531 315.617188 329.585938 320.289062 309.164062 325.535156 C 303.253906 359.398438 252.605469 393.269531 199.996094 393.269531 Z M 198.417969 393.257812 "/>
</svg>
